<svg width="167" height="58" viewBox="0 0 167 58" fill="none" xmlns="http://www.w3.org/2000/svg">
<path d="M74.133 0.721375L82.3781 2.29755L82.8351 2.38544L82.7814 2.84637L80.5363 22.0974L83.0519 22.2985L83.5119 22.3356V27.1774H80.9074C80.5889 29.7429 80.1603 33.5002 79.8478 36.9538C79.6824 38.7817 79.5498 40.5207 79.4826 41.9509C79.4146 43.3985 79.4166 44.4825 79.5041 45.03L79.5685 45.4323L79.1877 45.5759L75.6711 46.9099L74.9982 47.1647L74.9933 46.446L74.8752 29.1179H72.9807L73.4474 42.3024L73.4689 42.9284L72.8537 42.8112L67.7609 41.8405L67.3693 41.7663L67.3547 41.3679L66.8693 28.1511V28.1472L66.7756 25.0544L61.8195 30.2761L63.3596 44.6198L63.4172 45.154L62.8801 45.1725L60.2922 45.2653L60.0881 45.2722L59.9377 45.1354C59.296 44.552 57.9983 43.0423 57.4484 41.2429L48.426 45.8552L47.8439 46.153L47.7092 45.5134L44.84 31.8806L43.9601 31.9245L46.3449 44.1149L46.4191 44.4909L46.0744 44.6599L41.176 47.0632L40.6125 47.3395L40.4689 46.7292L37.1574 32.6784L32.3996 33.5515L29.9807 43.7712L29.8449 44.3415L29.3029 44.1188L29.2844 44.111L30.5529 45.9616L30.8322 46.3679L30.4299 46.653L25.0685 50.4421L24.6838 50.7145L24.3889 50.3464L14.1144 37.5026L13.0773 56.3474L13.051 56.8386L12.5588 56.819L10.1555 56.7272L9.99042 56.7204L9.86151 56.6169L6.90643 54.2341L6.7121 54.0768L6.72089 53.8278L7.22772 38.6149L4.32635 34.652L4.03632 34.2565L4.42694 33.9597L8.841 30.5954L8.70721 20.4528L4.58319 21.7214L4.16913 21.8483L3.98456 21.4567L0.90741 14.9362L0.679871 14.4557L1.17499 14.2585L11.0666 10.322L11.1262 10.2985L11.1887 10.2907C13.1717 10.0395 16.319 9.80102 19.3283 9.90302C20.8326 9.95403 22.316 10.0911 23.6086 10.3581C24.8895 10.6227 26.0377 11.0263 26.8264 11.6472C28.4291 12.9089 28.717 15.0369 28.5246 17.0104C28.3297 19.008 27.6299 21.0191 27.0441 22.2673L27.0119 22.3366L26.9601 22.3932L19.2228 30.8464L23.8195 37.2057L25.09 33.2184L23.2463 29.3171L22.9933 28.7819L23.5637 28.6218L26.9621 27.6686L30.8478 2.73016L30.9103 2.3288L31.3156 2.30829L38.9562 1.90594L39.4074 1.88153L39.4767 2.3288L42.8957 24.4235L43.6779 24.4196L40.7287 4.07294L40.6389 3.44891L41.2668 3.5036L48.2531 4.11005L48.6769 4.14618L48.7092 4.57098L49.2648 12.0182C50.8545 11.427 53.2561 10.7671 55.9914 10.444C58.8767 10.1033 62.1646 10.1352 65.2785 11.0388L64.3303 5.66473L64.2033 4.94208L64.9221 5.08759L72.6828 6.66473L73.0988 6.74872L73.0832 7.17255L72.4953 23.6042L73.8947 23.5339L73.5383 1.2204L73.5285 0.60614L74.133 0.721375ZM49.8537 16.5759C49.7162 16.4669 49.5153 16.575 49.5305 16.7497L51.175 35.3073C51.1853 35.4232 51.2926 35.506 51.4074 35.487L57.1301 34.5417C57.2369 34.524 57.3107 34.4243 57.2961 34.3171L56.8449 31.0612C56.8436 31.0515 56.8418 31.0414 56.8391 31.0319L55.1057 25.1432L53.6623 19.654C53.6513 19.6124 53.6275 19.5754 53.5939 19.5485L49.8537 16.5759ZM19.8664 17.7604C18.707 17.7065 14.4416 17.7936 14.4416 17.7936C14.4416 17.7936 15.3301 19.434 15.6642 20.571C16.3601 22.9394 15.9021 24.5215 15.756 26.8913C15.7991 26.8571 21.4054 22.4056 21.383 21.2643C21.3605 20.1187 21.0255 17.8143 19.8664 17.7604ZM32.5607 26.7263L36.7512 26.1403L34.7121 20.1628L32.5607 26.7263ZM61.9904 17.7331C60.33 17.6704 58.453 17.733 57.7219 17.7722C57.6566 18.0855 57.6126 18.7193 57.9572 18.7507C58.3017 18.7823 58.7533 19.1352 59.1447 19.1745C59.5364 19.2137 60.0324 24.4694 60.0324 24.4694L63.7922 19.8083C63.8835 19.1424 63.6508 17.7958 61.9904 17.7331Z" fill="#F7C500"/>
<path d="M74.133 0.721375L74.2269 0.230267L74.2266 0.230219L74.133 0.721375ZM82.3781 2.29755L82.4725 1.80654L82.472 1.80644L82.3781 2.29755ZM82.8351 2.38544L83.3318 2.44331L83.3855 1.98212L82.9296 1.89443L82.8351 2.38544ZM82.7814 2.84637L83.2781 2.90429L83.2781 2.90425L82.7814 2.84637ZM80.5363 22.0974L80.0397 22.0394L79.9796 22.5544L80.4965 22.5958L80.5363 22.0974ZM83.0519 22.2985L83.0921 21.8001L83.0918 21.8001L83.0519 22.2985ZM83.5119 22.3356H84.0119V21.8743L83.5521 21.8373L83.5119 22.3356ZM83.5119 27.1774V27.6774H84.0119V27.1774H83.5119ZM80.9074 27.1774V26.6774H80.4657L80.4112 27.1158L80.9074 27.1774ZM79.8478 36.9538L79.3499 36.9087V36.9087L79.8478 36.9538ZM79.4826 41.9509L78.9832 41.9274V41.9274L79.4826 41.9509ZM79.5041 45.03L79.0104 45.1089L79.0104 45.1091L79.5041 45.03ZM79.5685 45.4323L79.7449 45.9002L80.1268 45.7562L80.0622 45.3532L79.5685 45.4323ZM79.1877 45.5759L79.0113 45.108L79.0103 45.1084L79.1877 45.5759ZM75.6711 46.9099L75.8482 47.3774L75.8484 47.3773L75.6711 46.9099ZM74.9982 47.1647L74.4982 47.1681L74.5031 47.887L75.1754 47.6323L74.9982 47.1647ZM74.9933 46.446L75.4933 46.4426V46.4426L74.9933 46.446ZM74.8752 29.1179L75.3752 29.1144L75.3718 28.6179H74.8752V29.1179ZM72.9807 29.1179V28.6179H72.4626L72.481 29.1355L72.9807 29.1179ZM73.4474 42.3024L73.9472 42.2853L73.9471 42.2847L73.4474 42.3024ZM73.4689 42.9284L73.3754 43.4196L73.9901 43.5367L73.9686 42.9113L73.4689 42.9284ZM72.8537 42.8112L72.7601 43.3024L72.7601 43.3024L72.8537 42.8112ZM67.7609 41.8405L67.8545 41.3494L67.854 41.3493L67.7609 41.8405ZM67.3693 41.7663L66.8697 41.7847L66.8843 42.1833L67.2762 42.2576L67.3693 41.7663ZM67.3547 41.3679L66.855 41.3862V41.3862L67.3547 41.3679ZM66.8693 28.1511H66.3693V28.1602L66.3697 28.1694L66.8693 28.1511ZM66.8693 28.1472H67.3693V28.1396L67.3691 28.132L66.8693 28.1472ZM66.7756 25.0544L67.2753 25.0392L67.239 23.8398L66.4129 24.7102L66.7756 25.0544ZM61.8195 30.2761L61.4569 29.9319L61.2977 30.0996L61.3224 30.3294L61.8195 30.2761ZM63.3596 44.6198L62.8624 44.6732L62.8624 44.6734L63.3596 44.6198ZM63.4172 45.154L63.4344 45.6537L63.972 45.6351L63.9143 45.1004L63.4172 45.154ZM62.8801 45.1725L62.8628 44.6728L62.8622 44.6729L62.8801 45.1725ZM60.2922 45.2653L60.3089 45.765L60.3101 45.765L60.2922 45.2653ZM60.0881 45.2722L59.7517 45.6421L59.9019 45.7787L60.1048 45.7719L60.0881 45.2722ZM59.9377 45.1354L59.6013 45.5054L59.6013 45.5054L59.9377 45.1354ZM57.4484 41.2429L57.9266 41.0967L57.7522 40.526L57.2208 40.7977L57.4484 41.2429ZM48.426 45.8552L48.1984 45.41L48.1982 45.4101L48.426 45.8552ZM47.8439 46.153L47.3547 46.2561L47.4895 46.8961L48.0717 46.5981L47.8439 46.153ZM47.7092 45.5134L47.2199 45.6163L47.2199 45.6164L47.7092 45.5134ZM44.84 31.8806L45.3293 31.7776L45.2414 31.3599L44.8151 31.3812L44.84 31.8806ZM43.9601 31.9245L43.9352 31.4251L43.3586 31.4539L43.4694 32.0205L43.9601 31.9245ZM46.3449 44.1149L45.8542 44.2109L45.8544 44.2118L46.3449 44.1149ZM46.4191 44.4909L46.6392 44.9399L46.984 44.7709L46.9097 44.3941L46.4191 44.4909ZM46.0744 44.6599L45.8544 44.2109L45.8542 44.211L46.0744 44.6599ZM41.176 47.0632L41.3961 47.5121L41.3962 47.5121L41.176 47.0632ZM40.6125 47.3395L40.1258 47.454L40.2694 48.0647L40.8327 47.7885L40.6125 47.3395ZM40.4689 46.7292L40.9557 46.6147L40.9556 46.6145L40.4689 46.7292ZM37.1574 32.6784L37.6441 32.5637L37.535 32.1008L37.0672 32.1866L37.1574 32.6784ZM32.3996 33.5515L32.3094 33.0597L31.9882 33.1186L31.913 33.4363L32.3996 33.5515ZM29.9807 43.7712L30.4671 43.887L30.4672 43.8863L29.9807 43.7712ZM29.8449 44.3415L29.6549 44.804L30.1959 45.0262L30.3313 44.4573L29.8449 44.3415ZM29.3029 44.1188L29.1089 44.5797L29.1129 44.5813L29.3029 44.1188ZM29.2844 44.111L29.4784 43.6502L27.9094 42.9896L28.872 44.3937L29.2844 44.111ZM30.5529 45.9616L30.1405 46.2443L30.1409 46.2449L30.5529 45.9616ZM30.8322 46.3679L31.1213 46.7758L31.5235 46.4908L31.2442 46.0846L30.8322 46.3679ZM30.4299 46.653L30.7184 47.0613L30.719 47.061L30.4299 46.653ZM25.0685 50.4421L24.78 50.0338L24.7796 50.034L25.0685 50.4421ZM24.6838 50.7145L24.2935 51.0271L24.5882 51.3949L24.9727 51.1226L24.6838 50.7145ZM24.3889 50.3464L23.9984 50.6587L23.9986 50.659L24.3889 50.3464ZM14.1144 37.5026L14.5049 37.1903L13.6871 36.168L13.6152 37.4751L14.1144 37.5026ZM13.0773 56.3474L12.5781 56.3199L12.5781 56.3205L13.0773 56.3474ZM13.051 56.8386L13.0311 57.3382L13.5238 57.3577L13.5502 56.8654L13.051 56.8386ZM12.5588 56.819L12.5786 56.3194L12.5779 56.3194L12.5588 56.819ZM10.1555 56.7272L10.1348 57.2268L10.1364 57.2269L10.1555 56.7272ZM9.99042 56.7204L9.67735 57.1103L9.8055 57.2132L9.96973 57.22L9.99042 56.7204ZM9.86151 56.6169L9.54766 57.0061L9.54844 57.0067L9.86151 56.6169ZM6.90643 54.2341L6.59195 54.6228L6.59258 54.6233L6.90643 54.2341ZM6.7121 54.0768L6.21241 54.0592L6.20361 54.3086L6.39761 54.4656L6.7121 54.0768ZM6.72089 53.8278L7.22058 53.8455L7.22061 53.8445L6.72089 53.8278ZM7.22772 38.6149L7.72745 38.6316L7.7332 38.4589L7.63116 38.3196L7.22772 38.6149ZM4.32635 34.652L4.72979 34.3567L4.72956 34.3564L4.32635 34.652ZM4.03632 34.2565L3.73377 33.8584L3.34245 34.1559L3.63311 34.5522L4.03632 34.2565ZM4.42694 33.9597L4.72948 34.3577L4.73003 34.3573L4.42694 33.9597ZM8.841 30.5954L9.14409 30.9931L9.34428 30.8405L9.34096 30.5888L8.841 30.5954ZM8.70721 20.4528L9.20717 20.4462L9.19836 19.7786L8.56021 19.9749L8.70721 20.4528ZM4.58319 21.7214L4.72976 22.1994L4.73019 22.1993L4.58319 21.7214ZM4.16913 21.8483L3.71685 22.0615L3.90153 22.4533L4.3157 22.3264L4.16913 21.8483ZM3.98456 21.4567L4.43684 21.2436L4.43674 21.2433L3.98456 21.4567ZM0.90741 14.9362L1.35959 14.7228L1.3593 14.7222L0.90741 14.9362ZM0.679871 14.4557L0.494807 13.9913L2.15173e-05 14.1884L0.227983 14.6698L0.679871 14.4557ZM1.17499 14.2585L0.990107 13.7939L0.989924 13.794L1.17499 14.2585ZM11.0666 10.322L10.8835 9.85667L10.8817 9.8574L11.0666 10.322ZM11.1262 10.2985L11.0641 9.80238L11.0017 9.81019L10.9431 9.83324L11.1262 10.2985ZM11.1887 10.2907L11.2507 10.7868L11.2515 10.7867L11.1887 10.2907ZM19.3283 9.90302L19.3453 9.4033H19.3452L19.3283 9.90302ZM23.6086 10.3581L23.7097 9.86843L23.7097 9.86843L23.6086 10.3581ZM26.8264 11.6472L27.1356 11.2543L27.1356 11.2543L26.8264 11.6472ZM28.5246 17.0104L29.0222 17.059L29.0222 17.059L28.5246 17.0104ZM27.0441 22.2673L26.5915 22.0548L26.5907 22.0565L27.0441 22.2673ZM27.0119 22.3366L27.381 22.6739L27.4329 22.6171L27.4653 22.5474L27.0119 22.3366ZM26.9601 22.3932L27.329 22.7308L27.3292 22.7305L26.9601 22.3932ZM19.2228 30.8464L18.854 30.5088L18.579 30.8092L18.8176 31.1393L19.2228 30.8464ZM23.8195 37.2057L23.4143 37.4987L23.995 38.302L24.2959 37.3575L23.8195 37.2057ZM25.09 33.2184L25.5664 33.3702L25.6262 33.1827L25.5421 33.0048L25.09 33.2184ZM23.2463 29.3171L23.6983 29.1034L23.6983 29.1034L23.2463 29.3171ZM22.9933 28.7819L22.8582 28.3005L22.2884 28.4605L22.5413 28.9956L22.9933 28.7819ZM23.5637 28.6218L23.4286 28.1403L23.4285 28.1404L23.5637 28.6218ZM26.9621 27.6686L27.0971 28.1501L27.4066 28.0633L27.4561 27.7456L26.9621 27.6686ZM30.8478 2.73016L31.3419 2.80714L31.3419 2.8071L30.8478 2.73016ZM30.9103 2.3288L30.8851 1.82944L30.4789 1.84999L30.4163 2.25186L30.9103 2.3288ZM31.3156 2.30829L31.3409 2.80765L31.3419 2.8076L31.3156 2.30829ZM38.9562 1.90594L38.9825 2.40525L38.9833 2.40521L38.9562 1.90594ZM39.4074 1.88153L39.9015 1.80493L39.8322 1.35781L39.3804 1.38226L39.4074 1.88153ZM39.4767 2.3288L39.9709 2.25234L39.9708 2.2522L39.4767 2.3288ZM42.8957 24.4235L42.4016 24.5L42.4674 24.9257L42.8982 24.9235L42.8957 24.4235ZM43.6779 24.4196L43.6804 24.9196L44.2552 24.9167L44.1727 24.3479L43.6779 24.4196ZM40.7287 4.07294L40.2338 4.14419L40.2339 4.14466L40.7287 4.07294ZM40.6389 3.44891L40.6822 2.9508L40.0541 2.89609L40.144 3.52017L40.6389 3.44891ZM41.2668 3.5036L41.2234 4.00172L41.2235 4.00173L41.2668 3.5036ZM48.2531 4.11005L48.2099 4.60817L48.2106 4.60824L48.2531 4.11005ZM48.6769 4.14618L49.1755 4.10836L49.1433 3.68413L48.7194 3.64799L48.6769 4.14618ZM48.7092 4.57098L49.2078 4.53378L49.2077 4.53316L48.7092 4.57098ZM49.2648 12.0182L48.7662 12.0555L48.8157 12.7188L49.4391 12.4869L49.2648 12.0182ZM55.9914 10.444L55.9327 9.94748L55.9327 9.94748L55.9914 10.444ZM65.2785 11.0388L65.1392 11.5189L65.9104 11.7428L65.7709 10.9519L65.2785 11.0388ZM64.3303 5.66473L63.8378 5.75125L63.8379 5.75162L64.3303 5.66473ZM64.2033 4.94208L64.3025 4.45202L63.584 4.30656L63.7108 5.02859L64.2033 4.94208ZM64.9221 5.08759L65.0216 4.5976L65.0213 4.59753L64.9221 5.08759ZM72.6828 6.66473L72.5832 7.15472L72.5839 7.15485L72.6828 6.66473ZM73.0988 6.74872L73.5985 6.76714L73.6141 6.34266L73.1978 6.25861L73.0988 6.74872ZM73.0832 7.17255L72.5835 7.15413L72.5835 7.15467L73.0832 7.17255ZM72.4953 23.6042L71.9956 23.5863L71.9761 24.1309L72.5204 24.1036L72.4953 23.6042ZM73.8947 23.5339L73.9198 24.0332L74.4024 24.009L74.3947 23.5259L73.8947 23.5339ZM73.5383 1.2204L73.0383 1.22835V1.22838L73.5383 1.2204ZM73.5285 0.60614L73.6221 0.114985L73.0188 -2.7895e-05L73.0286 0.614088L73.5285 0.60614ZM49.8537 16.5759L50.1648 16.1844L50.1642 16.184L49.8537 16.5759ZM49.5305 16.7497L49.0323 16.793L49.0324 16.7938L49.5305 16.7497ZM51.175 35.3073L50.6769 35.3514V35.3515L51.175 35.3073ZM51.4074 35.487L51.3259 34.9937L51.3259 34.9937L51.4074 35.487ZM57.1301 34.5417L57.2116 35.035L57.2116 35.035L57.1301 34.5417ZM57.2961 34.3171L57.7915 34.2494L57.7913 34.2484L57.2961 34.3171ZM56.8449 31.0612L56.3496 31.1298L56.3496 31.1298L56.8449 31.0612ZM56.8391 31.0319L57.3188 30.8912L57.3187 30.8907L56.8391 31.0319ZM55.1057 25.1432L54.6221 25.2704L54.6239 25.2774L54.626 25.2844L55.1057 25.1432ZM53.6623 19.654L54.1459 19.5268L54.1458 19.5268L53.6623 19.654ZM53.5939 19.5485L53.9059 19.1578L53.905 19.1571L53.5939 19.5485ZM19.8664 17.7604L19.8896 17.261H19.8896L19.8664 17.7604ZM14.4416 17.7936L14.4314 17.2937L13.6112 17.3105L14.0019 18.0318L14.4416 17.7936ZM15.6642 20.571L16.144 20.43L16.144 20.43L15.6642 20.571ZM15.756 26.8913L15.257 26.8605L15.188 27.9805L16.0669 27.2829L15.756 26.8913ZM21.383 21.2643L21.8829 21.2545V21.2545L21.383 21.2643ZM32.5607 26.7263L32.0856 26.5705L31.8358 27.3325L32.63 27.2214L32.5607 26.7263ZM36.7512 26.1403L36.8204 26.6355L37.4198 26.5517L37.2244 25.9789L36.7512 26.1403ZM34.7121 20.1628L35.1853 20.0014L34.7026 18.5864L34.237 20.007L34.7121 20.1628ZM61.9904 17.7331L62.0093 17.2334H62.0093L61.9904 17.7331ZM57.7219 17.7722L57.6951 17.2729L57.3108 17.2935L57.2324 17.6702L57.7219 17.7722ZM57.9572 18.7507L58.0029 18.2528L58.0025 18.2527L57.9572 18.7507ZM59.1447 19.1745L59.0948 19.672L59.095 19.672L59.1447 19.1745ZM60.0324 24.4694L59.5346 24.5164L59.6501 25.7398L60.4216 24.7833L60.0324 24.4694ZM63.7922 19.8083L64.1814 20.1222L64.2686 20.014L64.2875 19.8762L63.7922 19.8083ZM74.133 0.721375L74.0391 1.21248L82.2842 2.78865L82.3781 2.29755L82.472 1.80644L74.2269 0.230267L74.133 0.721375ZM82.3781 2.29755L82.2837 2.78855L82.7407 2.87644L82.8351 2.38544L82.9296 1.89443L82.4725 1.80654L82.3781 2.29755ZM82.8351 2.38544L82.3385 2.32757L82.2848 2.7885L82.7814 2.84637L83.2781 2.90425L83.3318 2.44331L82.8351 2.38544ZM82.7814 2.84637L82.2848 2.78846L80.0397 22.0394L80.5363 22.0974L81.033 22.1553L83.2781 2.90429L82.7814 2.84637ZM80.5363 22.0974L80.4965 22.5958L83.0121 22.7969L83.0519 22.2985L83.0918 21.8001L80.5762 21.5989L80.5363 22.0974ZM83.0519 22.2985L83.0117 22.7969L83.4717 22.834L83.5119 22.3356L83.5521 21.8373L83.0921 21.8001L83.0519 22.2985ZM83.5119 22.3356H83.0119V27.1774H83.5119H84.0119V22.3356H83.5119ZM83.5119 27.1774V26.6774H80.9074V27.1774V27.6774H83.5119V27.1774ZM80.9074 27.1774L80.4112 27.1158C80.0922 29.6849 79.663 33.448 79.3499 36.9087L79.8478 36.9538L80.3458 36.9989C80.6577 33.5524 81.0855 29.8009 81.4036 27.239L80.9074 27.1774ZM79.8478 36.9538L79.3499 36.9087C79.1842 38.74 79.0509 40.487 78.9832 41.9274L79.4826 41.9509L79.9821 41.9743C80.0488 40.5544 80.1807 38.8234 80.3458 36.9989L79.8478 36.9538ZM79.4826 41.9509L78.9832 41.9274C78.9155 43.3676 78.9134 44.5025 79.0104 45.1089L79.5041 45.03L79.9978 44.951C79.9197 44.4625 79.9137 43.4295 79.9821 41.9743L79.4826 41.9509ZM79.5041 45.03L79.0104 45.1091L79.0748 45.5114L79.5685 45.4323L80.0622 45.3532L79.9978 44.9509L79.5041 45.03ZM79.5685 45.4323L79.3922 44.9644L79.0113 45.108L79.1877 45.5759L79.364 46.0437L79.7449 45.9002L79.5685 45.4323ZM79.1877 45.5759L79.0103 45.1084L75.4937 46.4424L75.6711 46.9099L75.8484 47.3773L79.365 46.0434L79.1877 45.5759ZM75.6711 46.9099L75.494 46.4423L74.8211 46.6972L74.9982 47.1647L75.1754 47.6323L75.8482 47.3774L75.6711 46.9099ZM74.9982 47.1647L75.4982 47.1613L75.4933 46.4426L74.9933 46.446L74.4934 46.4494L74.4982 47.1681L74.9982 47.1647ZM74.9933 46.446L75.4933 46.4426L75.3752 29.1144L74.8752 29.1179L74.3752 29.1213L74.4934 46.4494L74.9933 46.446ZM74.8752 29.1179V28.6179H72.9807V29.1179V29.6179H74.8752V29.1179ZM72.9807 29.1179L72.481 29.1355L72.9478 42.3201L73.4474 42.3024L73.9471 42.2847L73.4803 29.1002L72.9807 29.1179ZM73.4474 42.3024L72.9477 42.3196L72.9692 42.9456L73.4689 42.9284L73.9686 42.9113L73.9472 42.2853L73.4474 42.3024ZM73.4689 42.9284L73.5625 42.4372L72.9473 42.32L72.8537 42.8112L72.7601 43.3024L73.3754 43.4196L73.4689 42.9284ZM72.8537 42.8112L72.9473 42.3201L67.8545 41.3494L67.7609 41.8405L67.6673 42.3317L72.7601 43.3024L72.8537 42.8112ZM67.7609 41.8405L67.854 41.3493L67.4624 41.275L67.3693 41.7663L67.2762 42.2576L67.6678 42.3318L67.7609 41.8405ZM67.3693 41.7663L67.869 41.7479L67.8543 41.3495L67.3547 41.3679L66.855 41.3862L66.8697 41.7847L67.3693 41.7663ZM67.3547 41.3679L67.8543 41.3495L67.369 28.1327L66.8693 28.1511L66.3697 28.1694L66.855 41.3862L67.3547 41.3679ZM66.8693 28.1511H67.3693V28.1472H66.8693H66.3693V28.1511H66.8693ZM66.8693 28.1472L67.3691 28.132L67.2753 25.0392L66.7756 25.0544L66.2758 25.0695L66.3696 28.1623L66.8693 28.1472ZM66.7756 25.0544L66.4129 24.7102L61.4569 29.9319L61.8195 30.2761L62.1822 30.6203L67.1382 25.3986L66.7756 25.0544ZM61.8195 30.2761L61.3224 30.3294L62.8624 44.6732L63.3596 44.6198L63.8567 44.5664L62.3167 30.2227L61.8195 30.2761ZM63.3596 44.6198L62.8624 44.6734L62.9201 45.2076L63.4172 45.154L63.9143 45.1004L63.8567 44.5662L63.3596 44.6198ZM63.4172 45.154L63.3999 44.6543L62.8628 44.6728L62.8801 45.1725L62.8973 45.6722L63.4344 45.6537L63.4172 45.154ZM62.8801 45.1725L62.8622 44.6729L60.2743 44.7656L60.2922 45.2653L60.3101 45.765L62.898 45.6722L62.8801 45.1725ZM60.2922 45.2653L60.2754 44.7656L60.0713 44.7724L60.0881 45.2722L60.1048 45.7719L60.3089 45.765L60.2922 45.2653ZM60.0881 45.2722L60.4244 44.9022L60.274 44.7655L59.9377 45.1354L59.6013 45.5054L59.7517 45.6421L60.0881 45.2722ZM59.9377 45.1354L60.274 44.7655C59.673 44.2191 58.4416 42.782 57.9266 41.0967L57.4484 41.2429L56.9703 41.389C57.5551 43.3026 58.9189 44.885 59.6013 45.5054L59.9377 45.1354ZM57.4484 41.2429L57.2208 40.7977L48.1984 45.41L48.426 45.8552L48.6536 46.3004L57.676 41.6881L57.4484 41.2429ZM48.426 45.8552L48.1982 45.4101L47.6162 45.7079L47.8439 46.153L48.0717 46.5981L48.6537 46.3003L48.426 45.8552ZM47.8439 46.153L48.3332 46.0499L48.1984 45.4103L47.7092 45.5134L47.2199 45.6164L47.3547 46.2561L47.8439 46.153ZM47.7092 45.5134L48.1984 45.4104L45.3293 31.7776L44.84 31.8806L44.3507 31.9835L47.2199 45.6163L47.7092 45.5134ZM44.84 31.8806L44.8151 31.3812L43.9352 31.4251L43.9601 31.9245L43.9851 32.4239L44.865 32.3799L44.84 31.8806ZM43.9601 31.9245L43.4694 32.0205L45.8542 44.2109L46.3449 44.1149L46.8356 44.0189L44.4508 31.8285L43.9601 31.9245ZM46.3449 44.1149L45.8544 44.2118L45.9286 44.5877L46.4191 44.4909L46.9097 44.3941L46.8354 44.0181L46.3449 44.1149ZM46.4191 44.4909L46.1991 44.0419L45.8544 44.2109L46.0744 44.6599L46.2944 45.1088L46.6392 44.9399L46.4191 44.4909ZM46.0744 44.6599L45.8542 44.211L40.9557 46.6143L41.176 47.0632L41.3962 47.5121L46.2946 45.1087L46.0744 44.6599ZM41.176 47.0632L40.9558 46.6143L40.3923 46.8906L40.6125 47.3395L40.8327 47.7885L41.3961 47.5121L41.176 47.0632ZM40.6125 47.3395L41.0992 47.2251L40.9557 46.6147L40.4689 46.7292L39.9822 46.8437L40.1258 47.454L40.6125 47.3395ZM40.4689 46.7292L40.9556 46.6145L37.6441 32.5637L37.1574 32.6784L36.6707 32.7931L39.9823 46.8439L40.4689 46.7292ZM37.1574 32.6784L37.0672 32.1866L32.3094 33.0597L32.3996 33.5515L32.4898 34.0432L37.2477 33.1702L37.1574 32.6784ZM32.3996 33.5515L31.913 33.4363L29.4941 43.656L29.9807 43.7712L30.4672 43.8863L32.8862 33.6666L32.3996 33.5515ZM29.9807 43.7712L29.4942 43.6554L29.3585 44.2257L29.8449 44.3415L30.3313 44.4573L30.4671 43.887L29.9807 43.7712ZM29.8449 44.3415L30.0349 43.879L29.4929 43.6563L29.3029 44.1188L29.1129 44.5813L29.6549 44.804L29.8449 44.3415ZM29.3029 44.1188L29.4969 43.658L29.4784 43.6502L29.2844 44.111L29.0903 44.5718L29.1089 44.5797L29.3029 44.1188ZM29.2844 44.111L28.872 44.3937L30.1405 46.2443L30.5529 45.9616L30.9653 45.6789L29.6968 43.8283L29.2844 44.111ZM30.5529 45.9616L30.1409 46.2449L30.4202 46.6511L30.8322 46.3679L31.2442 46.0846L30.9649 45.6783L30.5529 45.9616ZM30.8322 46.3679L30.5431 45.9599L30.1408 46.2451L30.4299 46.653L30.719 47.061L31.1213 46.7758L30.8322 46.3679ZM30.4299 46.653L30.1413 46.2447L24.78 50.0338L25.0685 50.4421L25.3571 50.8504L30.7184 47.0613L30.4299 46.653ZM25.0685 50.4421L24.7796 50.034L24.3948 50.3065L24.6838 50.7145L24.9727 51.1226L25.3575 50.8501L25.0685 50.4421ZM24.6838 50.7145L25.074 50.4019L24.7791 50.0338L24.3889 50.3464L23.9986 50.659L24.2935 51.0271L24.6838 50.7145ZM24.3889 50.3464L24.7793 50.034L14.5049 37.1903L14.1144 37.5026L13.724 37.815L23.9984 50.6587L24.3889 50.3464ZM14.1144 37.5026L13.6152 37.4751L12.5781 56.3199L13.0773 56.3474L13.5766 56.3748L14.6137 37.5301L14.1144 37.5026ZM13.0773 56.3474L12.5781 56.3205L12.5517 56.8118L13.051 56.8386L13.5502 56.8654L13.5766 56.3742L13.0773 56.3474ZM13.051 56.8386L13.0708 56.339L12.5786 56.3194L12.5588 56.819L12.539 57.3186L13.0311 57.3382L13.051 56.8386ZM12.5588 56.819L12.5779 56.3194L10.1745 56.2276L10.1555 56.7272L10.1364 57.2269L12.5397 57.3187L12.5588 56.819ZM10.1555 56.7272L10.1761 56.2277L10.0111 56.2208L9.99042 56.7204L9.96973 57.22L10.1348 57.2268L10.1555 56.7272ZM9.99042 56.7204L10.3035 56.3305L10.1746 56.227L9.86151 56.6169L9.54844 57.0067L9.67735 57.1103L9.99042 56.7204ZM9.86151 56.6169L10.1754 56.2277L7.22028 53.8448L6.90643 54.2341L6.59258 54.6233L9.54766 57.0061L9.86151 56.6169ZM6.90643 54.2341L7.22092 53.8454L7.02658 53.6881L6.7121 54.0768L6.39761 54.4656L6.59195 54.6228L6.90643 54.2341ZM6.7121 54.0768L7.21179 54.0945L7.22058 53.8455L6.72089 53.8278L6.2212 53.8102L6.21241 54.0592L6.7121 54.0768ZM6.72089 53.8278L7.22061 53.8445L7.72745 38.6316L7.22772 38.6149L6.728 38.5983L6.22116 53.8112L6.72089 53.8278ZM7.22772 38.6149L7.63116 38.3196L4.72979 34.3567L4.32635 34.652L3.92292 34.9474L6.82429 38.9103L7.22772 38.6149ZM4.32635 34.652L4.72956 34.3564L4.43952 33.9608L4.03632 34.2565L3.63311 34.5522L3.92315 34.9477L4.32635 34.652ZM4.03632 34.2565L4.33886 34.6546L4.72948 34.3577L4.42694 33.9597L4.1244 33.5616L3.73377 33.8584L4.03632 34.2565ZM4.42694 33.9597L4.73003 34.3573L9.14409 30.9931L8.841 30.5954L8.53792 30.1977L4.12385 33.562L4.42694 33.9597ZM8.841 30.5954L9.34096 30.5888L9.20717 20.4462L8.70721 20.4528L8.20726 20.4594L8.34105 30.602L8.841 30.5954ZM8.70721 20.4528L8.56021 19.9749L4.43619 21.2435L4.58319 21.7214L4.73019 22.1993L8.85422 20.9307L8.70721 20.4528ZM4.58319 21.7214L4.43662 21.2433L4.02256 21.3703L4.16913 21.8483L4.3157 22.3264L4.72976 22.1994L4.58319 21.7214ZM4.16913 21.8483L4.62141 21.6352L4.43684 21.2436L3.98456 21.4567L3.53228 21.6699L3.71685 22.0615L4.16913 21.8483ZM3.98456 21.4567L4.43674 21.2433L1.35959 14.7228L0.90741 14.9362L0.455232 15.1496L3.53238 21.6701L3.98456 21.4567ZM0.90741 14.9362L1.3593 14.7222L1.13176 14.2417L0.679871 14.4557L0.227983 14.6698L0.455522 15.1502L0.90741 14.9362ZM0.679871 14.4557L0.864934 14.9202L1.36005 14.723L1.17499 14.2585L0.989924 13.794L0.494807 13.9913L0.679871 14.4557ZM1.17499 14.2585L1.35987 14.723L11.2515 10.7865L11.0666 10.322L10.8817 9.8574L0.990107 13.7939L1.17499 14.2585ZM11.0666 10.322L11.2497 10.7872L11.3092 10.7638L11.1262 10.2985L10.9431 9.83324L10.8835 9.85668L11.0666 10.322ZM11.1262 10.2985L11.1882 10.7947L11.2507 10.7868L11.1887 10.2907L11.1266 9.79457L11.0641 9.80238L11.1262 10.2985ZM11.1887 10.2907L11.2515 10.7867C13.2147 10.5381 16.3346 10.3018 19.3114 10.4027L19.3283 9.90302L19.3452 9.4033C16.3034 9.30021 13.1288 9.54096 11.1258 9.79467L11.1887 10.2907ZM19.3283 9.90302L19.3114 10.4027C20.7994 10.4532 22.2523 10.5885 23.5074 10.8478L23.6086 10.3581L23.7097 9.86843C22.3797 9.59372 20.8658 9.45486 19.3453 9.4033L19.3283 9.90302ZM23.6086 10.3581L23.5074 10.8478C24.7624 11.107 25.8197 11.491 26.5171 12.04L26.8264 11.6472L27.1356 11.2543C26.2557 10.5616 25.0166 10.1384 23.7097 9.86843L23.6086 10.3581ZM26.8264 11.6472L26.5171 12.04C27.9114 13.1377 28.2149 15.035 28.027 16.9619L28.5246 17.0104L29.0222 17.059C29.2192 15.0388 28.9467 12.68 27.1356 11.2543L26.8264 11.6472ZM28.5246 17.0104L28.027 16.9619C27.839 18.888 27.1602 20.843 26.5915 22.0548L27.0441 22.2673L27.4968 22.4797C28.0996 21.1952 28.8204 19.1281 29.0222 17.059L28.5246 17.0104ZM27.0441 22.2673L26.5907 22.0565L26.5585 22.1259L27.0119 22.3366L27.4653 22.5474L27.4975 22.478L27.0441 22.2673ZM27.0119 22.3366L26.6428 21.9993L26.591 22.056L26.9601 22.3932L27.3292 22.7305L27.381 22.6739L27.0119 22.3366ZM26.9601 22.3932L26.5913 22.0557L18.854 30.5088L19.2228 30.8464L19.5917 31.184L27.329 22.7308L26.9601 22.3932ZM19.2228 30.8464L18.8176 31.1393L23.4143 37.4987L23.8195 37.2057L24.2247 36.9128L19.6281 30.5535L19.2228 30.8464ZM23.8195 37.2057L24.2959 37.3575L25.5664 33.3702L25.09 33.2184L24.6136 33.0666L23.3431 37.054L23.8195 37.2057ZM25.09 33.2184L25.5421 33.0048L23.6983 29.1034L23.2463 29.3171L22.7942 29.5307L24.638 33.4321L25.09 33.2184ZM23.2463 29.3171L23.6983 29.1034L23.4454 28.5683L22.9933 28.7819L22.5413 28.9956L22.7942 29.5307L23.2463 29.3171ZM22.9933 28.7819L23.1285 29.2633L23.6988 29.1031L23.5637 28.6218L23.4285 28.1404L22.8582 28.3005L22.9933 28.7819ZM23.5637 28.6218L23.6987 29.1032L27.0971 28.1501L26.9621 27.6686L26.8271 27.1872L23.4286 28.1403L23.5637 28.6218ZM26.9621 27.6686L27.4561 27.7456L31.3419 2.80714L30.8478 2.73016L30.3538 2.65319L26.4681 27.5917L26.9621 27.6686ZM30.8478 2.73016L31.3419 2.8071L31.4044 2.40573L30.9103 2.3288L30.4163 2.25186L30.3538 2.65323L30.8478 2.73016ZM30.9103 2.3288L30.9356 2.82816L31.3409 2.80765L31.3156 2.30829L31.2903 1.80893L30.8851 1.82944L30.9103 2.3288ZM31.3156 2.30829L31.3419 2.8076L38.9825 2.40525L38.9562 1.90594L38.9299 1.40664L31.2893 1.80898L31.3156 2.30829ZM38.9562 1.90594L38.9833 2.40521L39.4344 2.3808L39.4074 1.88153L39.3804 1.38226L38.9292 1.40668L38.9562 1.90594ZM39.4074 1.88153L38.9133 1.95813L38.9826 2.40539L39.4767 2.3288L39.9708 2.2522L39.9015 1.80493L39.4074 1.88153ZM39.4767 2.3288L38.9826 2.40526L42.4016 24.5L42.8957 24.4235L43.3898 24.3471L39.9709 2.25234L39.4767 2.3288ZM42.8957 24.4235L42.8982 24.9235L43.6804 24.9196L43.6779 24.4196L43.6754 23.9196L42.8932 23.9235L42.8957 24.4235ZM43.6779 24.4196L44.1727 24.3479L41.2235 4.00121L40.7287 4.07294L40.2339 4.14466L43.1831 24.4913L43.6779 24.4196ZM40.7287 4.07294L41.2236 4.00168L41.1338 3.37766L40.6389 3.44891L40.144 3.52017L40.2338 4.14419L40.7287 4.07294ZM40.6389 3.44891L40.5955 3.94703L41.2234 4.00172L41.2668 3.5036L41.3102 3.00549L40.6822 2.9508L40.6389 3.44891ZM41.2668 3.5036L41.2235 4.00173L48.2099 4.60817L48.2531 4.11005L48.2964 3.61192L41.31 3.00547L41.2668 3.5036ZM48.2531 4.11005L48.2106 4.60824L48.6345 4.64437L48.6769 4.14618L48.7194 3.64799L48.2956 3.61185L48.2531 4.11005ZM48.6769 4.14618L48.1784 4.184L48.2106 4.60881L48.7092 4.57098L49.2077 4.53316L49.1755 4.10836L48.6769 4.14618ZM48.7092 4.57098L48.2106 4.60819L48.7662 12.0555L49.2648 12.0182L49.7634 11.981L49.2078 4.53378L48.7092 4.57098ZM49.2648 12.0182L49.4391 12.4869C50.9936 11.9087 53.3563 11.2588 56.05 10.9406L55.9914 10.444L55.9327 9.94748C53.1558 10.2755 50.7155 10.9452 49.0905 11.5496L49.2648 12.0182ZM55.9914 10.444L56.05 10.9406C58.8927 10.6048 62.1091 10.6397 65.1392 11.5189L65.2785 11.0388L65.4178 10.5586C62.2201 9.63064 58.8606 9.60168 55.9327 9.94748L55.9914 10.444ZM65.2785 11.0388L65.7709 10.9519L64.8227 5.57785L64.3303 5.66473L63.8379 5.75162L64.7861 11.1256L65.2785 11.0388ZM64.3303 5.66473L64.8227 5.57822L64.6958 4.85556L64.2033 4.94208L63.7108 5.02859L63.8378 5.75125L64.3303 5.66473ZM64.2033 4.94208L64.1041 5.43214L64.8228 5.57764L64.9221 5.08759L65.0213 4.59753L64.3025 4.45202L64.2033 4.94208ZM64.9221 5.08759L64.8225 5.57757L72.5832 7.15472L72.6828 6.66473L72.7824 6.17475L65.0216 4.5976L64.9221 5.08759ZM72.6828 6.66473L72.5839 7.15485L72.9999 7.23883L73.0988 6.74872L73.1978 6.25861L72.7817 6.17462L72.6828 6.66473ZM73.0988 6.74872L72.5992 6.7303L72.5835 7.15413L73.0832 7.17255L73.5829 7.19097L73.5985 6.76714L73.0988 6.74872ZM73.0832 7.17255L72.5835 7.15467L71.9956 23.5863L72.4953 23.6042L72.995 23.6221L73.5829 7.19042L73.0832 7.17255ZM72.4953 23.6042L72.5204 24.1036L73.9198 24.0332L73.8947 23.5339L73.8696 23.0345L72.4702 23.1048L72.4953 23.6042ZM73.8947 23.5339L74.3947 23.5259L74.0382 1.21241L73.5383 1.2204L73.0383 1.22838L73.3948 23.5419L73.8947 23.5339ZM73.5383 1.2204L74.0382 1.21245L74.0284 0.598192L73.5285 0.60614L73.0286 0.614088L73.0383 1.22835L73.5383 1.2204ZM73.5285 0.60614L73.4349 1.0973L74.0394 1.21253L74.133 0.721375L74.2266 0.230219L73.6221 0.114985L73.5285 0.60614ZM49.8537 16.5759L50.1642 16.184C49.6835 15.803 48.9791 16.1807 49.0323 16.793L49.5305 16.7497L50.0286 16.7064C50.0514 16.9692 49.749 17.1308 49.5432 16.9678L49.8537 16.5759ZM49.5305 16.7497L49.0324 16.7938L50.6769 35.3514L51.175 35.3073L51.673 35.2632L50.0285 16.7056L49.5305 16.7497ZM51.175 35.3073L50.6769 35.3515C50.7131 35.7588 51.0886 36.0465 51.4889 35.9803L51.4074 35.487L51.3259 34.9937C51.4966 34.9655 51.6575 35.0877 51.673 35.2632L51.175 35.3073ZM51.4074 35.487L51.4889 35.9803L57.2116 35.035L57.1301 34.5417L57.0486 34.0484L51.3259 34.9937L51.4074 35.487ZM57.1301 34.5417L57.2116 35.035C57.5844 34.9734 57.8429 34.6259 57.7915 34.2494L57.2961 34.3171L56.8007 34.3848C56.7785 34.2228 56.8894 34.0747 57.0486 34.0484L57.1301 34.5417ZM57.2961 34.3171L57.7913 34.2484L57.3402 30.9926L56.8449 31.0612L56.3496 31.1298L56.8008 34.3857L57.2961 34.3171ZM56.8449 31.0612L57.3402 30.9926C57.3377 30.9744 57.3319 30.9358 57.3188 30.8912L56.8391 31.0319L56.3593 31.1727C56.3552 31.1587 56.3528 31.1477 56.3516 31.1411C56.3503 31.1345 56.3497 31.1302 56.3496 31.1298L56.8449 31.0612ZM56.8391 31.0319L57.3187 30.8907L55.5853 25.0021L55.1057 25.1432L54.626 25.2844L56.3594 31.1731L56.8391 31.0319ZM55.1057 25.1432L55.5892 25.0161L54.1459 19.5268L53.6623 19.654L53.1787 19.7811L54.6221 25.2704L55.1057 25.1432ZM53.6623 19.654L54.1458 19.5268C54.1081 19.3832 54.0252 19.253 53.9059 19.1578L53.5939 19.5485L53.2819 19.9392C53.2299 19.8977 53.1946 19.8416 53.1787 19.7812L53.6623 19.654ZM53.5939 19.5485L53.905 19.1571L50.1648 16.1844L49.8537 16.5759L49.5426 16.9673L53.2828 19.94L53.5939 19.5485ZM19.8664 17.7604L19.8896 17.261C19.2918 17.2332 17.9184 17.2419 16.713 17.2569C16.1063 17.2644 15.536 17.2736 15.1174 17.281C14.9081 17.2846 14.7367 17.2878 14.6176 17.2901C14.558 17.2912 14.5115 17.2921 14.4799 17.2928C14.4641 17.2931 14.452 17.2933 14.4438 17.2935C14.4397 17.2936 14.4366 17.2936 14.4346 17.2937C14.4335 17.2937 14.4327 17.2937 14.4322 17.2937C14.4319 17.2937 14.4317 17.2937 14.4316 17.2937C14.4315 17.2937 14.4315 17.2937 14.4314 17.2937C14.4314 17.2937 14.4314 17.2937 14.4416 17.7936C14.4518 18.2935 14.4518 18.2935 14.4518 18.2935C14.4519 18.2935 14.4519 18.2935 14.452 18.2935C14.4521 18.2935 14.4523 18.2935 14.4525 18.2935C14.453 18.2935 14.4538 18.2935 14.4548 18.2935C14.4569 18.2934 14.4599 18.2934 14.4639 18.2933C14.472 18.2931 14.484 18.2929 14.4997 18.2926C14.5311 18.292 14.5774 18.291 14.6367 18.2899C14.7554 18.2876 14.9262 18.2845 15.1349 18.2808C15.5524 18.2735 16.1209 18.2643 16.7254 18.2568C17.9426 18.2417 19.2816 18.2338 19.8432 18.2599L19.8664 17.7604ZM14.4416 17.7936C14.0019 18.0318 14.0019 18.0318 14.0019 18.0317C14.0019 18.0318 14.0019 18.0317 14.0019 18.0317C14.0019 18.0318 14.002 18.0318 14.002 18.0319C14.002 18.032 14.0022 18.0322 14.0023 18.0325C14.0027 18.0332 14.0032 18.0342 14.004 18.0356C14.0055 18.0384 14.0079 18.0428 14.011 18.0486C14.0172 18.0602 14.0265 18.0777 14.0386 18.1005C14.0628 18.1461 14.098 18.213 14.1413 18.297C14.2281 18.4651 14.3472 18.701 14.4765 18.9715C14.7383 19.5194 15.0293 20.1838 15.1845 20.7119L15.6642 20.571L16.144 20.43C15.9651 19.8212 15.6447 19.0969 15.3788 18.5404C15.2441 18.2586 15.1203 18.0134 15.03 17.8384C14.9848 17.7509 14.9479 17.6807 14.9222 17.6322C14.9093 17.6079 14.8993 17.5891 14.8923 17.5761C14.8888 17.5696 14.8862 17.5646 14.8843 17.5612C14.8834 17.5594 14.8826 17.5581 14.8821 17.5571C14.8819 17.5567 14.8817 17.5563 14.8815 17.556C14.8814 17.5559 14.8814 17.5558 14.8813 17.5557C14.8813 17.5556 14.8813 17.5556 14.8813 17.5556C14.8813 17.5555 14.8812 17.5555 14.4416 17.7936ZM15.6642 20.571L15.1845 20.7119C15.8476 22.9685 15.409 24.3939 15.257 26.8605L15.756 26.8913L16.2551 26.922C16.3951 24.6492 16.8727 22.9102 16.144 20.43L15.6642 20.571ZM15.756 26.8913L16.0669 27.2829C16.0906 27.2641 17.5124 26.1352 18.928 24.8651C19.6344 24.2313 20.3496 23.5532 20.8901 22.9556C21.1595 22.6578 21.3961 22.3683 21.5677 22.1063C21.6536 21.9751 21.7298 21.8409 21.7853 21.7081C21.8388 21.58 21.8862 21.4228 21.8829 21.2545L21.383 21.2643L20.8831 21.2741C20.8826 21.2486 20.8888 21.2599 20.8627 21.3224C20.8385 21.3802 20.7964 21.4587 20.7311 21.5585C20.6002 21.7585 20.4022 22.0043 20.1485 22.2848C19.6428 22.8439 18.9578 23.4948 18.2601 24.1208C16.8674 25.3704 15.4645 26.4843 15.4452 26.4996L15.756 26.8913ZM21.383 21.2643L21.8829 21.2545C21.8711 20.6522 21.7782 19.7381 21.5273 18.9511C21.4023 18.559 21.2277 18.1649 20.9784 17.8557C20.7236 17.5397 20.3637 17.283 19.8896 17.261L19.8664 17.7604L19.8432 18.2599C19.9486 18.2648 20.0653 18.3164 20.2 18.4834C20.3402 18.6573 20.4681 18.9209 20.5745 19.2548C20.7866 19.9199 20.8724 20.7308 20.8831 21.2742L21.383 21.2643ZM32.5607 26.7263L32.63 27.2214L36.8204 26.6355L36.7512 26.1403L36.6819 25.6451L32.4915 26.2311L32.5607 26.7263ZM36.7512 26.1403L37.2244 25.9789L35.1853 20.0014L34.7121 20.1628L34.2389 20.3242L36.2779 26.3017L36.7512 26.1403ZM34.7121 20.1628L34.237 20.007L32.0856 26.5705L32.5607 26.7263L33.0359 26.882L35.1872 20.3185L34.7121 20.1628ZM61.9904 17.7331L62.0093 17.2334C60.3284 17.17 58.4351 17.2332 57.6951 17.2729L57.7219 17.7722L57.7486 18.2714C58.4708 18.2328 60.3315 18.1709 61.9716 18.2327L61.9904 17.7331ZM57.7219 17.7722L57.2324 17.6702C57.1936 17.8563 57.1567 18.1514 57.1893 18.4261C57.2054 18.5614 57.2432 18.737 57.3429 18.8952C57.4549 19.0729 57.6457 19.2244 57.9119 19.2486L57.9572 18.7507L58.0025 18.2527C58.0389 18.256 58.0817 18.2692 58.1214 18.2955C58.1591 18.3204 58.1799 18.3477 58.1889 18.362C58.202 18.3828 58.1902 18.3745 58.1824 18.3083C58.1671 18.1799 58.1848 18.0014 58.2114 17.8741L57.7219 17.7722ZM57.9572 18.7507L57.9116 19.2486C57.9748 19.2544 58.0813 19.2988 58.3193 19.4115C58.5044 19.4993 58.7966 19.6421 59.0948 19.672L59.1447 19.1745L59.1947 18.677C59.1014 18.6676 58.9721 18.6143 58.7475 18.5079C58.5757 18.4264 58.2841 18.2785 58.0029 18.2528L57.9572 18.7507ZM59.1447 19.1745L59.095 19.672C58.9675 19.6593 58.8846 19.5982 58.8487 19.5661C58.8125 19.5338 58.7958 19.5063 58.794 19.5035C58.7906 19.4979 58.8018 19.5162 58.8228 19.5768C58.8629 19.6925 58.9092 19.8752 58.9587 20.1182C59.0567 20.5986 59.1536 21.2451 59.2397 21.9017C59.3254 22.5557 59.3992 23.2096 59.4516 23.7006C59.4778 23.946 59.4986 24.1503 59.5128 24.2931C59.5199 24.3645 59.5254 24.4205 59.5291 24.4586C59.5309 24.4776 59.5323 24.4922 59.5332 24.5019C59.5337 24.5068 59.5341 24.5105 59.5343 24.5129C59.5344 24.5141 59.5345 24.515 59.5345 24.5156C59.5346 24.5159 59.5346 24.5161 59.5346 24.5162C59.5346 24.5163 59.5346 24.5163 59.5346 24.5164C59.5346 24.5164 59.5346 24.5164 60.0324 24.4694C60.5302 24.4224 60.5302 24.4224 60.5302 24.4223C60.5302 24.4223 60.5302 24.4222 60.5302 24.4221C60.5302 24.4219 60.5301 24.4217 60.5301 24.4213C60.53 24.4207 60.5299 24.4197 60.5298 24.4183C60.5296 24.4157 60.5292 24.4118 60.5287 24.4068C60.5277 24.3966 60.5263 24.3817 60.5244 24.3622C60.5206 24.3233 60.5151 24.2663 60.5079 24.1939C60.4934 24.0492 60.4724 23.8426 60.446 23.5946C60.3931 23.099 60.3184 22.4365 60.2312 21.7716C60.1443 21.1094 60.0438 20.4345 59.9386 19.9185C59.8865 19.6633 59.8298 19.4289 59.7678 19.2497C59.7377 19.1629 59.6982 19.0642 59.6444 18.9774C59.6175 18.9339 59.5758 18.8747 59.5147 18.8202C59.454 18.7659 59.3464 18.6922 59.1945 18.677L59.1447 19.1745ZM60.0324 24.4694L60.4216 24.7833L64.1814 20.1222L63.7922 19.8083L63.403 19.4944L59.6432 24.1555L60.0324 24.4694ZM63.7922 19.8083L64.2875 19.8762C64.3442 19.4633 64.3048 18.8386 63.978 18.289C63.631 17.7053 62.9969 17.2707 62.0093 17.2334L61.9904 17.7331L61.9716 18.2327C62.6444 18.2581 62.9568 18.5282 63.1184 18.8C63.3002 19.1058 63.3315 19.4874 63.2968 19.7403L63.7922 19.8083Z" fill="black"/>
<path fill-rule="evenodd" clip-rule="evenodd" d="M96.3648 14.3631C96.3917 14.3623 96.4171 14.3663 96.442 14.3765C96.7207 14.4902 98.5133 15.2576 98.9045 16.3345C99.2128 17.1832 98.7845 18.5924 98.7162 18.806C98.7102 18.825 98.7014 18.8417 98.6898 18.8579L95.4859 23.3238C95.464 23.3544 95.4511 23.3906 95.4488 23.4281L95.3234 25.4614C95.3215 25.4917 95.3253 25.5189 95.337 25.5469C95.5343 26.0177 97.4507 30.5132 98.0823 28.9927C98.2878 28.4978 98.224 27.6876 98.1965 27.4269C98.1908 27.373 98.1621 27.3252 98.1185 27.2931L96.9695 26.4478C96.9193 26.4108 96.8892 26.3527 96.888 26.2904L96.8577 24.6656C96.8556 24.5543 96.9456 24.4623 97.0569 24.4615L103.603 24.4107C103.713 24.4099 103.803 24.4994 103.804 24.6099L103.819 27.0188C103.82 27.1215 103.743 27.2081 103.641 27.219L101.413 27.4573C101.343 27.4647 101.283 27.5078 101.253 27.571L100.31 29.5732C100.298 29.5987 100.292 29.6264 100.291 29.6546L100.258 31.4547C100.257 31.5078 100.277 31.5591 100.314 31.5973L104.135 35.5552C104.21 35.6333 104.21 35.7582 104.134 35.8355L100.66 39.3523C100.62 39.3932 100.564 39.4147 100.507 39.4115L99.4757 39.3537C99.4238 39.3508 99.3751 39.3278 99.3398 39.2896L97.3194 37.0979C97.2489 37.0214 97.1314 37.0117 97.0493 37.0758L92.5489 40.589C92.513 40.6171 92.4685 40.632 92.4229 40.6313L88.0539 40.5669C88.0114 40.5663 87.9702 40.5522 87.9363 40.5266L84.4057 37.8627C84.3837 37.846 84.3655 37.8253 84.3522 37.8011C84.2659 37.6441 83.9257 37.0123 83.7805 36.5552C83.3734 35.2731 83.8056 33.1758 83.8711 32.8756C83.8765 32.8507 83.8866 32.8287 83.9011 32.8078L88.2088 26.6036C88.2546 26.5376 88.2573 26.4517 88.2154 26.3831C87.9417 25.9347 86.9332 24.2266 86.6409 22.9429C86.2788 21.3533 86.1182 20.3124 86.6409 18.7681C87.3819 16.5787 90.8402 14.7499 91.2391 14.545C91.2647 14.5318 91.2915 14.5254 91.3203 14.5245L96.3648 14.3631ZM91.2825 29.9761C91.2573 29.8433 91.1116 29.7747 90.9963 29.8452C90.4922 30.1539 89.3362 30.9444 89.1135 31.8257C88.9272 32.563 88.8994 33.1146 89.2932 33.7652C89.5843 34.2461 89.8391 34.618 90.3967 34.69C91.1713 34.7897 91.7368 33.3534 91.8412 33.0679C91.8531 33.0356 91.8553 33.0013 91.8489 32.9675L91.2825 29.9761ZM92.5246 18.1577C91.7501 18.058 91.1845 19.4943 91.0801 19.7798C91.0683 19.8121 91.0661 19.8464 91.0725 19.8802L91.6389 22.8716C91.664 23.0044 91.8097 23.0731 91.925 23.0025C92.4291 22.6938 93.5851 21.9033 93.8078 21.022C93.9942 20.2847 94.022 19.7331 93.6282 19.0826C93.337 18.6017 93.0822 18.2297 92.5246 18.1577Z" fill="#F7C500"/>
<path fill-rule="evenodd" clip-rule="evenodd" d="M98.9045 16.3345L99.3745 16.1638L99.3745 16.1638L98.9045 16.3345ZM98.0823 28.9927L98.544 29.1845L98.544 29.1845L98.0823 28.9927ZM96.8577 24.6656L96.3577 24.6749V24.6749L96.8577 24.6656ZM97.0569 24.4615L97.053 23.9615H97.053L97.0569 24.4615ZM103.603 24.4107L103.599 23.9107L103.599 23.9107L103.603 24.4107ZM103.804 24.6099L104.304 24.6067V24.6067L103.804 24.6099ZM104.135 35.5552L104.495 35.2079L104.495 35.2079L104.135 35.5552ZM104.134 35.8355L104.49 36.1868L104.49 36.1868L104.134 35.8355ZM83.7805 36.5552L83.304 36.7065L83.304 36.7066L83.7805 36.5552ZM86.6409 22.9429L86.1533 23.0539L86.1533 23.0539L86.6409 22.9429ZM86.6409 18.7681L86.1672 18.6078L86.1672 18.6078L86.6409 18.7681ZM91.2825 29.9761L90.7912 30.0691L90.7912 30.0691L91.2825 29.9761ZM90.9963 29.8452L90.7352 29.4188L90.7352 29.4188L90.9963 29.8452ZM89.1135 31.8257L88.6287 31.7032L88.6287 31.7032L89.1135 31.8257ZM89.2932 33.7652L88.8655 34.0241L88.8655 34.0241L89.2932 33.7652ZM90.3967 34.69L90.3327 35.1859L90.3328 35.1859L90.3967 34.69ZM92.5246 18.1577L92.5886 17.6619L92.5885 17.6618L92.5246 18.1577ZM91.6389 22.8716L92.1302 22.7787L92.1302 22.7786L91.6389 22.8716ZM91.925 23.0025L92.1861 23.4289L92.1861 23.4289L91.925 23.0025ZM93.8078 21.022L94.2926 21.1445L94.2926 21.1445L93.8078 21.022ZM93.6282 19.0826L94.0559 18.8236L94.0559 18.8236L93.6282 19.0826ZM88.0539 40.5669L88.0612 40.067L88.0539 40.5669ZM87.9363 40.5266L87.6352 40.9257L87.9363 40.5266ZM92.4229 40.6313L92.4156 41.1313L92.4229 40.6313ZM97.3194 37.0979L97.6871 36.759L97.3194 37.0979ZM97.0493 37.0758L96.7417 36.6817L97.0493 37.0758ZM99.4757 39.3537L99.5037 38.8545L99.4757 39.3537ZM99.3398 39.2896L98.9722 39.6285L99.3398 39.2896ZM91.8489 32.9675L92.3401 32.8745L91.8489 32.9675ZM103.819 27.0188L103.319 27.022L103.819 27.0188ZM103.641 27.219L103.587 26.7218L103.641 27.219ZM100.66 39.3523L100.305 39.001V39.001L100.66 39.3523ZM100.507 39.4115L100.535 38.9123L100.507 39.4115ZM96.9695 26.4478L97.2658 26.045L96.9695 26.4478ZM96.888 26.2904L96.3881 26.2997L96.888 26.2904ZM91.2391 14.545L91.4675 14.9897L91.2391 14.545ZM91.3203 14.5245L91.3043 14.0248L91.3203 14.5245ZM98.1965 27.4269L98.6937 27.3744L98.1965 27.4269ZM98.1185 27.2931L98.4148 26.8903L98.1185 27.2931ZM100.258 31.4547L99.7577 31.4453L100.258 31.4547ZM100.314 31.5973L100.673 31.25L100.314 31.5973ZM95.3234 25.4614L95.8224 25.4922L95.3234 25.4614ZM95.337 25.5469L94.8758 25.7401L95.337 25.5469ZM91.0801 19.7798L90.6105 19.608L91.0801 19.7798ZM91.0725 19.8802L90.5812 19.9732L91.0725 19.8802ZM100.31 29.5732L99.8581 29.3602L100.31 29.5732ZM100.291 29.6546L99.7915 29.6452L100.291 29.6546ZM88.2088 26.6036L88.6195 26.8887L88.2088 26.6036ZM88.2154 26.3831L88.6422 26.1226L88.2154 26.3831ZM95.4859 23.3238L95.8922 23.6153L95.4859 23.3238ZM95.4488 23.4281L94.9498 23.3973L95.4488 23.4281ZM101.413 27.4573L101.36 26.9601L101.413 27.4573ZM101.253 27.571L100.801 27.358L101.253 27.571ZM83.8711 32.8756L83.3826 32.7691L83.8711 32.8756ZM83.9011 32.8078L83.4904 32.5226L83.9011 32.8078ZM98.7162 18.806L98.24 18.6537L98.7162 18.806ZM98.6898 18.8579L99.0961 19.1493L98.6898 18.8579ZM84.4057 37.8627L84.1046 38.2618L84.4057 37.8627ZM84.3522 37.8011L83.914 38.0418L84.3522 37.8011ZM96.442 14.3765L96.6309 13.9135L96.442 14.3765ZM96.442 14.3765L96.2531 14.8394C96.3797 14.8911 96.8661 15.0981 97.3614 15.4154C97.8809 15.7481 98.2994 16.1332 98.4346 16.5052L98.9045 16.3345L99.3745 16.1638C99.1184 15.4589 98.445 14.9219 97.9007 14.5733C97.3323 14.2092 96.783 13.9756 96.6309 13.9135L96.442 14.3765ZM98.9045 16.3345L98.4346 16.5052C98.5427 16.8031 98.5325 17.2595 98.4578 17.7299C98.3863 18.1799 98.2703 18.5588 98.24 18.6537L98.7162 18.806L99.1924 18.9583C99.2304 18.8396 99.3627 18.4071 99.4454 17.8868C99.5248 17.3871 99.5745 16.7146 99.3745 16.1638L98.9045 16.3345ZM98.6898 18.8579L98.2835 18.5664L95.0797 23.0324L95.4859 23.3238L95.8922 23.6153L99.0961 19.1493L98.6898 18.8579ZM95.4488 23.4281L94.9498 23.3973L94.8243 25.4306L95.3234 25.4614L95.8224 25.4922L95.9479 23.4589L95.4488 23.4281ZM95.337 25.5469L94.8758 25.7401C94.9752 25.9772 95.5145 27.2457 96.1156 28.2697C96.4063 28.7649 96.7516 29.2748 97.1043 29.554C97.2744 29.6886 97.5528 29.8552 97.8851 29.7916C98.2422 29.7232 98.439 29.4372 98.544 29.1845L98.0823 28.9927L97.6205 28.8009C97.5676 28.9283 97.5664 28.8344 97.6971 28.8094C97.8028 28.7892 97.8264 28.8503 97.725 28.7699C97.5345 28.6192 97.27 28.2609 96.978 27.7634C96.4136 26.802 95.8961 25.5874 95.7982 25.3536L95.337 25.5469ZM98.0823 28.9927L98.544 29.1845C98.6835 28.8487 98.72 28.4463 98.7267 28.1326C98.7336 27.8067 98.7087 27.5161 98.6937 27.3744L98.1965 27.4269L97.6993 27.4794C97.7118 27.5984 97.7326 27.8433 97.7269 28.1113C97.7209 28.3917 97.6866 28.6418 97.6205 28.8009L98.0823 28.9927ZM98.1185 27.2931L98.4148 26.8903L97.2658 26.045L96.9695 26.4478L96.6732 26.8505L97.8222 27.6958L98.1185 27.2931ZM96.888 26.2904L97.3879 26.281L97.3576 24.6562L96.8577 24.6656L96.3577 24.6749L96.3881 26.2997L96.888 26.2904ZM96.8577 24.6656L97.3576 24.6562C97.3607 24.8246 97.2262 24.9602 97.0608 24.9614L97.0569 24.4615L97.053 23.9615C96.6649 23.9645 96.3504 24.2839 96.3577 24.6749L96.8577 24.6656ZM97.0569 24.4615L97.0607 24.9614L103.607 24.9107L103.603 24.4107L103.599 23.9107L97.053 23.9615L97.0569 24.4615ZM103.603 24.4107L103.606 24.9107C103.438 24.9118 103.305 24.7767 103.304 24.6131L103.804 24.6099L104.304 24.6067C104.301 24.2221 103.988 23.9081 103.599 23.9107L103.603 24.4107ZM103.804 24.6099L103.304 24.6131L103.319 27.022L103.819 27.0188L104.319 27.0156L104.304 24.6067L103.804 24.6099ZM103.641 27.219L103.587 26.7218L101.36 26.9601L101.413 27.4573L101.466 27.9545L103.694 27.7161L103.641 27.219ZM101.253 27.571L100.801 27.358L99.8581 29.3602L100.31 29.5732L100.763 29.7861L101.705 27.784L101.253 27.571ZM100.291 29.6546L99.7915 29.6452L99.7577 31.4453L100.258 31.4547L100.758 31.464L100.791 29.664L100.291 29.6546ZM100.314 31.5973L99.954 31.9446L103.775 35.9025L104.135 35.5552L104.495 35.2079L100.673 31.25L100.314 31.5973ZM104.135 35.5552L103.775 35.9025C103.664 35.7873 103.662 35.6021 103.778 35.4842L104.134 35.8355L104.49 36.1868C104.759 35.9144 104.757 35.4794 104.495 35.2079L104.135 35.5552ZM104.134 35.8355L103.778 35.4841L100.305 39.001L100.66 39.3523L101.016 39.7037L104.49 36.1868L104.134 35.8355ZM100.507 39.4115L100.535 38.9123L99.5037 38.8545L99.4757 39.3537L99.4477 39.8529L100.479 39.9107L100.507 39.4115ZM99.3398 39.2896L99.7075 38.9507L97.6871 36.759L97.3194 37.0979L96.9518 37.4368L98.9722 39.6285L99.3398 39.2896ZM97.0493 37.0758L96.7417 36.6817L92.2413 40.1949L92.5489 40.589L92.8566 40.9831L97.357 37.4699L97.0493 37.0758ZM92.4229 40.6313L92.4303 40.1314L88.0612 40.067L88.0539 40.5669L88.0465 41.0669L92.4156 41.1313L92.4229 40.6313ZM87.9363 40.5266L88.2375 40.1275L84.7069 37.4635L84.4057 37.8627L84.1046 38.2618L87.6352 40.9257L87.9363 40.5266ZM84.3522 37.8011L84.7904 37.5603C84.7009 37.3975 84.3851 36.8072 84.257 36.4039L83.7805 36.5552L83.304 36.7066C83.4662 37.2175 83.8309 37.8907 83.914 38.0418L84.3522 37.8011ZM83.7805 36.5552L84.257 36.4039C84.0852 35.8626 84.0823 35.1014 84.1465 34.3922C84.2093 33.6988 84.3292 33.1217 84.3596 32.9821L83.8711 32.8756L83.3826 32.7691C83.3475 32.9296 83.2185 33.5513 83.1506 34.3021C83.0841 35.0371 83.0687 35.9657 83.304 36.7065L83.7805 36.5552ZM83.9011 32.8078L84.3118 33.0929L88.6195 26.8887L88.2088 26.6036L87.7981 26.3184L83.4904 32.5226L83.9011 32.8078ZM88.2154 26.3831L88.6422 26.1226C88.5094 25.905 88.1965 25.3787 87.8821 24.752C87.5639 24.1179 87.2608 23.4134 87.1284 22.8319L86.6409 22.9429L86.1533 23.0539C86.3133 23.7561 86.6606 24.5475 86.9882 25.2004C87.3196 25.8608 87.6478 26.4128 87.7886 26.6436L88.2154 26.3831ZM86.6409 22.9429L87.1284 22.8319C86.7724 21.2689 86.637 20.3393 87.1145 18.9284L86.6409 18.7681L86.1672 18.6078C85.5995 20.2854 85.7852 21.4377 86.1533 23.0539L86.6409 22.9429ZM86.6409 18.7681L87.1145 18.9284C87.4329 17.9875 88.3724 17.0605 89.3686 16.3121C90.3435 15.5798 91.2798 15.0862 91.4675 14.9897L91.2391 14.545L91.0106 14.1002C90.7994 14.2087 89.8072 14.7319 88.768 15.5126C87.7501 16.2772 86.5898 17.3593 86.1672 18.6078L86.6409 18.7681ZM91.3203 14.5245L91.3363 15.0243L96.3808 14.8629L96.3648 14.3631L96.3488 13.8634L91.3043 14.0248L91.3203 14.5245ZM91.2825 29.9761L91.7737 29.8832C91.687 29.4245 91.1644 29.1561 90.7352 29.4188L90.9963 29.8452L91.2574 30.2717C91.0589 30.3932 90.8277 30.262 90.7912 30.0691L91.2825 29.9761ZM90.9963 29.8452L90.7352 29.4188C90.4697 29.5814 90.0251 29.875 89.6125 30.2513C89.213 30.6156 88.7771 31.1162 88.6287 31.7032L89.1135 31.8257L89.5983 31.9482C89.6726 31.6539 89.9261 31.3186 90.2863 30.9902C90.6333 30.6737 91.0188 30.4178 91.2574 30.2717L90.9963 29.8452ZM89.1135 31.8257L88.6287 31.7032C88.531 32.0901 88.4631 32.4708 88.4867 32.8584C88.511 33.2567 88.6299 33.635 88.8655 34.0241L89.2932 33.7652L89.7209 33.5062C89.5626 33.2448 89.4986 33.0219 89.4849 32.7975C89.4705 32.5624 89.5097 32.2987 89.5983 31.9482L89.1135 31.8257ZM89.2932 33.7652L88.8655 34.0241C89.1515 34.4965 89.5152 35.0804 90.3327 35.1859L90.3967 34.69L90.4607 34.1941C90.1631 34.1557 90.0172 33.9956 89.7209 33.5062L89.2932 33.7652ZM90.3967 34.69L90.3328 35.1859C90.6988 35.233 91.0087 35.0915 91.2382 34.9159C91.4644 34.743 91.647 34.5126 91.7881 34.298C92.0713 33.8671 92.2545 33.3937 92.3108 33.2397L91.8412 33.0679L91.3717 32.8962C91.3236 33.0276 91.1718 33.4151 90.9524 33.7488C90.8422 33.9164 90.7318 34.0443 90.6308 34.1216C90.5332 34.1962 90.4819 34.1968 90.4606 34.1941L90.3967 34.69ZM91.8489 32.9675L92.3401 32.8745L91.7737 29.8831L91.2825 29.9761L90.7912 30.0691L91.3576 33.0605L91.8489 32.9675ZM92.5246 18.1577L92.5885 17.6618C92.2226 17.6147 91.9127 17.7563 91.6831 17.9318C91.457 18.1047 91.2743 18.3351 91.1332 18.5497C90.8501 18.9806 90.6669 19.454 90.6105 19.608L91.0801 19.7798L91.5497 19.9516C91.5978 19.8201 91.7496 19.4327 91.9689 19.0989C92.0791 18.9313 92.1896 18.8034 92.2906 18.7262C92.3882 18.6515 92.4394 18.6509 92.4608 18.6537L92.5246 18.1577ZM91.0725 19.8802L90.5812 19.9732L91.1476 22.9646L91.6389 22.8716L92.1302 22.7786L91.5638 19.7872L91.0725 19.8802ZM91.6389 22.8716L91.1476 22.9646C91.2344 23.4232 91.757 23.6916 92.1861 23.4289L91.925 23.0025L91.6639 22.5761C91.8625 22.4545 92.0937 22.5857 92.1302 22.7787L91.6389 22.8716ZM91.925 23.0025L92.1861 23.4289C92.4516 23.2663 92.8962 22.9727 93.3089 22.5964C93.7084 22.2321 94.1443 21.7315 94.2926 21.1445L93.8078 21.022L93.3231 20.8995C93.2487 21.1938 92.9952 21.5291 92.6351 21.8575C92.288 22.174 91.9026 22.4299 91.6639 22.5761L91.925 23.0025ZM93.8078 21.022L94.2926 21.1445C94.3904 20.7577 94.4582 20.3769 94.4346 19.9893C94.4103 19.591 94.2914 19.2127 94.0559 18.8236L93.6282 19.0826L93.2004 19.3415C93.3587 19.603 93.4228 19.8258 93.4365 20.0502C93.4508 20.2854 93.4116 20.5491 93.3231 20.8995L93.8078 21.022ZM93.6282 19.0826L94.0559 18.8236C93.7699 18.3512 93.4062 17.7673 92.5886 17.6619L92.5246 18.1577L92.4607 18.6536C92.7583 18.692 92.9042 18.8521 93.2004 19.3415L93.6282 19.0826ZM88.0539 40.5669L88.0612 40.067C88.1249 40.0679 88.1866 40.0891 88.2375 40.1275L87.9363 40.5266L87.6352 40.9257C87.7538 41.0152 87.8979 41.0647 88.0465 41.0669L88.0539 40.5669ZM92.5489 40.589L92.2413 40.1949C92.2952 40.1528 92.3619 40.1304 92.4303 40.1314L92.4229 40.6313L92.4156 41.1313C92.5752 41.1336 92.7308 41.0813 92.8566 40.9831L92.5489 40.589ZM97.3194 37.0979L97.6871 36.759C97.4401 36.4911 97.0289 36.4575 96.7417 36.6817L97.0493 37.0758L97.357 37.4699C97.2339 37.566 97.0577 37.5516 96.9518 37.4368L97.3194 37.0979ZM99.4757 39.3537L99.5037 38.8545C99.5815 38.8588 99.6546 38.8933 99.7075 38.9507L99.3398 39.2896L98.9722 39.6285C99.0955 39.7622 99.2661 39.8427 99.4477 39.8529L99.4757 39.3537ZM91.8412 33.0679L92.3108 33.2397C92.3557 33.117 92.3621 32.9907 92.3401 32.8745L91.8489 32.9675L91.3576 33.0605C91.3484 33.0119 91.3504 32.9543 91.3717 32.8962L91.8412 33.0679ZM103.819 27.0188L103.319 27.022C103.318 26.868 103.434 26.7382 103.587 26.7218L103.641 27.219L103.694 27.7161C104.051 27.6779 104.322 27.3751 104.319 27.0156L103.819 27.0188ZM100.66 39.3523L100.305 39.001C100.365 38.9398 100.449 38.9075 100.535 38.9123L100.507 39.4115L100.479 39.9107C100.679 39.9219 100.875 39.8466 101.016 39.7037L100.66 39.3523ZM96.9695 26.4478L97.2658 26.045C97.341 26.1004 97.3862 26.1876 97.3879 26.281L96.888 26.2904L96.3881 26.2997C96.3922 26.5177 96.4976 26.7213 96.6732 26.8505L96.9695 26.4478ZM91.2391 14.545L91.4675 14.9897C91.4217 15.0133 91.3749 15.023 91.3363 15.0243L91.3203 14.5245L91.3043 14.0248C91.208 14.0278 91.1077 14.0504 91.0106 14.1002L91.2391 14.545ZM98.1965 27.4269L98.6937 27.3744C98.6725 27.1735 98.5656 27.0013 98.4148 26.8903L98.1185 27.2931L97.8222 27.6958C97.7586 27.649 97.7091 27.5726 97.6993 27.4794L98.1965 27.4269ZM100.258 31.4547L99.7577 31.4453C99.7542 31.6312 99.8249 31.8108 99.954 31.9446L100.314 31.5973L100.673 31.25C100.729 31.3074 100.759 31.3844 100.758 31.464L100.258 31.4547ZM95.3234 25.4614L94.8243 25.4306C94.8184 25.5273 94.8308 25.6326 94.8758 25.7401L95.337 25.5469L95.7982 25.3536C95.8077 25.3765 95.8151 25.4019 95.8192 25.4287C95.8233 25.455 95.8234 25.477 95.8224 25.4922L95.3234 25.4614ZM91.0801 19.7798L90.6105 19.608C90.5657 19.7307 90.5592 19.857 90.5812 19.9732L91.0725 19.8802L91.5638 19.7872C91.573 19.8358 91.5709 19.8935 91.5497 19.9516L91.0801 19.7798ZM100.31 29.5732L99.8581 29.3602C99.816 29.4494 99.7934 29.5466 99.7915 29.6452L100.291 29.6546L100.791 29.664C100.791 29.7063 100.781 29.7479 100.763 29.7861L100.31 29.5732ZM88.2088 26.6036L88.6195 26.8887C88.7778 26.6607 88.7876 26.3608 88.6422 26.1226L88.2154 26.3831L87.7886 26.6436C87.727 26.5425 87.7314 26.4144 87.7981 26.3184L88.2088 26.6036ZM95.4859 23.3238L95.0797 23.0324C95.0029 23.1394 94.9579 23.2659 94.9498 23.3973L95.4488 23.4281L95.9479 23.4589C95.9444 23.5152 95.9251 23.5694 95.8922 23.6153L95.4859 23.3238ZM101.413 27.4573L101.36 26.9601C101.117 26.9861 100.905 27.1369 100.801 27.358L101.253 27.571L101.705 27.784C101.661 27.8787 101.57 27.9433 101.466 27.9545L101.413 27.4573ZM83.8711 32.8756L84.3596 32.9821C84.3498 33.0269 84.3313 33.0649 84.3118 33.0929L83.9011 32.8078L83.4904 32.5226C83.4419 32.5925 83.4032 32.6746 83.3826 32.7691L83.8711 32.8756ZM98.7162 18.806L98.24 18.6537C98.2515 18.6178 98.268 18.5881 98.2835 18.5664L98.6898 18.8579L99.0961 19.1493C99.1348 19.0954 99.1688 19.0322 99.1924 18.9583L98.7162 18.806ZM84.4057 37.8627L84.7069 37.4635C84.7392 37.4879 84.7685 37.5205 84.7904 37.5603L84.3522 37.8011L83.914 38.0418C83.9624 38.13 84.0281 38.2041 84.1046 38.2618L84.4057 37.8627ZM96.442 14.3765L96.6309 13.9135C96.5347 13.8743 96.4387 13.8605 96.3488 13.8634L96.3648 14.3631L96.3808 14.8629C96.3447 14.864 96.2995 14.8583 96.2531 14.8394L96.442 14.3765Z" fill="black"/>
<path fill-rule="evenodd" clip-rule="evenodd" d="M122.764 6.01117L124.583 8.16059L123.15 11.3579L122.984 18.7983L118.079 19.7358C118.475 18.1929 117.363 16.7415 116.756 16.2084C111.855 16.9795 109.98 21.8775 109.977 21.8852C109.975 21.9034 109.685 24.3484 110.142 24.9711L117.142 26.8452L122.488 29.8774C122.818 25.9091 124.538 17.7847 128.771 17.0346C132.334 16.4036 134.143 19.6862 134.834 22.2202L132.299 10.0903L138.748 12.4047L143.709 29.601L141.559 10.4204L146.188 7.77485L147.208 15.183C152.064 9.45735 159.8 8.26733 163.062 8.38813L166.052 11.1967L164.602 14.9116L164.874 22.0688L160.435 21.6157L158.894 19.6225C154.093 19.2605 150.922 25.1481 151.194 25.8735C151.411 26.4533 155.814 27.6257 157.989 28.1391L162.518 30.9477C166.359 32.6872 165.086 40.4302 163.968 44.0844C162.953 48.5781 154.545 51.9358 150.468 53.0532V51.5131L152.009 49.4291H150.559V48.8862L151.918 47.6176H149.653L149.925 44.5375C154.926 42.5081 157.083 36.9268 157.536 34.3901C155.579 34.825 150.076 31.0074 147.57 29.0444L148.023 45.6245L144.489 46.4399L140.502 33.2123L141.68 50.6977L138.872 50.0639L138.329 46.9838H137.151L135.611 35.5678C135.901 40.7863 132.288 45.4127 130.446 47.0737C130.416 47.3455 129.848 47.7984 127.819 47.436C125.789 47.0734 123.531 41.6677 122.655 39.0102C122.365 40.7497 115.407 48.0703 111.964 51.5131L111.874 50.9702L105.441 54.9565V49.8823L106.89 48.3422L104.897 48.7045L104.626 46.1684C108.855 44.2535 119.071 33.1287 116.976 32.5776C106.49 29.8179 105.585 25.6516 104.41 22.4916C104.042 20.6912 104.178 15.9542 107.662 11.4125C111.145 6.87103 119.182 5.91931 122.764 6.01117ZM130.483 24.1528C129.645 24.0627 128.173 27.507 127.707 31.85C127.24 36.1931 127.955 39.7903 128.793 39.8803C129.631 39.9689 130.688 36.5214 131.155 32.1791C131.621 27.837 131.321 24.2442 130.483 24.1528Z" fill="#F7C500"/>
<path d="M122.764 6.01117L123.146 5.68824L123.001 5.51708L122.777 5.51134L122.764 6.01117ZM124.583 8.16059L125.039 8.36504L125.167 8.07788L124.964 7.83766L124.583 8.16059ZM123.15 11.3579L122.694 11.1534L122.652 11.2456L122.65 11.3467L123.15 11.3579ZM122.984 18.7983L123.078 19.2894L123.475 19.2135L123.484 18.8094L122.984 18.7983ZM118.079 19.7358L117.594 19.6113L117.398 20.3749L118.172 20.2269L118.079 19.7358ZM116.756 16.2084L117.086 15.8329L116.91 15.6781L116.679 15.7145L116.756 16.2084ZM109.977 21.8852L109.51 21.7066L109.488 21.7645L109.481 21.8261L109.977 21.8852ZM110.142 24.9711L109.739 25.2671L109.843 25.4087L110.013 25.4541L110.142 24.9711ZM117.142 26.8452L117.389 26.4103L117.333 26.3787L117.271 26.3622L117.142 26.8452ZM122.488 29.8774L122.241 30.3123L122.921 30.698L122.986 29.9189L122.488 29.8774ZM128.771 17.0346L128.684 16.5423L128.684 16.5423L128.771 17.0346ZM134.834 22.2202L134.352 22.3517L135.324 22.1179L134.834 22.2202ZM132.299 10.0903L132.468 9.61967L131.627 9.31775L131.81 10.1926L132.299 10.0903ZM138.748 12.4047L139.228 12.2661L139.157 12.0205L138.916 11.9341L138.748 12.4047ZM143.709 29.601L143.228 29.7396L144.205 29.5453L143.709 29.601ZM141.559 10.4204L141.311 9.98625L141.026 10.1494L141.062 10.476L141.559 10.4204ZM146.188 7.77485L146.683 7.70668L146.582 6.97352L145.94 7.34074L146.188 7.77485ZM147.208 15.183L146.712 15.2512L146.865 16.3601L147.589 15.5065L147.208 15.183ZM163.062 8.38813L163.404 8.02368L163.268 7.8954L163.081 7.88847L163.062 8.38813ZM166.052 11.1967L166.518 11.3785L166.641 11.0637L166.395 10.8323L166.052 11.1967ZM164.602 14.9116L164.136 14.7297L164.098 14.8266L164.102 14.9305L164.602 14.9116ZM164.874 22.0688L164.823 22.5662L165.395 22.6246L165.373 22.0498L164.874 22.0688ZM160.435 21.6157L160.04 21.9215L160.171 22.0913L160.384 22.1131L160.435 21.6157ZM158.894 19.6225L159.29 19.3167L159.154 19.1406L158.932 19.1239L158.894 19.6225ZM151.194 25.8735L150.726 26.0487L150.726 26.049L151.194 25.8735ZM157.989 28.1391L158.252 27.7142L158.183 27.6712L158.104 27.6525L157.989 28.1391ZM162.518 30.9477L162.255 31.3726L162.282 31.3898L162.312 31.4032L162.518 30.9477ZM163.968 44.0844L163.49 43.9382L163.485 43.9561L163.481 43.9743L163.968 44.0844ZM150.468 53.0532H149.968V53.7086L150.6 53.5354L150.468 53.0532ZM150.468 51.5131L150.066 51.2158L149.968 51.3483V51.5131H150.468ZM152.009 49.4291L152.411 49.7264L153.001 48.9291H152.009V49.4291ZM150.559 49.4291H150.059V49.9291H150.559V49.4291ZM150.559 48.8862L150.218 48.5206L150.059 48.6689V48.8862H150.559ZM151.918 47.6176L152.26 47.9832L153.187 47.1176H151.918V47.6176ZM149.653 47.6176L149.155 47.5736L149.107 48.1176H149.653V47.6176ZM149.925 44.5375L149.737 44.0742L149.454 44.1891L149.427 44.4935L149.925 44.5375ZM157.536 34.3901L158.028 34.478L158.16 33.7392L157.427 33.902L157.536 34.3901ZM147.57 29.0444L147.878 28.6507L147.041 27.9951L147.07 29.058L147.57 29.0444ZM148.023 45.6245L148.135 46.1117L148.534 46.0197L148.523 45.6108L148.023 45.6245ZM144.489 46.4399L144.01 46.5842L144.145 47.0323L144.601 46.9271L144.489 46.4399ZM140.502 33.2123L140.981 33.0681L140.004 33.2459L140.502 33.2123ZM141.68 50.6977L141.57 51.1854L142.224 51.333L142.179 50.6641L141.68 50.6977ZM138.872 50.0639L138.379 50.1507L138.437 50.4784L138.762 50.5516L138.872 50.0639ZM138.329 46.9838L138.821 46.897L138.748 46.4838H138.329V46.9838ZM137.151 46.9838L136.655 47.0507L136.714 47.4838H137.151V46.9838ZM135.611 35.5678L136.106 35.501L135.112 35.5955L135.611 35.5678ZM130.446 47.0737L130.111 46.7023L129.97 46.8296L129.949 47.0185L130.446 47.0737ZM127.819 47.436L127.731 47.9282L127.731 47.9282L127.819 47.436ZM122.655 39.0102L123.13 38.8537L122.162 38.928L122.655 39.0102ZM111.964 51.5131L111.471 51.5956L111.631 52.5532L112.318 51.8667L111.964 51.5131ZM111.874 50.9702L112.367 50.8877L112.244 50.1525L111.61 50.5452L111.874 50.9702ZM105.441 54.9565H104.941V55.8546L105.704 55.3815L105.441 54.9565ZM105.441 49.8823L105.077 49.5396L104.941 49.684V49.8823H105.441ZM106.89 48.3422L107.254 48.6849L108.295 47.5786L106.801 47.8503L106.89 48.3422ZM104.897 48.7045L104.4 48.7578L104.457 49.2927L104.986 49.1965L104.897 48.7045ZM104.626 46.1684L104.419 45.7129L104.09 45.8621L104.128 46.2216L104.626 46.1684ZM116.976 32.5776L116.849 33.0611L116.849 33.0611L116.976 32.5776ZM104.41 22.4916L103.92 22.5916L103.928 22.6296L103.941 22.666L104.41 22.4916ZM107.662 11.4125L107.265 11.1082L107.265 11.1082L107.662 11.4125ZM130.483 24.1528L130.537 23.6557L130.536 23.6556L130.483 24.1528ZM127.707 31.85L127.209 31.7966L127.209 31.7966L127.707 31.85ZM128.793 39.8803L128.74 40.3775L128.741 40.3775L128.793 39.8803ZM131.155 32.1791L131.652 32.2325V32.2325L131.155 32.1791ZM122.764 6.01117L122.382 6.33411L124.201 8.48352L124.583 8.16059L124.964 7.83766L123.146 5.68824L122.764 6.01117ZM124.583 8.16059L124.126 7.95614L122.694 11.1534L123.15 11.3579L123.606 11.5623L125.039 8.36504L124.583 8.16059ZM123.15 11.3579L122.65 11.3467L122.484 18.7871L122.984 18.7983L123.484 18.8094L123.65 11.369L123.15 11.3579ZM122.984 18.7983L122.89 18.3072L117.985 19.2447L118.079 19.7358L118.172 20.2269L123.078 19.2894L122.984 18.7983ZM118.079 19.7358L118.563 19.8603C118.8 18.9371 118.58 18.0634 118.243 17.3738C117.907 16.6861 117.434 16.1384 117.086 15.8329L116.756 16.2084L116.426 16.584C116.685 16.8116 117.072 17.2561 117.345 17.8131C117.616 18.3681 117.754 18.9915 117.594 19.6113L118.079 19.7358ZM116.756 16.2084L116.679 15.7145C114.067 16.1253 112.273 17.6354 111.143 19.0164C110.014 20.3956 109.522 21.6765 109.51 21.7066L109.977 21.8852L110.444 22.0638C110.436 22.0861 110.882 20.9142 111.917 19.6497C112.95 18.387 114.544 17.0626 116.834 16.7024L116.756 16.2084ZM109.977 21.8852L109.481 21.8261C109.479 21.8408 109.404 22.475 109.387 23.1901C109.379 23.5467 109.386 23.9371 109.426 24.2869C109.464 24.6097 109.541 24.997 109.739 25.2671L110.142 24.9711L110.545 24.6752C110.515 24.6339 110.456 24.482 110.42 24.1707C110.386 23.8863 110.38 23.5476 110.387 23.2128C110.402 22.5451 110.473 21.9478 110.474 21.9443L109.977 21.8852ZM110.142 24.9711L110.013 25.4541L117.013 27.3281L117.142 26.8452L117.271 26.3622L110.271 24.4881L110.142 24.9711ZM117.142 26.8452L116.895 27.2801L122.241 30.3123L122.488 29.8774L122.734 29.4425L117.389 26.4103L117.142 26.8452ZM122.488 29.8774L122.986 29.9189C123.149 27.9665 123.654 24.9922 124.633 22.4275C125.123 21.145 125.722 19.9891 126.437 19.1167C127.151 18.2455 127.955 17.687 128.858 17.5269L128.771 17.0346L128.684 16.5423C127.471 16.7573 126.473 17.4956 125.663 18.4827C124.855 19.4686 124.21 20.7325 123.699 22.0709C122.677 24.7479 122.158 27.82 121.99 29.8359L122.488 29.8774ZM128.771 17.0346L128.858 17.527C130.444 17.2461 131.624 17.8241 132.514 18.781C133.422 19.7578 134.018 21.1266 134.352 22.3517L134.834 22.2202L135.317 22.0886C134.96 20.7798 134.306 19.2403 133.246 18.1001C132.167 16.94 130.661 16.1922 128.684 16.5423L128.771 17.0346ZM134.834 22.2202L135.324 22.1179L132.789 9.98798L132.299 10.0903L131.81 10.1926L134.345 22.3224L134.834 22.2202ZM132.299 10.0903L132.13 10.5609L138.579 12.8753L138.748 12.4047L138.916 11.9341L132.468 9.61967L132.299 10.0903ZM138.748 12.4047L138.267 12.5433L143.228 29.7396L143.709 29.601L144.189 29.4624L139.228 12.2661L138.748 12.4047ZM143.709 29.601L144.205 29.5453L142.056 10.3647L141.559 10.4204L141.062 10.476L143.212 29.6567L143.709 29.601ZM141.559 10.4204L141.807 10.8545L146.436 8.20895L146.188 7.77485L145.94 7.34074L141.311 9.98625L141.559 10.4204ZM146.188 7.77485L145.693 7.84301L146.712 15.2512L147.208 15.183L147.703 15.1149L146.683 7.70668L146.188 7.77485ZM147.208 15.183L147.589 15.5065C152.307 9.94327 159.864 8.77001 163.044 8.88778L163.062 8.38813L163.081 7.88847C159.737 7.76465 151.82 8.97143 146.826 14.8596L147.208 15.183ZM163.062 8.38813L162.72 8.75258L165.71 11.5612L166.052 11.1967L166.395 10.8323L163.404 8.02368L163.062 8.38813ZM166.052 11.1967L165.586 11.0149L164.136 14.7297L164.602 14.9116L165.068 15.0934L166.518 11.3785L166.052 11.1967ZM164.602 14.9116L164.102 14.9305L164.374 22.0877L164.874 22.0688L165.373 22.0498L165.102 14.8926L164.602 14.9116ZM164.874 22.0688L164.924 21.5714L160.486 21.1183L160.435 21.6157L160.384 22.1131L164.823 22.5662L164.874 22.0688ZM160.435 21.6157L160.831 21.3098L159.29 19.3167L158.894 19.6225L158.498 19.9283L160.04 21.9215L160.435 21.6157ZM158.894 19.6225L158.932 19.1239C156.307 18.926 154.175 20.4373 152.769 22.0067C152.061 22.7976 151.516 23.6255 151.163 24.3108C150.987 24.6526 150.853 24.9692 150.772 25.2358C150.731 25.3686 150.7 25.5001 150.686 25.6229C150.674 25.7331 150.667 25.8927 150.726 26.0487L151.194 25.8735L151.662 25.6983C151.687 25.7635 151.673 25.7922 151.68 25.7366C151.685 25.6937 151.699 25.6246 151.728 25.5277C151.787 25.335 151.894 25.0754 152.052 24.7689C152.367 24.1576 152.864 23.4002 153.514 22.6738C154.826 21.2085 156.68 19.9569 158.856 20.1211L158.894 19.6225ZM151.194 25.8735L150.726 26.049C150.78 26.1928 150.876 26.2953 150.946 26.3592C151.023 26.4285 151.111 26.4897 151.199 26.5433C151.376 26.6509 151.6 26.7574 151.849 26.8612C152.349 27.0701 153.006 27.2927 153.711 27.5092C155.124 27.9432 156.78 28.3675 157.874 28.6257L157.989 28.1391L158.104 27.6525C157.023 27.3973 155.39 26.9787 154.004 26.5532C153.31 26.34 152.689 26.1286 152.234 25.9386C152.005 25.8429 151.833 25.7587 151.719 25.6892C151.662 25.6543 151.631 25.6303 151.618 25.6185C151.599 25.6012 151.635 25.6266 151.662 25.6979L151.194 25.8735ZM157.989 28.1391L157.725 28.564L162.255 31.3726L162.518 30.9477L162.782 30.5228L158.252 27.7142L157.989 28.1391ZM162.518 30.9477L162.312 31.4032C163.122 31.7702 163.687 32.4605 164.057 33.403C164.43 34.3524 164.592 35.5302 164.603 36.8023C164.624 39.3457 164.039 42.1423 163.49 43.9382L163.968 44.0844L164.446 44.2306C165.015 42.3723 165.625 39.4703 165.603 36.7938C165.591 35.4559 165.422 34.1435 164.988 33.0376C164.551 31.9248 163.834 30.9949 162.724 30.4922L162.518 30.9477ZM163.968 44.0844L163.481 43.9743C163.256 44.9678 162.612 45.9385 161.656 46.8654C160.703 47.7895 159.468 48.6412 158.121 49.3991C155.427 50.9152 152.345 52.0202 150.336 52.5709L150.468 53.0532L150.6 53.5354C152.668 52.9687 155.829 51.8362 158.612 50.2707C160.003 49.4878 161.316 48.5876 162.352 47.5834C163.385 46.582 164.173 45.4478 164.456 44.1946L163.968 44.0844ZM150.468 53.0532H150.968V51.5131H150.468H149.968V53.0532H150.468ZM150.468 51.5131L150.87 51.8104L152.411 49.7264L152.009 49.4291L151.607 49.1319L150.066 51.2158L150.468 51.5131ZM152.009 49.4291V48.9291H150.559V49.4291V49.9291H152.009V49.4291ZM150.559 49.4291H151.059V48.8862H150.559H150.059V49.4291H150.559ZM150.559 48.8862L150.9 49.2517L152.26 47.9832L151.918 47.6176L151.577 47.2521L150.218 48.5206L150.559 48.8862ZM151.918 47.6176V47.1176H149.653V47.6176V48.1176H151.918V47.6176ZM149.653 47.6176L150.151 47.6617L150.423 44.5816L149.925 44.5375L149.427 44.4935L149.155 47.5736L149.653 47.6176ZM149.925 44.5375L150.113 45.0008C152.741 43.9345 154.603 41.9427 155.861 39.9178C157.117 37.8948 157.791 35.8051 158.028 34.478L157.536 34.3901L157.043 34.3022C156.827 35.5119 156.197 37.4811 155.011 39.3903C153.827 41.2976 152.111 43.1112 149.737 44.0742L149.925 44.5375ZM157.536 34.3901L157.427 33.902C157.098 33.9751 156.513 33.8743 155.689 33.5492C154.894 33.2356 153.97 32.7525 153.014 32.1862C151.104 31.0549 149.12 29.6231 147.878 28.6507L147.57 29.0444L147.262 29.438C148.526 30.4286 150.547 31.8872 152.504 33.0466C153.482 33.6257 154.457 34.1383 155.322 34.4795C156.158 34.8091 156.995 35.0225 157.644 34.8782L157.536 34.3901ZM147.57 29.0444L147.07 29.058L147.523 45.6381L148.023 45.6245L148.523 45.6108L148.07 29.0307L147.57 29.0444ZM148.023 45.6245L147.911 45.1373L144.376 45.9527L144.489 46.4399L144.601 46.9271L148.135 46.1117L148.023 45.6245ZM144.489 46.4399L144.968 46.2956L140.981 33.0681L140.502 33.2123L140.024 33.3566L144.01 46.5842L144.489 46.4399ZM140.502 33.2123L140.004 33.2459L141.181 50.7313L141.68 50.6977L142.179 50.6641L141.001 33.1787L140.502 33.2123ZM141.68 50.6977L141.79 50.21L138.982 49.5762L138.872 50.0639L138.762 50.5516L141.57 51.1854L141.68 50.6977ZM138.872 50.0639L139.364 49.9771L138.821 46.897L138.329 46.9838L137.836 47.0706L138.379 50.1507L138.872 50.0639ZM138.329 46.9838V46.4838H137.151V46.9838V47.4838H138.329V46.9838ZM137.151 46.9838L137.646 46.917L136.106 35.501L135.611 35.5678L135.115 35.6347L136.655 47.0507L137.151 46.9838ZM135.611 35.5678L135.112 35.5955C135.25 38.0829 134.458 40.4508 133.389 42.4158C132.319 44.3813 130.991 45.9087 130.111 46.7023L130.446 47.0737L130.781 47.445C131.743 46.5777 133.142 44.9614 134.267 42.8938C135.392 40.8258 136.262 38.2712 136.11 35.5401L135.611 35.5678ZM130.446 47.0737L129.949 47.0185C129.969 46.8368 130.091 46.9232 129.758 47.0082C129.457 47.0851 128.888 47.119 127.907 46.9438L127.819 47.436L127.731 47.9282C128.779 48.1154 129.508 48.104 130.006 47.9771C130.471 47.8583 130.892 47.5823 130.943 47.1289L130.446 47.0737ZM127.819 47.436L127.907 46.9438C127.578 46.885 127.153 46.5943 126.66 46.0158C126.181 45.4547 125.701 44.6965 125.245 43.8472C124.335 42.1511 123.561 40.1639 123.13 38.8537L122.655 39.0102L122.18 39.1667C122.624 40.5141 123.418 42.5584 124.364 44.3201C124.836 45.1998 125.355 46.0271 125.898 46.6646C126.427 47.2847 127.045 47.8057 127.731 47.9282L127.819 47.436ZM122.655 39.0102L122.162 38.928C122.142 39.0449 122.047 39.2798 121.825 39.6478C121.613 39.9998 121.316 40.4261 120.948 40.9113C120.213 41.8808 119.218 43.0554 118.118 44.2904C115.921 46.759 113.328 49.4425 111.611 51.1596L111.964 51.5131L112.318 51.8667C114.044 50.1408 116.651 47.4427 118.865 44.9554C119.972 43.7125 120.986 42.5155 121.745 41.5156C122.123 41.0161 122.444 40.5582 122.682 40.1635C122.91 39.7848 123.095 39.4104 123.148 39.0924L122.655 39.0102ZM111.964 51.5131L112.458 51.4306L112.367 50.8877L111.874 50.9702L111.38 51.0526L111.471 51.5956L111.964 51.5131ZM111.874 50.9702L111.61 50.5452L105.178 54.5315L105.441 54.9565L105.704 55.3815L112.137 51.3952L111.874 50.9702ZM105.441 54.9565H105.941V49.8823H105.441H104.941V54.9565H105.441ZM105.441 49.8823L105.805 50.2249L107.254 48.6849L106.89 48.3422L106.526 47.9996L105.077 49.5396L105.441 49.8823ZM106.89 48.3422L106.801 47.8503L104.808 48.2126L104.897 48.7045L104.986 49.1965L106.98 48.8342L106.89 48.3422ZM104.897 48.7045L105.394 48.6513L105.123 46.1152L104.626 46.1684L104.128 46.2216L104.4 48.7578L104.897 48.7045ZM104.626 46.1684L104.832 46.6239C105.96 46.1132 107.437 45.0171 108.962 43.6919C110.498 42.3569 112.12 40.7558 113.541 39.1987C114.96 37.6452 116.195 36.1184 116.947 34.9321C117.317 34.3479 117.599 33.8031 117.706 33.3587C117.759 33.1393 117.786 32.8795 117.701 32.6351C117.602 32.3521 117.38 32.1669 117.103 32.094L116.976 32.5776L116.849 33.0611C116.851 33.0618 116.831 33.0566 116.805 33.0335C116.778 33.0092 116.763 32.9819 116.757 32.9649C116.75 32.9449 116.768 32.9825 116.734 33.1238C116.667 33.4008 116.461 33.8304 116.102 34.3967C115.396 35.5112 114.205 36.9885 112.803 38.5244C111.404 40.0568 109.809 41.6304 108.306 42.9371C106.791 44.2536 105.406 45.2662 104.419 45.7129L104.626 46.1684ZM116.976 32.5776L117.103 32.094C111.912 30.7279 109.162 29.0311 107.565 27.3413C105.966 25.6494 105.478 23.9295 104.878 22.3173L104.41 22.4916L103.941 22.666C104.517 24.2138 105.07 26.157 106.838 28.0282C108.609 29.9014 111.554 31.6676 116.849 33.0611L116.976 32.5776ZM104.41 22.4916L104.9 22.3917C104.559 20.7218 104.67 16.1347 108.058 11.7168L107.662 11.4125L107.265 11.1082C103.687 15.7736 103.526 20.6605 103.92 22.5916L104.41 22.4916ZM107.662 11.4125L108.058 11.7168C109.703 9.57292 112.458 8.23897 115.308 7.4565C118.147 6.67696 121.003 6.46617 122.751 6.51101L122.764 6.01117L122.777 5.51134C120.943 5.46432 117.989 5.68346 115.043 6.49219C112.108 7.29798 109.104 8.71065 107.265 11.1082L107.662 11.4125ZM130.483 24.1528L130.536 23.6556C130.25 23.6249 130.008 23.7511 129.836 23.8843C129.659 24.0212 129.498 24.21 129.351 24.4211C129.055 24.8458 128.761 25.4453 128.488 26.1609C127.94 27.5981 127.447 29.5874 127.209 31.7966L127.707 31.85L128.204 31.9034C128.433 29.7696 128.909 27.8653 129.423 26.5171C129.681 25.84 129.941 25.3239 130.172 24.9923C130.288 24.8254 130.382 24.7259 130.448 24.6748C130.519 24.6199 130.506 24.6582 130.43 24.6499L130.483 24.1528ZM127.707 31.85L127.209 31.7966C126.972 34.0059 127.034 36.035 127.267 37.5366C127.383 38.2842 127.544 38.9231 127.744 39.394C127.844 39.6282 127.963 39.8439 128.107 40.0127C128.248 40.1777 128.458 40.3471 128.74 40.3775L128.793 39.8803L128.847 39.3832C128.92 39.391 128.923 39.4283 128.867 39.3624C128.814 39.3003 128.743 39.1862 128.665 39.0027C128.51 38.6381 128.364 38.0893 128.255 37.3835C128.037 35.9782 127.975 34.0372 128.204 31.9034L127.707 31.85ZM128.793 39.8803L128.741 40.3775C129.033 40.4084 129.274 40.2767 129.442 40.1326C129.61 39.9884 129.755 39.7925 129.881 39.5798C130.134 39.1516 130.373 38.55 130.592 37.8379C131.031 36.4057 131.416 34.4254 131.652 32.2325L131.155 32.1791L130.658 32.1257C130.427 34.2752 130.051 36.1898 129.635 37.5447C129.426 38.2262 129.215 38.7413 129.02 39.0702C128.922 39.2361 128.843 39.329 128.791 39.3733C128.739 39.4177 128.763 39.3743 128.846 39.3831L128.793 39.8803ZM131.155 32.1791L131.652 32.2325C131.887 30.0398 131.931 28.0229 131.806 26.5302C131.744 25.7881 131.638 25.1495 131.481 24.6772C131.403 24.4426 131.304 24.2205 131.17 24.0439C131.036 23.8673 130.829 23.6876 130.537 23.6557L130.483 24.1528L130.429 24.6498C130.346 24.6408 130.332 24.5933 130.373 24.6477C130.414 24.702 130.472 24.8095 130.532 24.9925C130.653 25.3552 130.75 25.9034 130.81 26.6136C130.928 28.0258 130.889 29.9763 130.658 32.1257L131.155 32.1791Z" fill="black"/>
</svg>
