<svg width="149" height="58" viewBox="0 0 149 58" fill="none" xmlns="http://www.w3.org/2000/svg">
<path d="M74.133 0.721375L82.3781 2.29755L82.8351 2.38544L82.7814 2.84637L80.5363 22.0974L83.0519 22.2985L83.5119 22.3356V27.1774H80.9074C80.5888 29.7429 80.1603 33.5002 79.8478 36.9538C79.6824 38.7817 79.5498 40.5207 79.4826 41.9509C79.4146 43.3985 79.4166 44.4825 79.5041 45.03L79.5685 45.4323L79.1877 45.5759L75.6711 46.9099L74.9982 47.1647L74.9933 46.446L74.8752 29.1179H72.9807L73.4474 42.3024L73.4689 42.9284L72.8537 42.8112L67.7609 41.8405L67.3693 41.7663L67.3547 41.3679L66.8693 28.1511V28.1472L66.7756 25.0544L61.8195 30.2761L63.3596 44.6198L63.4172 45.154L62.8801 45.1725L60.2922 45.2653L60.0881 45.2722L59.9377 45.1354C59.296 44.552 57.9983 43.0423 57.4484 41.2429L48.426 45.8552L47.8439 46.153L47.7092 45.5134L44.84 31.8806L43.9601 31.9245L46.3449 44.1149L46.4191 44.4909L46.0744 44.6599L41.176 47.0632L40.6125 47.3395L40.4689 46.7292L37.1574 32.6784L32.3996 33.5515L29.9807 43.7712L29.8449 44.3415L29.3029 44.1188L29.2844 44.111L30.5529 45.9616L30.8322 46.3679L30.4299 46.653L25.0685 50.4421L24.6838 50.7145L24.3889 50.3464L14.1144 37.5026L13.0773 56.3474L13.051 56.8386L12.5588 56.819L10.1555 56.7272L9.99042 56.7204L9.86151 56.6169L6.90643 54.2341L6.7121 54.0768L6.72089 53.8278L7.22772 38.6149L4.32635 34.652L4.03632 34.2565L4.42694 33.9597L8.841 30.5954L8.70721 20.4528L4.58319 21.7214L4.16913 21.8483L3.98456 21.4567L0.90741 14.9362L0.679871 14.4557L1.17499 14.2585L11.0666 10.322L11.1262 10.2985L11.1887 10.2907C13.1717 10.0395 16.319 9.80102 19.3283 9.90302C20.8326 9.95403 22.316 10.0911 23.6086 10.3581C24.8895 10.6227 26.0377 11.0263 26.8264 11.6472C28.4291 12.9089 28.717 15.0369 28.5246 17.0104C28.3297 19.008 27.6299 21.0191 27.0441 22.2673L27.0119 22.3366L26.9601 22.3932L19.2228 30.8464L23.8195 37.2057L25.09 33.2184L23.2463 29.3171L22.9933 28.7819L23.5637 28.6218L26.9621 27.6686L30.8478 2.73016L30.9103 2.3288L31.3156 2.30829L38.9562 1.90594L39.4074 1.88153L39.4767 2.3288L42.8957 24.4235L43.6779 24.4196L40.7287 4.07294L40.6389 3.44891L41.2668 3.5036L48.2531 4.11005L48.6769 4.14618L48.7092 4.57098L49.2648 12.0182C50.8545 11.427 53.2561 10.7672 55.9914 10.444C58.8767 10.1033 62.1646 10.1352 65.2785 11.0388L64.3303 5.66473L64.2033 4.94208L64.9221 5.08759L72.6828 6.66473L73.0988 6.74872L73.0832 7.17255L72.4953 23.6042L73.8947 23.5339L73.5383 1.2204L73.5285 0.60614L74.133 0.721375ZM49.8537 16.5759C49.7162 16.4669 49.5153 16.575 49.5305 16.7497L51.175 35.3073C51.1853 35.4232 51.2926 35.506 51.4074 35.487L57.1301 34.5417C57.2369 34.524 57.3107 34.4243 57.2961 34.3171L56.8449 31.0612C56.8436 31.0515 56.8418 31.0414 56.8391 31.0319L55.1057 25.1432L53.6623 19.654C53.6513 19.6124 53.6275 19.5754 53.5939 19.5485L49.8537 16.5759ZM19.8664 17.7604C18.707 17.7065 14.4416 17.7936 14.4416 17.7936C14.4416 17.7936 15.3301 19.434 15.6642 20.571C16.3601 22.9394 15.9021 24.5215 15.756 26.8913C15.7991 26.8571 21.4054 22.4056 21.383 21.2643C21.3605 20.1187 21.0255 17.8143 19.8664 17.7604ZM32.5607 26.7263L36.7512 26.1403L34.7121 20.1628L32.5607 26.7263ZM61.9904 17.7331C60.33 17.6704 58.453 17.733 57.7219 17.7722C57.6566 18.0855 57.6126 18.7193 57.9572 18.7507C58.3017 18.7823 58.7533 19.1352 59.1447 19.1745C59.5364 19.2137 60.0324 24.4694 60.0324 24.4694L63.7922 19.8083C63.8835 19.1424 63.6508 17.7958 61.9904 17.7331Z" fill="#F7C500"/>
<path d="M74.133 0.721375L74.2269 0.230267L74.2266 0.230219L74.133 0.721375ZM82.3781 2.29755L82.4725 1.80654L82.472 1.80644L82.3781 2.29755ZM82.8351 2.38544L83.3318 2.44331L83.3855 1.98212L82.9296 1.89443L82.8351 2.38544ZM82.7814 2.84637L83.2781 2.90429L83.2781 2.90425L82.7814 2.84637ZM80.5363 22.0974L80.0397 22.0394L79.9796 22.5544L80.4965 22.5958L80.5363 22.0974ZM83.0519 22.2985L83.0921 21.8001L83.0918 21.8001L83.0519 22.2985ZM83.5119 22.3356H84.0119V21.8743L83.5521 21.8373L83.5119 22.3356ZM83.5119 27.1774V27.6774H84.0119V27.1774H83.5119ZM80.9074 27.1774V26.6774H80.4657L80.4112 27.1158L80.9074 27.1774ZM79.8478 36.9538L79.3499 36.9087V36.9087L79.8478 36.9538ZM79.4826 41.9509L78.9832 41.9274V41.9274L79.4826 41.9509ZM79.5041 45.03L79.0104 45.1089L79.0104 45.1091L79.5041 45.03ZM79.5685 45.4323L79.7449 45.9002L80.1268 45.7562L80.0622 45.3532L79.5685 45.4323ZM79.1877 45.5759L79.0113 45.108L79.0103 45.1084L79.1877 45.5759ZM75.6711 46.9099L75.8482 47.3774L75.8484 47.3773L75.6711 46.9099ZM74.9982 47.1647L74.4982 47.1681L74.5031 47.887L75.1754 47.6323L74.9982 47.1647ZM74.9933 46.446L75.4933 46.4426V46.4426L74.9933 46.446ZM74.8752 29.1179L75.3752 29.1144L75.3718 28.6179H74.8752V29.1179ZM72.9807 29.1179V28.6179H72.4626L72.481 29.1355L72.9807 29.1179ZM73.4474 42.3024L73.9472 42.2853L73.9471 42.2847L73.4474 42.3024ZM73.4689 42.9284L73.3754 43.4196L73.9901 43.5367L73.9686 42.9113L73.4689 42.9284ZM72.8537 42.8112L72.7601 43.3024L72.7601 43.3024L72.8537 42.8112ZM67.7609 41.8405L67.8545 41.3494L67.854 41.3493L67.7609 41.8405ZM67.3693 41.7663L66.8697 41.7847L66.8843 42.1833L67.2762 42.2576L67.3693 41.7663ZM67.3547 41.3679L66.855 41.3862V41.3862L67.3547 41.3679ZM66.8693 28.1511H66.3693V28.1602L66.3697 28.1694L66.8693 28.1511ZM66.8693 28.1472H67.3693V28.1396L67.3691 28.132L66.8693 28.1472ZM66.7756 25.0544L67.2753 25.0392L67.239 23.8398L66.4129 24.7102L66.7756 25.0544ZM61.8195 30.2761L61.4569 29.9319L61.2977 30.0996L61.3224 30.3294L61.8195 30.2761ZM63.3596 44.6198L62.8624 44.6732L62.8624 44.6734L63.3596 44.6198ZM63.4172 45.154L63.4344 45.6537L63.972 45.6351L63.9143 45.1004L63.4172 45.154ZM62.8801 45.1725L62.8628 44.6728L62.8622 44.6729L62.8801 45.1725ZM60.2922 45.2653L60.3089 45.765L60.3101 45.765L60.2922 45.2653ZM60.0881 45.2722L59.7517 45.6421L59.9019 45.7787L60.1048 45.7719L60.0881 45.2722ZM59.9377 45.1354L59.6013 45.5054L59.6013 45.5054L59.9377 45.1354ZM57.4484 41.2429L57.9266 41.0967L57.7522 40.526L57.2208 40.7977L57.4484 41.2429ZM48.426 45.8552L48.1984 45.41L48.1982 45.4101L48.426 45.8552ZM47.8439 46.153L47.3547 46.2561L47.4895 46.8961L48.0717 46.5981L47.8439 46.153ZM47.7092 45.5134L47.2199 45.6163L47.2199 45.6164L47.7092 45.5134ZM44.84 31.8806L45.3293 31.7776L45.2414 31.3599L44.8151 31.3812L44.84 31.8806ZM43.9601 31.9245L43.9352 31.4251L43.3586 31.4539L43.4694 32.0205L43.9601 31.9245ZM46.3449 44.1149L45.8542 44.2109L45.8544 44.2118L46.3449 44.1149ZM46.4191 44.4909L46.6392 44.9399L46.984 44.7709L46.9097 44.3941L46.4191 44.4909ZM46.0744 44.6599L45.8544 44.2109L45.8542 44.211L46.0744 44.6599ZM41.176 47.0632L41.3961 47.5121L41.3962 47.5121L41.176 47.0632ZM40.6125 47.3395L40.1258 47.454L40.2694 48.0647L40.8327 47.7885L40.6125 47.3395ZM40.4689 46.7292L40.9557 46.6147L40.9556 46.6145L40.4689 46.7292ZM37.1574 32.6784L37.6441 32.5637L37.535 32.1008L37.0672 32.1866L37.1574 32.6784ZM32.3996 33.5515L32.3094 33.0597L31.9882 33.1186L31.913 33.4363L32.3996 33.5515ZM29.9807 43.7712L30.4671 43.887L30.4672 43.8863L29.9807 43.7712ZM29.8449 44.3415L29.6549 44.804L30.1959 45.0262L30.3313 44.4573L29.8449 44.3415ZM29.3029 44.1188L29.1089 44.5797L29.1129 44.5813L29.3029 44.1188ZM29.2844 44.111L29.4784 43.6502L27.9094 42.9896L28.872 44.3937L29.2844 44.111ZM30.5529 45.9616L30.1405 46.2443L30.1409 46.2449L30.5529 45.9616ZM30.8322 46.3679L31.1213 46.7758L31.5235 46.4908L31.2442 46.0846L30.8322 46.3679ZM30.4299 46.653L30.7184 47.0613L30.719 47.061L30.4299 46.653ZM25.0685 50.4421L24.78 50.0338L24.7796 50.034L25.0685 50.4421ZM24.6838 50.7145L24.2935 51.0271L24.5882 51.3949L24.9727 51.1226L24.6838 50.7145ZM24.3889 50.3464L23.9984 50.6587L23.9986 50.659L24.3889 50.3464ZM14.1144 37.5026L14.5049 37.1903L13.6871 36.168L13.6152 37.4751L14.1144 37.5026ZM13.0773 56.3474L12.5781 56.3199L12.5781 56.3205L13.0773 56.3474ZM13.051 56.8386L13.0311 57.3382L13.5238 57.3577L13.5502 56.8654L13.051 56.8386ZM12.5588 56.819L12.5786 56.3194L12.5779 56.3194L12.5588 56.819ZM10.1555 56.7272L10.1348 57.2268L10.1364 57.2269L10.1555 56.7272ZM9.99042 56.7204L9.67735 57.1103L9.8055 57.2132L9.96973 57.22L9.99042 56.7204ZM9.86151 56.6169L9.54766 57.0061L9.54844 57.0067L9.86151 56.6169ZM6.90643 54.2341L6.59195 54.6228L6.59258 54.6233L6.90643 54.2341ZM6.7121 54.0768L6.21241 54.0592L6.20361 54.3086L6.39761 54.4656L6.7121 54.0768ZM6.72089 53.8278L7.22058 53.8455L7.22061 53.8445L6.72089 53.8278ZM7.22772 38.6149L7.72745 38.6316L7.7332 38.4589L7.63116 38.3196L7.22772 38.6149ZM4.32635 34.652L4.72979 34.3567L4.72956 34.3564L4.32635 34.652ZM4.03632 34.2565L3.73377 33.8584L3.34245 34.1559L3.63311 34.5522L4.03632 34.2565ZM4.42694 33.9597L4.72948 34.3577L4.73003 34.3573L4.42694 33.9597ZM8.841 30.5954L9.14409 30.9931L9.34428 30.8405L9.34096 30.5888L8.841 30.5954ZM8.70721 20.4528L9.20717 20.4462L9.19836 19.7786L8.56021 19.9749L8.70721 20.4528ZM4.58319 21.7214L4.72976 22.1994L4.73019 22.1993L4.58319 21.7214ZM4.16913 21.8483L3.71685 22.0615L3.90153 22.4533L4.3157 22.3264L4.16913 21.8483ZM3.98456 21.4567L4.43684 21.2436L4.43674 21.2433L3.98456 21.4567ZM0.90741 14.9362L1.35959 14.7228L1.3593 14.7222L0.90741 14.9362ZM0.679871 14.4557L0.494807 13.9913L2.15173e-05 14.1884L0.227983 14.6698L0.679871 14.4557ZM1.17499 14.2585L0.990107 13.7939L0.989924 13.794L1.17499 14.2585ZM11.0666 10.322L10.8835 9.85667L10.8817 9.8574L11.0666 10.322ZM11.1262 10.2985L11.0641 9.80238L11.0017 9.81019L10.9431 9.83324L11.1262 10.2985ZM11.1887 10.2907L11.2507 10.7868L11.2515 10.7867L11.1887 10.2907ZM19.3283 9.90302L19.3453 9.4033H19.3452L19.3283 9.90302ZM23.6086 10.3581L23.7097 9.86843L23.7097 9.86843L23.6086 10.3581ZM26.8264 11.6472L27.1356 11.2543L27.1356 11.2543L26.8264 11.6472ZM28.5246 17.0104L29.0222 17.059L29.0222 17.059L28.5246 17.0104ZM27.0441 22.2673L26.5915 22.0548L26.5907 22.0565L27.0441 22.2673ZM27.0119 22.3366L27.381 22.6739L27.4329 22.6171L27.4653 22.5474L27.0119 22.3366ZM26.9601 22.3932L27.329 22.7308L27.3292 22.7305L26.9601 22.3932ZM19.2228 30.8464L18.854 30.5088L18.579 30.8092L18.8176 31.1393L19.2228 30.8464ZM23.8195 37.2057L23.4143 37.4987L23.995 38.302L24.2959 37.3575L23.8195 37.2057ZM25.09 33.2184L25.5664 33.3702L25.6262 33.1827L25.5421 33.0048L25.09 33.2184ZM23.2463 29.3171L23.6983 29.1034L23.6983 29.1034L23.2463 29.3171ZM22.9933 28.7819L22.8582 28.3005L22.2884 28.4605L22.5413 28.9956L22.9933 28.7819ZM23.5637 28.6218L23.4286 28.1403L23.4285 28.1404L23.5637 28.6218ZM26.9621 27.6686L27.0971 28.1501L27.4066 28.0633L27.4561 27.7456L26.9621 27.6686ZM30.8478 2.73016L31.3419 2.80714L31.3419 2.8071L30.8478 2.73016ZM30.9103 2.3288L30.8851 1.82944L30.4789 1.84999L30.4163 2.25186L30.9103 2.3288ZM31.3156 2.30829L31.3409 2.80765L31.3419 2.8076L31.3156 2.30829ZM38.9562 1.90594L38.9825 2.40525L38.9833 2.40521L38.9562 1.90594ZM39.4074 1.88153L39.9015 1.80493L39.8322 1.35781L39.3804 1.38226L39.4074 1.88153ZM39.4767 2.3288L39.9709 2.25234L39.9708 2.2522L39.4767 2.3288ZM42.8957 24.4235L42.4016 24.5L42.4674 24.9257L42.8982 24.9235L42.8957 24.4235ZM43.6779 24.4196L43.6804 24.9196L44.2552 24.9167L44.1727 24.3479L43.6779 24.4196ZM40.7287 4.07294L40.2338 4.14419L40.2339 4.14466L40.7287 4.07294ZM40.6389 3.44891L40.6822 2.9508L40.0541 2.89609L40.144 3.52017L40.6389 3.44891ZM41.2668 3.5036L41.2234 4.00172L41.2235 4.00173L41.2668 3.5036ZM48.2531 4.11005L48.2099 4.60817L48.2106 4.60824L48.2531 4.11005ZM48.6769 4.14618L49.1755 4.10836L49.1433 3.68413L48.7194 3.64799L48.6769 4.14618ZM48.7092 4.57098L49.2078 4.53378L49.2077 4.53316L48.7092 4.57098ZM49.2648 12.0182L48.7662 12.0555L48.8157 12.7188L49.4391 12.4869L49.2648 12.0182ZM55.9914 10.444L55.9327 9.94748L55.9327 9.94748L55.9914 10.444ZM65.2785 11.0388L65.1392 11.5189L65.9104 11.7428L65.7709 10.9519L65.2785 11.0388ZM64.3303 5.66473L63.8378 5.75125L63.8379 5.75162L64.3303 5.66473ZM64.2033 4.94208L64.3025 4.45202L63.584 4.30656L63.7108 5.02859L64.2033 4.94208ZM64.9221 5.08759L65.0216 4.5976L65.0213 4.59753L64.9221 5.08759ZM72.6828 6.66473L72.5832 7.15472L72.5839 7.15485L72.6828 6.66473ZM73.0988 6.74872L73.5985 6.76714L73.6141 6.34266L73.1978 6.25861L73.0988 6.74872ZM73.0832 7.17255L72.5835 7.15413L72.5835 7.15467L73.0832 7.17255ZM72.4953 23.6042L71.9956 23.5863L71.9761 24.1309L72.5204 24.1036L72.4953 23.6042ZM73.8947 23.5339L73.9198 24.0332L74.4024 24.009L74.3947 23.5259L73.8947 23.5339ZM73.5383 1.2204L73.0383 1.22835V1.22838L73.5383 1.2204ZM73.5285 0.60614L73.6221 0.114985L73.0188 -2.7895e-05L73.0286 0.614088L73.5285 0.60614ZM49.8537 16.5759L50.1648 16.1844L50.1642 16.184L49.8537 16.5759ZM49.5305 16.7497L49.0323 16.793L49.0324 16.7938L49.5305 16.7497ZM51.175 35.3073L50.6769 35.3514V35.3515L51.175 35.3073ZM51.4074 35.487L51.3259 34.9937L51.3259 34.9937L51.4074 35.487ZM57.1301 34.5417L57.2116 35.035L57.2116 35.035L57.1301 34.5417ZM57.2961 34.3171L57.7915 34.2494L57.7913 34.2484L57.2961 34.3171ZM56.8449 31.0612L56.3496 31.1298L56.3496 31.1298L56.8449 31.0612ZM56.8391 31.0319L57.3188 30.8912L57.3187 30.8907L56.8391 31.0319ZM55.1057 25.1432L54.6221 25.2704L54.6239 25.2774L54.626 25.2844L55.1057 25.1432ZM53.6623 19.654L54.1459 19.5268L54.1458 19.5268L53.6623 19.654ZM53.5939 19.5485L53.9059 19.1578L53.905 19.1571L53.5939 19.5485ZM19.8664 17.7604L19.8896 17.261H19.8896L19.8664 17.7604ZM14.4416 17.7936L14.4314 17.2937L13.6112 17.3105L14.0019 18.0318L14.4416 17.7936ZM15.6642 20.571L16.144 20.43L16.144 20.43L15.6642 20.571ZM15.756 26.8913L15.257 26.8605L15.188 27.9805L16.0669 27.2829L15.756 26.8913ZM21.383 21.2643L21.8829 21.2545V21.2545L21.383 21.2643ZM32.5607 26.7263L32.0856 26.5705L31.8358 27.3325L32.63 27.2214L32.5607 26.7263ZM36.7512 26.1403L36.8204 26.6355L37.4198 26.5517L37.2244 25.9789L36.7512 26.1403ZM34.7121 20.1628L35.1853 20.0014L34.7026 18.5864L34.237 20.007L34.7121 20.1628ZM61.9904 17.7331L62.0093 17.2334H62.0093L61.9904 17.7331ZM57.7219 17.7722L57.6951 17.2729L57.3108 17.2935L57.2324 17.6702L57.7219 17.7722ZM57.9572 18.7507L58.0029 18.2528L58.0025 18.2527L57.9572 18.7507ZM59.1447 19.1745L59.0948 19.672L59.095 19.672L59.1447 19.1745ZM60.0324 24.4694L59.5346 24.5164L59.6501 25.7398L60.4216 24.7833L60.0324 24.4694ZM63.7922 19.8083L64.1814 20.1222L64.2686 20.014L64.2875 19.8762L63.7922 19.8083ZM74.133 0.721375L74.0391 1.21248L82.2842 2.78865L82.3781 2.29755L82.472 1.80644L74.2269 0.230267L74.133 0.721375ZM82.3781 2.29755L82.2837 2.78855L82.7407 2.87644L82.8351 2.38544L82.9296 1.89443L82.4725 1.80654L82.3781 2.29755ZM82.8351 2.38544L82.3385 2.32757L82.2848 2.7885L82.7814 2.84637L83.2781 2.90425L83.3318 2.44331L82.8351 2.38544ZM82.7814 2.84637L82.2848 2.78846L80.0397 22.0394L80.5363 22.0974L81.033 22.1553L83.2781 2.90429L82.7814 2.84637ZM80.5363 22.0974L80.4965 22.5958L83.0121 22.7969L83.0519 22.2985L83.0918 21.8001L80.5762 21.5989L80.5363 22.0974ZM83.0519 22.2985L83.0117 22.7969L83.4717 22.834L83.5119 22.3356L83.5521 21.8373L83.0921 21.8001L83.0519 22.2985ZM83.5119 22.3356H83.0119V27.1774H83.5119H84.0119V22.3356H83.5119ZM83.5119 27.1774V26.6774H80.9074V27.1774V27.6774H83.5119V27.1774ZM80.9074 27.1774L80.4112 27.1158C80.0922 29.6849 79.663 33.448 79.3499 36.9087L79.8478 36.9538L80.3458 36.9989C80.6577 33.5524 81.0855 29.8009 81.4036 27.239L80.9074 27.1774ZM79.8478 36.9538L79.3499 36.9087C79.1842 38.74 79.0509 40.487 78.9832 41.9274L79.4826 41.9509L79.9821 41.9743C80.0488 40.5544 80.1807 38.8234 80.3458 36.9989L79.8478 36.9538ZM79.4826 41.9509L78.9832 41.9274C78.9155 43.3676 78.9134 44.5025 79.0104 45.1089L79.5041 45.03L79.9978 44.951C79.9197 44.4625 79.9137 43.4295 79.9821 41.9743L79.4826 41.9509ZM79.5041 45.03L79.0104 45.1091L79.0748 45.5114L79.5685 45.4323L80.0622 45.3532L79.9978 44.9509L79.5041 45.03ZM79.5685 45.4323L79.3922 44.9644L79.0113 45.108L79.1877 45.5759L79.364 46.0437L79.7449 45.9002L79.5685 45.4323ZM79.1877 45.5759L79.0103 45.1084L75.4937 46.4424L75.6711 46.9099L75.8484 47.3773L79.365 46.0434L79.1877 45.5759ZM75.6711 46.9099L75.494 46.4423L74.8211 46.6972L74.9982 47.1647L75.1754 47.6323L75.8482 47.3774L75.6711 46.9099ZM74.9982 47.1647L75.4982 47.1613L75.4933 46.4426L74.9933 46.446L74.4934 46.4494L74.4982 47.1681L74.9982 47.1647ZM74.9933 46.446L75.4933 46.4426L75.3752 29.1144L74.8752 29.1179L74.3752 29.1213L74.4934 46.4494L74.9933 46.446ZM74.8752 29.1179V28.6179H72.9807V29.1179V29.6179H74.8752V29.1179ZM72.9807 29.1179L72.481 29.1355L72.9478 42.3201L73.4474 42.3024L73.9471 42.2847L73.4803 29.1002L72.9807 29.1179ZM73.4474 42.3024L72.9477 42.3196L72.9692 42.9456L73.4689 42.9284L73.9686 42.9113L73.9472 42.2853L73.4474 42.3024ZM73.4689 42.9284L73.5625 42.4372L72.9473 42.32L72.8537 42.8112L72.7601 43.3024L73.3754 43.4196L73.4689 42.9284ZM72.8537 42.8112L72.9473 42.3201L67.8545 41.3494L67.7609 41.8405L67.6673 42.3317L72.7601 43.3024L72.8537 42.8112ZM67.7609 41.8405L67.854 41.3493L67.4624 41.275L67.3693 41.7663L67.2762 42.2576L67.6678 42.3318L67.7609 41.8405ZM67.3693 41.7663L67.869 41.7479L67.8543 41.3495L67.3547 41.3679L66.855 41.3862L66.8697 41.7847L67.3693 41.7663ZM67.3547 41.3679L67.8543 41.3495L67.369 28.1327L66.8693 28.1511L66.3697 28.1694L66.855 41.3862L67.3547 41.3679ZM66.8693 28.1511H67.3693V28.1472H66.8693H66.3693V28.1511H66.8693ZM66.8693 28.1472L67.3691 28.132L67.2753 25.0392L66.7756 25.0544L66.2758 25.0695L66.3696 28.1623L66.8693 28.1472ZM66.7756 25.0544L66.4129 24.7102L61.4569 29.9319L61.8195 30.2761L62.1822 30.6203L67.1382 25.3986L66.7756 25.0544ZM61.8195 30.2761L61.3224 30.3294L62.8624 44.6732L63.3596 44.6198L63.8567 44.5664L62.3167 30.2227L61.8195 30.2761ZM63.3596 44.6198L62.8624 44.6734L62.9201 45.2076L63.4172 45.154L63.9143 45.1004L63.8567 44.5662L63.3596 44.6198ZM63.4172 45.154L63.3999 44.6543L62.8628 44.6728L62.8801 45.1725L62.8973 45.6722L63.4344 45.6537L63.4172 45.154ZM62.8801 45.1725L62.8622 44.6729L60.2743 44.7656L60.2922 45.2653L60.3101 45.765L62.898 45.6722L62.8801 45.1725ZM60.2922 45.2653L60.2754 44.7656L60.0713 44.7724L60.0881 45.2722L60.1048 45.7719L60.3089 45.765L60.2922 45.2653ZM60.0881 45.2722L60.4244 44.9022L60.274 44.7655L59.9377 45.1354L59.6013 45.5054L59.7517 45.6421L60.0881 45.2722ZM59.9377 45.1354L60.274 44.7655C59.673 44.2191 58.4416 42.782 57.9266 41.0967L57.4484 41.2429L56.9703 41.389C57.5551 43.3026 58.9189 44.885 59.6013 45.5054L59.9377 45.1354ZM57.4484 41.2429L57.2208 40.7977L48.1984 45.41L48.426 45.8552L48.6536 46.3004L57.676 41.6881L57.4484 41.2429ZM48.426 45.8552L48.1982 45.4101L47.6162 45.7079L47.8439 46.153L48.0717 46.5981L48.6537 46.3003L48.426 45.8552ZM47.8439 46.153L48.3332 46.0499L48.1984 45.4103L47.7092 45.5134L47.2199 45.6164L47.3547 46.2561L47.8439 46.153ZM47.7092 45.5134L48.1984 45.4104L45.3293 31.7776L44.84 31.8806L44.3507 31.9835L47.2199 45.6163L47.7092 45.5134ZM44.84 31.8806L44.8151 31.3812L43.9352 31.4251L43.9601 31.9245L43.9851 32.4239L44.865 32.3799L44.84 31.8806ZM43.9601 31.9245L43.4694 32.0205L45.8542 44.2109L46.3449 44.1149L46.8356 44.0189L44.4508 31.8285L43.9601 31.9245ZM46.3449 44.1149L45.8544 44.2118L45.9286 44.5877L46.4191 44.4909L46.9097 44.3941L46.8354 44.0181L46.3449 44.1149ZM46.4191 44.4909L46.1991 44.0419L45.8544 44.2109L46.0744 44.6599L46.2944 45.1088L46.6392 44.9399L46.4191 44.4909ZM46.0744 44.6599L45.8542 44.211L40.9557 46.6143L41.176 47.0632L41.3962 47.5121L46.2946 45.1087L46.0744 44.6599ZM41.176 47.0632L40.9558 46.6143L40.3923 46.8906L40.6125 47.3395L40.8327 47.7885L41.3961 47.5121L41.176 47.0632ZM40.6125 47.3395L41.0992 47.2251L40.9557 46.6147L40.4689 46.7292L39.9822 46.8437L40.1258 47.454L40.6125 47.3395ZM40.4689 46.7292L40.9556 46.6145L37.6441 32.5637L37.1574 32.6784L36.6707 32.7931L39.9823 46.8439L40.4689 46.7292ZM37.1574 32.6784L37.0672 32.1866L32.3094 33.0597L32.3996 33.5515L32.4898 34.0432L37.2477 33.1702L37.1574 32.6784ZM32.3996 33.5515L31.913 33.4363L29.4941 43.656L29.9807 43.7712L30.4672 43.8863L32.8862 33.6666L32.3996 33.5515ZM29.9807 43.7712L29.4942 43.6554L29.3585 44.2257L29.8449 44.3415L30.3313 44.4573L30.4671 43.887L29.9807 43.7712ZM29.8449 44.3415L30.0349 43.879L29.4929 43.6563L29.3029 44.1188L29.1129 44.5813L29.6549 44.804L29.8449 44.3415ZM29.3029 44.1188L29.4969 43.658L29.4784 43.6502L29.2844 44.111L29.0903 44.5718L29.1089 44.5797L29.3029 44.1188ZM29.2844 44.111L28.872 44.3937L30.1405 46.2443L30.5529 45.9616L30.9653 45.6789L29.6968 43.8283L29.2844 44.111ZM30.5529 45.9616L30.1409 46.2449L30.4202 46.6511L30.8322 46.3679L31.2442 46.0846L30.9649 45.6783L30.5529 45.9616ZM30.8322 46.3679L30.5431 45.9599L30.1408 46.2451L30.4299 46.653L30.719 47.061L31.1213 46.7758L30.8322 46.3679ZM30.4299 46.653L30.1413 46.2447L24.78 50.0338L25.0685 50.4421L25.3571 50.8504L30.7184 47.0613L30.4299 46.653ZM25.0685 50.4421L24.7796 50.034L24.3948 50.3065L24.6838 50.7145L24.9727 51.1226L25.3575 50.8501L25.0685 50.4421ZM24.6838 50.7145L25.074 50.4019L24.7791 50.0338L24.3889 50.3464L23.9986 50.659L24.2935 51.0271L24.6838 50.7145ZM24.3889 50.3464L24.7793 50.034L14.5049 37.1903L14.1144 37.5026L13.724 37.815L23.9984 50.6587L24.3889 50.3464ZM14.1144 37.5026L13.6152 37.4751L12.5781 56.3199L13.0773 56.3474L13.5766 56.3748L14.6137 37.5301L14.1144 37.5026ZM13.0773 56.3474L12.5781 56.3205L12.5517 56.8118L13.051 56.8386L13.5502 56.8654L13.5766 56.3742L13.0773 56.3474ZM13.051 56.8386L13.0708 56.339L12.5786 56.3194L12.5588 56.819L12.539 57.3186L13.0311 57.3382L13.051 56.8386ZM12.5588 56.819L12.5779 56.3194L10.1745 56.2276L10.1555 56.7272L10.1364 57.2269L12.5397 57.3187L12.5588 56.819ZM10.1555 56.7272L10.1761 56.2277L10.0111 56.2208L9.99042 56.7204L9.96973 57.22L10.1348 57.2268L10.1555 56.7272ZM9.99042 56.7204L10.3035 56.3305L10.1746 56.227L9.86151 56.6169L9.54844 57.0067L9.67735 57.1103L9.99042 56.7204ZM9.86151 56.6169L10.1754 56.2277L7.22028 53.8448L6.90643 54.2341L6.59258 54.6233L9.54766 57.0061L9.86151 56.6169ZM6.90643 54.2341L7.22092 53.8454L7.02658 53.6881L6.7121 54.0768L6.39761 54.4656L6.59195 54.6228L6.90643 54.2341ZM6.7121 54.0768L7.21179 54.0945L7.22058 53.8455L6.72089 53.8278L6.2212 53.8102L6.21241 54.0592L6.7121 54.0768ZM6.72089 53.8278L7.22061 53.8445L7.72745 38.6316L7.22772 38.6149L6.728 38.5983L6.22116 53.8112L6.72089 53.8278ZM7.22772 38.6149L7.63116 38.3196L4.72979 34.3567L4.32635 34.652L3.92292 34.9474L6.82429 38.9103L7.22772 38.6149ZM4.32635 34.652L4.72956 34.3564L4.43952 33.9608L4.03632 34.2565L3.63311 34.5522L3.92315 34.9477L4.32635 34.652ZM4.03632 34.2565L4.33886 34.6546L4.72948 34.3577L4.42694 33.9597L4.1244 33.5616L3.73377 33.8584L4.03632 34.2565ZM4.42694 33.9597L4.73003 34.3573L9.14409 30.9931L8.841 30.5954L8.53792 30.1977L4.12385 33.562L4.42694 33.9597ZM8.841 30.5954L9.34096 30.5888L9.20717 20.4462L8.70721 20.4528L8.20726 20.4594L8.34105 30.602L8.841 30.5954ZM8.70721 20.4528L8.56021 19.9749L4.43619 21.2435L4.58319 21.7214L4.73019 22.1993L8.85422 20.9307L8.70721 20.4528ZM4.58319 21.7214L4.43662 21.2433L4.02256 21.3703L4.16913 21.8483L4.3157 22.3264L4.72976 22.1994L4.58319 21.7214ZM4.16913 21.8483L4.62141 21.6352L4.43684 21.2436L3.98456 21.4567L3.53228 21.6699L3.71685 22.0615L4.16913 21.8483ZM3.98456 21.4567L4.43674 21.2433L1.35959 14.7228L0.90741 14.9362L0.455232 15.1496L3.53238 21.6701L3.98456 21.4567ZM0.90741 14.9362L1.3593 14.7222L1.13176 14.2417L0.679871 14.4557L0.227983 14.6698L0.455522 15.1502L0.90741 14.9362ZM0.679871 14.4557L0.864934 14.9202L1.36005 14.723L1.17499 14.2585L0.989924 13.794L0.494807 13.9913L0.679871 14.4557ZM1.17499 14.2585L1.35987 14.723L11.2515 10.7865L11.0666 10.322L10.8817 9.8574L0.990107 13.7939L1.17499 14.2585ZM11.0666 10.322L11.2497 10.7872L11.3092 10.7638L11.1262 10.2985L10.9431 9.83324L10.8835 9.85668L11.0666 10.322ZM11.1262 10.2985L11.1882 10.7947L11.2507 10.7868L11.1887 10.2907L11.1266 9.79457L11.0641 9.80238L11.1262 10.2985ZM11.1887 10.2907L11.2515 10.7867C13.2147 10.5381 16.3346 10.3018 19.3114 10.4027L19.3283 9.90302L19.3452 9.4033C16.3034 9.30021 13.1288 9.54096 11.1258 9.79467L11.1887 10.2907ZM19.3283 9.90302L19.3114 10.4027C20.7994 10.4532 22.2523 10.5885 23.5074 10.8478L23.6086 10.3581L23.7097 9.86843C22.3797 9.59372 20.8658 9.45486 19.3453 9.4033L19.3283 9.90302ZM23.6086 10.3581L23.5074 10.8478C24.7624 11.107 25.8197 11.491 26.5171 12.04L26.8264 11.6472L27.1356 11.2543C26.2557 10.5616 25.0166 10.1384 23.7097 9.86843L23.6086 10.3581ZM26.8264 11.6472L26.5171 12.04C27.9114 13.1377 28.2149 15.035 28.027 16.9619L28.5246 17.0104L29.0222 17.059C29.2192 15.0388 28.9467 12.68 27.1356 11.2543L26.8264 11.6472ZM28.5246 17.0104L28.027 16.9619C27.839 18.888 27.1602 20.843 26.5915 22.0548L27.0441 22.2673L27.4968 22.4797C28.0996 21.1952 28.8204 19.1281 29.0222 17.059L28.5246 17.0104ZM27.0441 22.2673L26.5907 22.0565L26.5585 22.1259L27.0119 22.3366L27.4653 22.5474L27.4975 22.478L27.0441 22.2673ZM27.0119 22.3366L26.6428 21.9993L26.591 22.056L26.9601 22.3932L27.3292 22.7305L27.381 22.6739L27.0119 22.3366ZM26.9601 22.3932L26.5913 22.0557L18.854 30.5088L19.2228 30.8464L19.5917 31.184L27.329 22.7308L26.9601 22.3932ZM19.2228 30.8464L18.8176 31.1393L23.4143 37.4987L23.8195 37.2057L24.2247 36.9128L19.6281 30.5535L19.2228 30.8464ZM23.8195 37.2057L24.2959 37.3575L25.5664 33.3702L25.09 33.2184L24.6136 33.0666L23.3431 37.054L23.8195 37.2057ZM25.09 33.2184L25.5421 33.0048L23.6983 29.1034L23.2463 29.3171L22.7942 29.5307L24.638 33.4321L25.09 33.2184ZM23.2463 29.3171L23.6983 29.1034L23.4454 28.5683L22.9933 28.7819L22.5413 28.9956L22.7942 29.5307L23.2463 29.3171ZM22.9933 28.7819L23.1285 29.2633L23.6988 29.1031L23.5637 28.6218L23.4285 28.1404L22.8582 28.3005L22.9933 28.7819ZM23.5637 28.6218L23.6987 29.1032L27.0971 28.1501L26.9621 27.6686L26.8271 27.1872L23.4286 28.1403L23.5637 28.6218ZM26.9621 27.6686L27.4561 27.7456L31.3419 2.80714L30.8478 2.73016L30.3538 2.65319L26.4681 27.5917L26.9621 27.6686ZM30.8478 2.73016L31.3419 2.8071L31.4044 2.40573L30.9103 2.3288L30.4163 2.25186L30.3538 2.65323L30.8478 2.73016ZM30.9103 2.3288L30.9356 2.82816L31.3409 2.80765L31.3156 2.30829L31.2903 1.80893L30.8851 1.82944L30.9103 2.3288ZM31.3156 2.30829L31.3419 2.8076L38.9825 2.40525L38.9562 1.90594L38.9299 1.40664L31.2893 1.80898L31.3156 2.30829ZM38.9562 1.90594L38.9833 2.40521L39.4344 2.3808L39.4074 1.88153L39.3804 1.38226L38.9292 1.40668L38.9562 1.90594ZM39.4074 1.88153L38.9133 1.95813L38.9826 2.40539L39.4767 2.3288L39.9708 2.2522L39.9015 1.80493L39.4074 1.88153ZM39.4767 2.3288L38.9826 2.40526L42.4016 24.5L42.8957 24.4235L43.3898 24.3471L39.9709 2.25234L39.4767 2.3288ZM42.8957 24.4235L42.8982 24.9235L43.6804 24.9196L43.6779 24.4196L43.6754 23.9196L42.8932 23.9235L42.8957 24.4235ZM43.6779 24.4196L44.1727 24.3479L41.2235 4.00121L40.7287 4.07294L40.2339 4.14466L43.1831 24.4913L43.6779 24.4196ZM40.7287 4.07294L41.2236 4.00168L41.1338 3.37766L40.6389 3.44891L40.144 3.52017L40.2338 4.14419L40.7287 4.07294ZM40.6389 3.44891L40.5955 3.94703L41.2234 4.00172L41.2668 3.5036L41.3102 3.00549L40.6822 2.9508L40.6389 3.44891ZM41.2668 3.5036L41.2235 4.00173L48.2099 4.60817L48.2531 4.11005L48.2964 3.61192L41.31 3.00547L41.2668 3.5036ZM48.2531 4.11005L48.2106 4.60824L48.6345 4.64437L48.6769 4.14618L48.7194 3.64799L48.2956 3.61185L48.2531 4.11005ZM48.6769 4.14618L48.1784 4.184L48.2106 4.60881L48.7092 4.57098L49.2077 4.53316L49.1755 4.10836L48.6769 4.14618ZM48.7092 4.57098L48.2106 4.60819L48.7662 12.0555L49.2648 12.0182L49.7634 11.981L49.2078 4.53378L48.7092 4.57098ZM49.2648 12.0182L49.4391 12.4869C50.9936 11.9087 53.3563 11.2588 56.05 10.9406L55.9914 10.444L55.9327 9.94748C53.1558 10.2755 50.7155 10.9452 49.0905 11.5496L49.2648 12.0182ZM55.9914 10.444L56.05 10.9406C58.8927 10.6048 62.1091 10.6397 65.1392 11.5189L65.2785 11.0388L65.4178 10.5586C62.2201 9.63064 58.8606 9.60168 55.9327 9.94748L55.9914 10.444ZM65.2785 11.0388L65.7709 10.9519L64.8227 5.57785L64.3303 5.66473L63.8379 5.75162L64.7861 11.1256L65.2785 11.0388ZM64.3303 5.66473L64.8227 5.57822L64.6958 4.85556L64.2033 4.94208L63.7108 5.02859L63.8378 5.75125L64.3303 5.66473ZM64.2033 4.94208L64.1041 5.43214L64.8228 5.57764L64.9221 5.08759L65.0213 4.59753L64.3025 4.45202L64.2033 4.94208ZM64.9221 5.08759L64.8225 5.57757L72.5832 7.15472L72.6828 6.66473L72.7824 6.17475L65.0216 4.5976L64.9221 5.08759ZM72.6828 6.66473L72.5839 7.15485L72.9999 7.23883L73.0988 6.74872L73.1978 6.25861L72.7817 6.17462L72.6828 6.66473ZM73.0988 6.74872L72.5992 6.7303L72.5835 7.15413L73.0832 7.17255L73.5829 7.19097L73.5985 6.76714L73.0988 6.74872ZM73.0832 7.17255L72.5835 7.15467L71.9956 23.5863L72.4953 23.6042L72.995 23.6221L73.5829 7.19042L73.0832 7.17255ZM72.4953 23.6042L72.5204 24.1036L73.9198 24.0332L73.8947 23.5339L73.8696 23.0345L72.4702 23.1048L72.4953 23.6042ZM73.8947 23.5339L74.3947 23.5259L74.0382 1.21241L73.5383 1.2204L73.0383 1.22838L73.3948 23.5419L73.8947 23.5339ZM73.5383 1.2204L74.0382 1.21245L74.0284 0.598192L73.5285 0.60614L73.0286 0.614088L73.0383 1.22835L73.5383 1.2204ZM73.5285 0.60614L73.4349 1.0973L74.0394 1.21253L74.133 0.721375L74.2266 0.230219L73.6221 0.114985L73.5285 0.60614ZM49.8537 16.5759L50.1642 16.184C49.6835 15.803 48.9791 16.1807 49.0323 16.793L49.5305 16.7497L50.0286 16.7064C50.0514 16.9692 49.749 17.1308 49.5432 16.9678L49.8537 16.5759ZM49.5305 16.7497L49.0324 16.7938L50.6769 35.3514L51.175 35.3073L51.673 35.2632L50.0285 16.7056L49.5305 16.7497ZM51.175 35.3073L50.6769 35.3515C50.7131 35.7588 51.0886 36.0465 51.4889 35.9803L51.4074 35.487L51.3259 34.9937C51.4966 34.9655 51.6575 35.0877 51.673 35.2632L51.175 35.3073ZM51.4074 35.487L51.4889 35.9803L57.2116 35.035L57.1301 34.5417L57.0486 34.0484L51.3259 34.9937L51.4074 35.487ZM57.1301 34.5417L57.2116 35.035C57.5844 34.9734 57.8429 34.6259 57.7915 34.2494L57.2961 34.3171L56.8007 34.3848C56.7785 34.2228 56.8894 34.0747 57.0486 34.0484L57.1301 34.5417ZM57.2961 34.3171L57.7913 34.2484L57.3402 30.9926L56.8449 31.0612L56.3496 31.1298L56.8008 34.3857L57.2961 34.3171ZM56.8449 31.0612L57.3402 30.9926C57.3377 30.9744 57.3319 30.9358 57.3188 30.8912L56.8391 31.0319L56.3593 31.1727C56.3552 31.1587 56.3528 31.1477 56.3516 31.1411C56.3503 31.1345 56.3497 31.1302 56.3496 31.1298L56.8449 31.0612ZM56.8391 31.0319L57.3187 30.8907L55.5853 25.0021L55.1057 25.1432L54.626 25.2844L56.3594 31.1731L56.8391 31.0319ZM55.1057 25.1432L55.5892 25.0161L54.1459 19.5268L53.6623 19.654L53.1787 19.7811L54.6221 25.2704L55.1057 25.1432ZM53.6623 19.654L54.1458 19.5268C54.1081 19.3832 54.0252 19.253 53.9059 19.1578L53.5939 19.5485L53.2819 19.9392C53.2299 19.8977 53.1946 19.8416 53.1787 19.7812L53.6623 19.654ZM53.5939 19.5485L53.905 19.1571L50.1648 16.1844L49.8537 16.5759L49.5426 16.9673L53.2828 19.94L53.5939 19.5485ZM19.8664 17.7604L19.8896 17.261C19.2918 17.2332 17.9184 17.2419 16.713 17.2569C16.1063 17.2644 15.536 17.2736 15.1174 17.281C14.9081 17.2846 14.7367 17.2878 14.6176 17.2901C14.558 17.2912 14.5115 17.2921 14.4799 17.2928C14.4641 17.2931 14.452 17.2933 14.4438 17.2935C14.4397 17.2936 14.4366 17.2936 14.4346 17.2937C14.4335 17.2937 14.4327 17.2937 14.4322 17.2937C14.4319 17.2937 14.4317 17.2937 14.4316 17.2937C14.4315 17.2937 14.4315 17.2937 14.4314 17.2937C14.4314 17.2937 14.4314 17.2937 14.4416 17.7936C14.4518 18.2935 14.4518 18.2935 14.4518 18.2935C14.4519 18.2935 14.4519 18.2935 14.452 18.2935C14.4521 18.2935 14.4523 18.2935 14.4525 18.2935C14.453 18.2935 14.4538 18.2935 14.4548 18.2935C14.4569 18.2934 14.4599 18.2934 14.4639 18.2933C14.472 18.2931 14.484 18.2929 14.4997 18.2926C14.5311 18.292 14.5774 18.291 14.6367 18.2899C14.7554 18.2876 14.9262 18.2845 15.1349 18.2808C15.5524 18.2735 16.1209 18.2643 16.7254 18.2568C17.9426 18.2417 19.2816 18.2338 19.8432 18.2599L19.8664 17.7604ZM14.4416 17.7936C14.0019 18.0318 14.0019 18.0318 14.0019 18.0317C14.0019 18.0318 14.0019 18.0317 14.0019 18.0317C14.0019 18.0318 14.002 18.0318 14.002 18.0319C14.002 18.032 14.0022 18.0322 14.0023 18.0325C14.0027 18.0332 14.0032 18.0342 14.004 18.0356C14.0055 18.0384 14.0079 18.0428 14.011 18.0486C14.0172 18.0602 14.0265 18.0777 14.0386 18.1005C14.0628 18.1461 14.098 18.213 14.1413 18.297C14.2281 18.4651 14.3472 18.701 14.4765 18.9715C14.7383 19.5194 15.0293 20.1838 15.1845 20.7119L15.6642 20.571L16.144 20.43C15.9651 19.8212 15.6447 19.0969 15.3788 18.5404C15.2441 18.2586 15.1203 18.0134 15.03 17.8384C14.9848 17.7509 14.9479 17.6807 14.9222 17.6322C14.9093 17.6079 14.8993 17.5891 14.8923 17.5761C14.8888 17.5696 14.8862 17.5646 14.8843 17.5612C14.8834 17.5594 14.8826 17.5581 14.8821 17.5571C14.8819 17.5567 14.8817 17.5563 14.8815 17.556C14.8814 17.5559 14.8814 17.5558 14.8813 17.5557C14.8813 17.5556 14.8813 17.5556 14.8813 17.5556C14.8813 17.5555 14.8812 17.5555 14.4416 17.7936ZM15.6642 20.571L15.1845 20.7119C15.8476 22.9685 15.409 24.3939 15.257 26.8605L15.756 26.8913L16.2551 26.922C16.3951 24.6492 16.8727 22.9102 16.144 20.43L15.6642 20.571ZM15.756 26.8913L16.0669 27.2829C16.0906 27.2641 17.5124 26.1352 18.928 24.8651C19.6344 24.2313 20.3496 23.5532 20.8901 22.9556C21.1595 22.6578 21.3961 22.3683 21.5677 22.1063C21.6536 21.9751 21.7298 21.8409 21.7853 21.7081C21.8388 21.58 21.8862 21.4228 21.8829 21.2545L21.383 21.2643L20.8831 21.2741C20.8826 21.2486 20.8888 21.2599 20.8627 21.3224C20.8385 21.3802 20.7964 21.4587 20.7311 21.5585C20.6002 21.7585 20.4022 22.0043 20.1485 22.2848C19.6428 22.8439 18.9578 23.4948 18.2601 24.1208C16.8674 25.3704 15.4645 26.4843 15.4452 26.4996L15.756 26.8913ZM21.383 21.2643L21.8829 21.2545C21.8711 20.6522 21.7782 19.7381 21.5273 18.9511C21.4023 18.559 21.2277 18.1649 20.9784 17.8557C20.7236 17.5397 20.3637 17.283 19.8896 17.261L19.8664 17.7604L19.8432 18.2599C19.9486 18.2648 20.0653 18.3164 20.2 18.4834C20.3402 18.6573 20.4681 18.9209 20.5745 19.2548C20.7866 19.9199 20.8724 20.7308 20.8831 21.2742L21.383 21.2643ZM32.5607 26.7263L32.63 27.2214L36.8204 26.6355L36.7512 26.1403L36.6819 25.6451L32.4915 26.2311L32.5607 26.7263ZM36.7512 26.1403L37.2244 25.9789L35.1853 20.0014L34.7121 20.1628L34.2389 20.3242L36.2779 26.3017L36.7512 26.1403ZM34.7121 20.1628L34.237 20.007L32.0856 26.5705L32.5607 26.7263L33.0359 26.882L35.1872 20.3185L34.7121 20.1628ZM61.9904 17.7331L62.0093 17.2334C60.3284 17.17 58.4351 17.2332 57.6951 17.2729L57.7219 17.7722L57.7486 18.2714C58.4708 18.2328 60.3315 18.1709 61.9716 18.2327L61.9904 17.7331ZM57.7219 17.7722L57.2324 17.6702C57.1936 17.8563 57.1567 18.1514 57.1893 18.4261C57.2054 18.5614 57.2432 18.737 57.3429 18.8952C57.4549 19.0729 57.6457 19.2244 57.9119 19.2486L57.9572 18.7507L58.0025 18.2527C58.0389 18.256 58.0817 18.2692 58.1214 18.2955C58.1591 18.3204 58.1799 18.3477 58.1889 18.362C58.202 18.3828 58.1902 18.3745 58.1824 18.3083C58.1671 18.1799 58.1848 18.0014 58.2114 17.8741L57.7219 17.7722ZM57.9572 18.7507L57.9116 19.2486C57.9748 19.2544 58.0813 19.2988 58.3193 19.4115C58.5044 19.4993 58.7966 19.6421 59.0948 19.672L59.1447 19.1745L59.1947 18.677C59.1014 18.6676 58.9721 18.6143 58.7475 18.5079C58.5757 18.4264 58.2841 18.2785 58.0029 18.2528L57.9572 18.7507ZM59.1447 19.1745L59.095 19.672C58.9675 19.6593 58.8846 19.5982 58.8487 19.5661C58.8125 19.5338 58.7958 19.5063 58.794 19.5035C58.7906 19.4979 58.8018 19.5162 58.8228 19.5768C58.8629 19.6925 58.9092 19.8752 58.9587 20.1182C59.0567 20.5986 59.1536 21.2451 59.2397 21.9017C59.3254 22.5557 59.3992 23.2096 59.4516 23.7006C59.4778 23.946 59.4986 24.1503 59.5128 24.2931C59.5199 24.3645 59.5254 24.4205 59.5291 24.4586C59.5309 24.4776 59.5323 24.4922 59.5332 24.5019C59.5337 24.5068 59.5341 24.5105 59.5343 24.5129C59.5344 24.5141 59.5345 24.515 59.5345 24.5156C59.5346 24.5159 59.5346 24.5161 59.5346 24.5162C59.5346 24.5163 59.5346 24.5163 59.5346 24.5164C59.5346 24.5164 59.5346 24.5164 60.0324 24.4694C60.5302 24.4224 60.5302 24.4224 60.5302 24.4223C60.5302 24.4223 60.5302 24.4222 60.5302 24.4221C60.5302 24.4219 60.5301 24.4217 60.5301 24.4213C60.53 24.4207 60.5299 24.4197 60.5298 24.4183C60.5296 24.4157 60.5292 24.4118 60.5287 24.4068C60.5277 24.3966 60.5263 24.3817 60.5244 24.3622C60.5206 24.3233 60.5151 24.2663 60.5079 24.1939C60.4934 24.0492 60.4724 23.8426 60.446 23.5946C60.3931 23.099 60.3184 22.4365 60.2312 21.7716C60.1443 21.1094 60.0438 20.4345 59.9386 19.9185C59.8865 19.6633 59.8298 19.4289 59.7678 19.2497C59.7377 19.1629 59.6982 19.0642 59.6444 18.9774C59.6175 18.9339 59.5758 18.8747 59.5147 18.8202C59.454 18.7659 59.3464 18.6922 59.1945 18.677L59.1447 19.1745ZM60.0324 24.4694L60.4216 24.7833L64.1814 20.1222L63.7922 19.8083L63.403 19.4944L59.6432 24.1555L60.0324 24.4694ZM63.7922 19.8083L64.2875 19.8762C64.3442 19.4633 64.3048 18.8386 63.978 18.289C63.631 17.7053 62.9969 17.2707 62.0093 17.2334L61.9904 17.7331L61.9716 18.2327C62.6444 18.2581 62.9568 18.5282 63.1184 18.8C63.3002 19.1058 63.3315 19.4874 63.2968 19.7403L63.7922 19.8083Z" fill="black"/>
<path d="M91.277 14.5263C93.16 13.8407 94.2374 13.9701 96.4059 14.3622C97.6293 14.5835 98.4805 15.1663 98.9049 16.3349C99.213 17.1838 98.7846 18.5936 98.7165 18.8066C98.7105 18.8254 98.703 18.8404 98.6916 18.8565C98.4334 19.2205 95.1796 23.8459 95.3209 25.5077C95.4683 27.238 97.4165 30.5966 98.0826 28.9931C98.2809 28.5156 98.228 27.7447 98.199 27.4569C98.1919 27.3863 98.1462 27.327 98.082 27.297C97.8206 27.1749 97.1409 26.8257 96.8902 26.3896C96.5932 25.8728 96.7444 24.9658 96.8199 24.6112C96.8387 24.5233 96.9166 24.4627 97.0065 24.4618L103.602 24.411C103.713 24.4102 103.803 24.4989 103.804 24.6093L103.819 26.9572C103.82 27.0827 103.707 27.1795 103.582 27.1638C103.081 27.1008 101.914 27.0148 101.3 27.4696C100.558 28.0203 100.483 28.7075 100.293 29.6122C100.16 30.2429 100.228 31.2063 100.25 31.4695C100.254 31.5143 100.273 31.5556 100.305 31.588L104.135 35.5556C104.211 35.6337 104.21 35.7576 104.133 35.8349L100.66 39.3527C100.619 39.3935 100.563 39.4151 100.506 39.4119L99.476 39.3541C99.4241 39.3512 99.3754 39.3282 99.3402 39.2899L97.3517 37.1329C97.2691 37.0432 97.1268 37.0458 97.0474 37.1383C96.4849 37.7942 94.4095 40.0908 92.4938 40.6317C90.8006 41.1095 89.6535 41.1357 87.9889 40.5663C86.3983 40.0222 84.5655 38.0486 84.3865 37.853C84.3765 37.8421 84.369 37.8313 84.3618 37.8183C84.2945 37.6966 83.9321 37.0314 83.7809 36.5556C83.3737 35.2735 83.806 33.1761 83.8715 32.876C83.8769 32.8511 83.8869 32.829 83.9014 32.8081L88.2092 26.6029C88.255 26.5369 88.2575 26.4509 88.2157 26.3823C87.9417 25.9335 86.9335 24.2266 86.6412 22.9433C86.2791 21.3533 86.1184 20.3121 86.6412 18.7675C87.428 16.4434 88.9713 15.3658 91.277 14.5263ZM91.2828 29.9755C91.2575 29.843 91.1118 29.7744 90.9967 29.8446C90.4927 30.1532 89.3366 30.9446 89.1139 31.8261C88.9277 32.5631 88.8991 33.1142 89.2926 33.7646C89.5838 34.2456 89.8394 34.6174 90.3971 34.6894C91.1707 34.7887 91.7352 33.3563 91.8404 33.0688C91.8523 33.0364 91.8547 33.0016 91.8482 32.9677L91.2828 29.9755ZM91.859 18.6591C91.0844 18.5594 90.5189 19.9957 90.4145 20.2811C90.4026 20.3134 90.4004 20.3477 90.4068 20.3815L90.9733 23.373C90.9984 23.5057 91.1441 23.5744 91.2594 23.5038C91.7634 23.1952 92.9193 22.4046 93.1422 21.5234C93.3285 20.7861 93.3563 20.2345 92.9625 19.5839C92.6713 19.1029 92.4166 18.731 91.859 18.6591Z" fill="#F7C500"/>
<path d="M91.277 14.5263L91.1059 14.0565L91.1059 14.0565L91.277 14.5263ZM96.4059 14.3622L96.4948 13.8702V13.8702L96.4059 14.3622ZM98.9049 16.3349L99.3749 16.1643L99.3749 16.1642L98.9049 16.3349ZM95.3209 25.5077L94.8227 25.5501L94.8227 25.5502L95.3209 25.5077ZM98.0826 28.9931L98.5444 29.1849L98.5444 29.1849L98.0826 28.9931ZM96.8902 26.3896L96.4568 26.6387L96.4568 26.6388L96.8902 26.3896ZM96.8199 24.6112L96.331 24.5067L96.3309 24.507L96.8199 24.6112ZM97.0065 24.4618L97.0026 23.9618L97.0016 23.9619L97.0065 24.4618ZM103.602 24.411L103.606 24.911H103.606L103.602 24.411ZM103.804 24.6093L104.304 24.6061L104.304 24.6051L103.804 24.6093ZM101.3 27.4696L101.003 27.068L101.003 27.068L101.3 27.4696ZM100.293 29.6122L99.8033 29.5093L99.8033 29.5094L100.293 29.6122ZM104.135 35.5556L104.495 35.2084L104.495 35.2083L104.135 35.5556ZM104.133 35.8349L104.489 36.1862L104.489 36.1862L104.133 35.8349ZM92.4938 40.6317L92.6296 41.113L92.6296 41.1129L92.4938 40.6317ZM87.9889 40.5663L87.827 41.0394L87.8271 41.0394L87.9889 40.5663ZM83.7809 36.5556L83.3043 36.7069L83.3043 36.707L83.7809 36.5556ZM86.6412 22.9433L86.1537 23.0543L86.1537 23.0543L86.6412 22.9433ZM86.6412 18.7675L86.1676 18.6072L86.1676 18.6072L86.6412 18.7675ZM91.2828 29.9755L91.7741 29.8827L91.7739 29.8816L91.2828 29.9755ZM90.9967 29.8446L90.7363 29.4178L90.7356 29.4182L90.9967 29.8446ZM89.1139 31.8261L88.6291 31.7036L88.6291 31.7036L89.1139 31.8261ZM89.2926 33.7646L88.8648 34.0234L88.8648 34.0235L89.2926 33.7646ZM90.3971 34.6894L90.3331 35.1853L90.3334 35.1853L90.3971 34.6894ZM91.859 18.6591L91.923 18.1632L91.9229 18.1632L91.859 18.6591ZM90.9733 23.373L90.482 23.466L90.482 23.4662L90.9733 23.373ZM91.2594 23.5038L91.5205 23.9302L91.5205 23.9302L91.2594 23.5038ZM93.1422 21.5234L93.6269 21.646L93.627 21.6458L93.1422 21.5234ZM92.9625 19.5839L93.3902 19.325L93.3902 19.325L92.9625 19.5839ZM90.4145 20.2811L90.884 20.4529L90.4145 20.2811ZM90.4068 20.3815L89.9156 20.4746L90.4068 20.3815ZM97.3517 37.1329L96.9841 37.4718L97.3517 37.1329ZM97.0474 37.1383L97.4269 37.4639L97.0474 37.1383ZM99.476 39.3541L99.448 39.8533L99.476 39.3541ZM99.3402 39.2899L98.9726 39.6288L99.3402 39.2899ZM98.7165 18.8066L98.2403 18.6543L98.7165 18.8066ZM98.6916 18.8565L98.2837 18.5672L98.6916 18.8565ZM88.2092 26.6029L87.7985 26.3178L88.2092 26.6029ZM88.2157 26.3823L87.7889 26.6429L88.2157 26.3823ZM100.25 31.4695L100.749 31.4274L100.25 31.4695ZM100.305 31.588L100.664 31.2407L100.305 31.588ZM91.8404 33.0688L91.3709 32.897L91.8404 33.0688ZM91.8482 32.9677L91.3569 33.0606L91.8482 32.9677ZM84.3865 37.853L84.0176 38.1905L84.3865 37.853ZM84.3618 37.8183L83.9242 38.0602L84.3618 37.8183ZM103.819 26.9572L104.319 26.954L103.819 26.9572ZM103.582 27.1638L103.645 26.6677L103.582 27.1638ZM98.199 27.4569L97.7015 27.5069L98.199 27.4569ZM98.082 27.297L97.8704 27.75V27.75L98.082 27.297ZM100.66 39.3527L101.015 39.704L100.66 39.3527ZM100.506 39.4118L100.478 39.9111L100.506 39.4118ZM83.8715 32.876L84.36 32.9825L83.8715 32.876ZM83.9014 32.8081L84.3122 33.0933L83.9014 32.8081ZM91.277 14.5263L91.448 14.9961C92.3461 14.6691 93.0289 14.544 93.7372 14.5401C94.4602 14.536 95.2285 14.6574 96.3169 14.8542L96.4059 14.3622L96.4948 13.8702C95.4148 13.6749 94.5601 13.5355 93.7316 13.5401C92.8882 13.5448 92.0909 13.6978 91.1059 14.0565L91.277 14.5263ZM96.4059 14.3622L96.3169 14.8542C96.8743 14.955 97.3125 15.1321 97.6518 15.3908C97.9866 15.6463 98.2519 16.0017 98.4349 16.5056L98.9049 16.3349L99.3749 16.1642C99.1334 15.4995 98.7609 14.9792 98.2583 14.5957C97.7599 14.2156 97.1609 13.9907 96.4948 13.8702L96.4059 14.3622ZM98.9049 16.3349L98.4349 16.5055C98.5431 16.8035 98.5328 17.2602 98.458 17.7307C98.3865 18.1808 98.2705 18.5597 98.2403 18.6543L98.7165 18.8066L99.1928 18.9589C99.2306 18.8405 99.3629 18.408 99.4456 17.8877C99.525 17.3879 99.5749 16.7152 99.3749 16.1643L98.9049 16.3349ZM98.6916 18.8565L98.2837 18.5672C98.1517 18.7534 97.2641 20.0143 96.4253 21.4421C96.0064 22.1552 95.5932 22.9208 95.2923 23.6212C95.0027 24.2951 94.7758 24.9985 94.8227 25.5501L95.3209 25.5077L95.8191 25.4654C95.7954 25.186 95.9222 24.6881 96.211 24.016C96.4885 23.3703 96.8784 22.6452 97.2875 21.9487C98.1049 20.5574 98.9733 19.3236 99.0994 19.1457L98.6916 18.8565ZM95.3209 25.5077L94.8227 25.5502C94.9058 26.5257 95.4731 27.8799 96.0953 28.784C96.3969 29.2223 96.7767 29.6536 97.198 29.8297C97.4301 29.9266 97.7188 29.9627 98.0011 29.8225C98.2683 29.6898 98.4366 29.4443 98.5444 29.1849L98.0826 28.9931L97.6209 28.8013C97.5621 28.9427 97.5238 28.943 97.5564 28.9268C97.6041 28.9032 97.6301 28.9264 97.5835 28.907C97.4476 28.8502 97.2063 28.6344 96.9191 28.2171C96.3639 27.4103 95.8834 26.22 95.8191 25.4653L95.3209 25.5077ZM98.0826 28.9931L98.5444 29.1849C98.6793 28.86 98.7174 28.4738 98.7259 28.1676C98.7346 27.8502 98.7122 27.5624 98.6965 27.4069L98.199 27.4569L97.7015 27.5069C97.7148 27.6391 97.7334 27.8808 97.7262 28.1401C97.7188 28.4108 97.6843 28.6487 97.6209 28.8013L98.0826 28.9931ZM98.082 27.297L98.2936 26.844C98.1752 26.7887 97.9653 26.6832 97.7609 26.546C97.5445 26.4007 97.3905 26.2566 97.3237 26.1404L96.8902 26.3896L96.4568 26.6388C96.6407 26.9587 96.9518 27.2072 97.2034 27.3761C97.4668 27.5531 97.7274 27.6832 97.8704 27.75L98.082 27.297ZM96.8902 26.3896L97.3237 26.1404C97.2463 26.0057 97.2058 25.7657 97.2151 25.4546C97.224 25.1608 97.2743 24.8779 97.3089 24.7155L96.8199 24.6112L96.3309 24.507C96.29 24.6991 96.227 25.047 96.2156 25.4245C96.2047 25.7848 96.2371 26.2566 96.4568 26.6387L96.8902 26.3896ZM96.8199 24.6112L97.3089 24.7158C97.2763 24.8679 97.1438 24.9605 97.0113 24.9618L97.0065 24.4618L97.0016 23.9619C96.6893 23.9649 96.4011 24.1788 96.331 24.5067L96.8199 24.6112ZM97.0065 24.4618L97.0103 24.9618L103.606 24.911L103.602 24.411L103.598 23.9111L97.0026 23.9618L97.0065 24.4618ZM103.602 24.411L103.606 24.911C103.443 24.9123 103.306 24.7812 103.304 24.6135L103.804 24.6093L104.304 24.6051C104.301 24.2166 103.983 23.9081 103.598 23.9111L103.602 24.411ZM103.804 24.6093L103.304 24.6125L103.319 26.9604L103.819 26.9572L104.319 26.954L104.304 24.6061L103.804 24.6093ZM103.582 27.1638L103.645 26.6677C103.378 26.6342 102.927 26.5933 102.452 26.6235C101.994 26.6527 101.428 26.7524 101.003 27.068L101.3 27.4696L101.598 27.8713C101.786 27.732 102.111 27.6473 102.515 27.6215C102.902 27.5968 103.285 27.6304 103.52 27.6599L103.582 27.1638ZM101.3 27.4696L101.003 27.068C100.077 27.7544 99.9809 28.6651 99.8033 29.5093L100.293 29.6122L100.782 29.7151C100.985 28.75 101.039 28.2861 101.598 27.8713L101.3 27.4696ZM100.293 29.6122L99.8033 29.5094C99.6533 30.223 99.7307 31.2586 99.7521 31.5116L100.25 31.4695L100.749 31.4274C100.725 31.1539 100.667 30.2628 100.782 29.715L100.293 29.6122ZM100.305 31.588L99.945 31.9353L103.776 35.9029L104.135 35.5556L104.495 35.2083L100.664 31.2407L100.305 31.588ZM104.135 35.5556L103.776 35.9028C103.661 35.7844 103.664 35.5983 103.778 35.4836L104.133 35.8349L104.489 36.1862C104.755 35.9169 104.76 35.483 104.495 35.2084L104.135 35.5556ZM104.133 35.8349L103.778 35.4836L100.304 39.0014L100.66 39.3527L101.015 39.704L104.489 36.1862L104.133 35.8349ZM100.506 39.4118L100.534 38.9126L99.504 38.8548L99.476 39.3541L99.448 39.8533L100.478 39.9111L100.506 39.4118ZM99.3402 39.2899L99.7078 38.951L97.7194 36.794L97.3517 37.1329L96.9841 37.4718L98.9726 39.6288L99.3402 39.2899ZM97.0474 37.1383L96.6679 36.8128C96.3948 37.1312 95.7527 37.8497 94.9491 38.5516C94.1338 39.2637 93.205 39.9114 92.3579 40.1506L92.4938 40.6317L92.6296 41.1129C93.6982 40.8112 94.765 40.0401 95.6069 39.3047C96.4606 38.5591 97.1375 37.8013 97.4269 37.4639L97.0474 37.1383ZM92.4938 40.6317L92.358 40.1505C91.5368 40.3823 90.8765 40.4962 90.2341 40.4917C89.5942 40.4873 88.9456 40.3651 88.1507 40.0932L87.9889 40.5663L87.8271 41.0394C88.6967 41.3369 89.454 41.4863 90.2271 41.4917C90.9977 41.4971 91.7576 41.359 92.6296 41.113L92.4938 40.6317ZM87.9889 40.5663L88.1507 40.0932C87.4509 39.8538 86.6554 39.2786 85.9849 38.7003C85.3262 38.1324 84.838 37.6058 84.7555 37.5155L84.3865 37.853L84.0176 38.1905C84.114 38.2959 84.6317 38.8539 85.3318 39.4577C86.02 40.0511 86.9363 40.7347 87.827 41.0394L87.9889 40.5663ZM84.3618 37.8183L84.7994 37.5764C84.7284 37.4479 84.3912 36.8252 84.2574 36.4042L83.7809 36.5556L83.3043 36.707C83.473 37.2377 83.8607 37.9453 83.9242 38.0602L84.3618 37.8183ZM83.7809 36.5556L84.2574 36.4042C84.0855 35.863 84.0827 35.1018 84.1469 34.3926C84.2097 33.6991 84.3295 33.1221 84.36 32.9825L83.8715 32.876L83.3829 32.7694C83.3479 32.93 83.2189 33.5517 83.151 34.3025C83.0844 35.0375 83.0691 35.9661 83.3043 36.7069L83.7809 36.5556ZM83.9014 32.8081L84.3122 33.0933L88.6199 26.8881L88.2092 26.6029L87.7985 26.3178L83.4907 32.523L83.9014 32.8081ZM88.2157 26.3823L88.6424 26.1218C88.5094 25.904 88.1966 25.3779 87.8822 24.7515C87.5641 24.1177 87.2612 23.4136 87.1287 22.8322L86.6412 22.9433L86.1537 23.0543C86.3136 23.7563 86.6609 24.5473 86.9884 25.2C87.3197 25.8601 87.6479 26.4119 87.7889 26.6429L88.2157 26.3823ZM86.6412 22.9433L87.1287 22.8322C86.7727 21.2689 86.6372 20.339 87.1148 18.9278L86.6412 18.7675L86.1676 18.6072C85.5997 20.2852 85.7855 21.4377 86.1537 23.0543L86.6412 22.9433ZM86.6412 18.7675L87.1148 18.9278C87.4816 17.8443 88.0159 17.0714 88.7157 16.4691C89.4232 15.8601 90.3222 15.406 91.448 14.9961L91.277 14.5263L91.1059 14.0565C89.9261 14.486 88.9006 14.9905 88.0633 15.7112C87.2183 16.4386 86.5876 17.3666 86.1676 18.6072L86.6412 18.7675ZM91.2828 29.9755L91.7739 29.8816C91.6865 29.4245 91.1651 29.1562 90.7363 29.4178L90.9967 29.8446L91.2571 30.2715C91.0585 30.3926 90.8285 30.2616 90.7917 30.0694L91.2828 29.9755ZM90.9967 29.8446L90.7356 29.4182C90.47 29.5808 90.0254 29.8747 89.6128 30.2512C89.2133 30.6157 88.7774 31.1166 88.6291 31.7036L89.1139 31.8261L89.5986 31.9486C89.6731 31.6541 89.9266 31.3186 90.2868 30.9899C90.6339 30.6732 91.0193 30.417 91.2578 30.2711L90.9967 29.8446ZM89.1139 31.8261L88.6291 31.7036C88.5315 32.0901 88.4634 32.4706 88.4867 32.8579C88.5107 33.2561 88.6294 33.6343 88.8648 34.0234L89.2926 33.7646L89.7204 33.5057C89.5623 33.2445 89.4984 33.0219 89.4849 32.7977C89.4707 32.5627 89.5101 32.2991 89.5986 31.9486L89.1139 31.8261ZM89.2926 33.7646L88.8648 34.0235C89.1513 34.4967 89.5157 35.0798 90.3331 35.1853L90.3971 34.6894L90.4611 34.1935C90.163 34.155 90.0163 33.9946 89.7203 33.5056L89.2926 33.7646ZM90.3971 34.6894L90.3334 35.1853C90.6988 35.2322 91.0083 35.091 91.2377 34.9158C91.4636 34.7432 91.6462 34.5132 91.7871 34.2989C92.0701 33.8687 92.2533 33.3957 92.31 33.2406L91.8404 33.0688L91.3709 32.897C91.3224 33.0295 91.1707 33.4164 90.9517 33.7494C90.8416 33.9167 90.7314 34.0442 90.6306 34.1212C90.5333 34.1955 90.4821 34.1962 90.4607 34.1934L90.3971 34.6894ZM91.8482 32.9677L92.3396 32.8749L91.7741 29.8827L91.2828 29.9755L90.7915 30.0683L91.3569 33.0606L91.8482 32.9677ZM91.859 18.6591L91.9229 18.1632C91.5569 18.1161 91.247 18.2576 91.0175 18.4331C90.7914 18.6061 90.6087 18.8364 90.4676 19.0511C90.1844 19.4819 90.0012 19.9554 89.9449 20.1094L90.4145 20.2811L90.884 20.4529C90.9321 20.3215 91.0839 19.934 91.3033 19.6003C91.4135 19.4326 91.5239 19.3048 91.6249 19.2275C91.7225 19.1529 91.7738 19.1522 91.7951 19.155L91.859 18.6591ZM90.4068 20.3815L89.9156 20.4746L90.482 23.466L90.9733 23.373L91.4645 23.2799L90.8981 20.2885L90.4068 20.3815ZM90.9733 23.373L90.482 23.4662C90.5689 23.9241 91.0911 24.1931 91.5205 23.9302L91.2594 23.5038L90.9983 23.0774C91.1972 22.9556 91.428 23.0873 91.4645 23.2797L90.9733 23.373ZM91.2594 23.5038L91.5205 23.9302C91.7859 23.7677 92.2305 23.4741 92.6431 23.0978C93.0426 22.7335 93.4785 22.2329 93.6269 21.646L93.1422 21.5234L92.6575 21.4007C92.583 21.6951 92.3295 22.0305 91.9693 22.3589C91.6222 22.6754 91.2368 22.9313 90.9983 23.0774L91.2594 23.5038ZM93.1422 21.5234L93.627 21.6458C93.7247 21.259 93.7926 20.8782 93.769 20.4907C93.7447 20.0923 93.6258 19.714 93.3902 19.325L92.9625 19.5839L92.5348 19.8428C92.6931 20.1043 92.7571 20.3271 92.7708 20.5515C92.7852 20.7867 92.746 21.0504 92.6574 21.4009L93.1422 21.5234ZM92.9625 19.5839L93.3902 19.325C93.1042 18.8525 92.7406 18.2687 91.923 18.1632L91.859 18.6591L91.795 19.155C92.0927 19.1934 92.2385 19.3534 92.5348 19.8428L92.9625 19.5839ZM90.4145 20.2811L89.9449 20.1094C89.9 20.2321 89.8936 20.3583 89.9156 20.4746L90.4068 20.3815L90.8981 20.2885C90.9073 20.3372 90.9053 20.3948 90.884 20.4529L90.4145 20.2811ZM97.3517 37.1329L97.7194 36.794C97.4339 36.4843 96.9422 36.493 96.6679 36.8128L97.0474 37.1383L97.4269 37.4639C97.3115 37.5985 97.1043 37.6021 96.9841 37.4718L97.3517 37.1329ZM99.476 39.3541L99.504 38.8548C99.5819 38.8592 99.655 38.8937 99.7078 38.951L99.3402 39.2899L98.9726 39.6288C99.0959 39.7626 99.2664 39.8431 99.448 39.8533L99.476 39.3541ZM98.7165 18.8066L98.2403 18.6543C98.2441 18.6422 98.2501 18.6264 98.2589 18.6088C98.2677 18.5912 98.2767 18.5772 98.2837 18.5672L98.6916 18.8565L99.0994 19.1457C99.1402 19.0882 99.1709 19.0271 99.1928 18.9589L98.7165 18.8066ZM88.2092 26.6029L88.6199 26.8881C88.7786 26.6595 88.7875 26.3594 88.6424 26.1218L88.2157 26.3823L87.7889 26.6429C87.7276 26.5424 87.7314 26.4144 87.7985 26.3178L88.2092 26.6029ZM100.25 31.4695L99.7521 31.5116C99.7659 31.6756 99.8371 31.8235 99.945 31.9353L100.305 31.588L100.664 31.2407C100.71 31.2877 100.742 31.353 100.749 31.4274L100.25 31.4695ZM91.8404 33.0688L92.31 33.2406C92.3546 33.1188 92.3617 32.9923 92.3396 32.8749L91.8482 32.9677L91.3569 33.0606C91.3476 33.011 91.35 32.954 91.3709 32.897L91.8404 33.0688ZM84.3865 37.853L84.7555 37.5155C84.764 37.5249 84.7728 37.5357 84.7813 37.5476C84.7896 37.5594 84.7956 37.5695 84.7994 37.5764L84.3618 37.8183L83.9242 38.0602C83.9481 38.1033 83.9778 38.147 84.0176 38.1905L84.3865 37.853ZM103.819 26.9572L103.319 26.9604C103.318 26.7712 103.482 26.6473 103.645 26.6677L103.582 27.1638L103.52 27.6599C103.932 27.7117 104.322 27.3943 104.319 26.954L103.819 26.9572ZM98.199 27.4569L98.6965 27.4069C98.6702 27.1448 98.5022 26.9414 98.2936 26.844L98.082 27.297L97.8704 27.75C97.7903 27.7126 97.7137 27.6279 97.7015 27.5069L98.199 27.4569ZM100.66 39.3527L100.304 39.0014C100.364 38.9401 100.448 38.9078 100.534 38.9126L100.506 39.4118L100.478 39.9111C100.679 39.9223 100.874 39.8469 101.015 39.704L100.66 39.3527ZM83.8715 32.876L84.36 32.9825C84.3502 33.0273 84.3317 33.0652 84.3122 33.0933L83.9014 32.8081L83.4907 32.523C83.4422 32.5928 83.4035 32.6749 83.3829 32.7694L83.8715 32.876Z" fill="black"/>
<path d="M122.764 6.01117L124.582 8.16059L123.15 11.3579L122.984 18.7983L118.079 19.7358C118.475 18.1928 117.363 16.7415 116.756 16.2084C111.854 16.9795 109.98 21.8781 109.977 21.8852C109.975 21.9017 109.685 24.3481 110.142 24.9711L117.142 26.8452L122.488 29.8774C122.818 25.909 124.539 17.7842 128.772 17.0346C132.335 16.404 134.143 19.6863 134.834 22.2202L132.299 10.0903L138.748 12.4047L143.708 29.601L141.559 10.4204L146.189 7.77485L147.57 34.9067L148.023 45.6245L144.489 46.4399L140.502 33.2123L141.68 50.6977L138.873 50.0639L137.151 46.9838L135.611 35.5678C135.901 40.786 132.289 45.4124 130.447 47.0737C130.417 47.3455 129.848 47.7984 127.819 47.436C125.789 47.0733 123.531 41.6677 122.655 39.0102C122.365 40.7497 115.316 47.5274 111.873 50.9702L105.441 54.9565L104.897 48.7045L104.625 46.1684C108.855 44.2535 119.07 33.1287 116.976 32.5776C106.49 29.8179 105.585 25.6516 104.41 22.4916C104.042 20.6912 104.178 15.9542 107.662 11.4125C111.145 6.87101 119.182 5.91931 122.764 6.01117ZM130.483 24.1528C129.645 24.0627 128.173 27.507 127.706 31.85C127.24 36.1931 127.955 39.7903 128.793 39.8803C129.631 39.9691 130.688 36.5215 131.155 32.1791C131.621 27.8369 131.321 24.244 130.483 24.1528Z" fill="#F7C500"/>
<path d="M122.764 6.01117L123.146 5.68824L123.001 5.51708L122.777 5.51134L122.764 6.01117ZM124.582 8.16059L125.039 8.36504L125.167 8.07789L124.964 7.83766L124.582 8.16059ZM123.15 11.3579L122.694 11.1534L122.652 11.2456L122.65 11.3467L123.15 11.3579ZM122.984 18.7983L123.078 19.2894L123.475 19.2135L123.484 18.8094L122.984 18.7983ZM118.079 19.7358L117.594 19.6113L117.398 20.3749L118.172 20.2269L118.079 19.7358ZM116.756 16.2084L117.086 15.8329L116.91 15.6781L116.679 15.7145L116.756 16.2084ZM109.977 21.8852L109.51 21.7066L109.488 21.7645L109.481 21.8261L109.977 21.8852ZM110.142 24.9711L109.739 25.2671L109.843 25.4087L110.013 25.4541L110.142 24.9711ZM117.142 26.8452L117.389 26.4103L117.333 26.3787L117.271 26.3622L117.142 26.8452ZM122.488 29.8774L122.241 30.3123L122.921 30.698L122.986 29.9189L122.488 29.8774ZM128.772 17.0346L128.685 16.5423L128.685 16.5423L128.772 17.0346ZM134.834 22.2202L134.352 22.3517L135.324 22.1179L134.834 22.2202ZM132.299 10.0903L132.468 9.61967L131.627 9.31775L131.81 10.1926L132.299 10.0903ZM138.748 12.4047L139.228 12.2661L139.157 12.0205L138.916 11.9341L138.748 12.4047ZM143.708 29.601L143.228 29.7396L144.205 29.5453L143.708 29.601ZM141.559 10.4204L141.311 9.98623L141.026 10.1493L141.062 10.476L141.559 10.4204ZM146.189 7.77485L146.688 7.74943L146.647 6.93727L145.941 7.34072L146.189 7.77485ZM147.57 34.9067L148.069 34.8856L148.069 34.8813L147.57 34.9067ZM148.023 45.6245L148.135 46.1117L148.54 46.0183L148.522 45.6033L148.023 45.6245ZM144.489 46.4399L144.01 46.5842L144.145 47.0323L144.601 46.9271L144.489 46.4399ZM140.502 33.2123L140.981 33.0681L140.004 33.2459L140.502 33.2123ZM141.68 50.6977L141.57 51.1854L142.224 51.3331L142.179 50.6641L141.68 50.6977ZM138.873 50.0639L138.436 50.3079L138.545 50.5025L138.762 50.5516L138.873 50.0639ZM137.151 46.9838L136.655 47.0507L136.668 47.1448L136.714 47.2278L137.151 46.9838ZM135.611 35.5678L136.106 35.501L135.112 35.5955L135.611 35.5678ZM130.447 47.0737L130.112 46.7023L129.971 46.8296L129.95 47.0185L130.447 47.0737ZM127.819 47.436L127.731 47.9282L127.731 47.9282L127.819 47.436ZM122.655 39.0102L123.13 38.8537L122.162 38.928L122.655 39.0102ZM111.873 50.9702L112.137 51.3952L112.186 51.3647L112.227 51.3237L111.873 50.9702ZM105.441 54.9565L104.943 54.9998L105.013 55.8097L105.704 55.3815L105.441 54.9565ZM104.897 48.7045L105.395 48.6612L105.394 48.6513L104.897 48.7045ZM104.625 46.1684L104.419 45.7129L104.09 45.8621L104.128 46.2216L104.625 46.1684ZM116.976 32.5776L116.849 33.0611L116.849 33.0611L116.976 32.5776ZM104.41 22.4916L103.92 22.5916L103.927 22.6296L103.941 22.666L104.41 22.4916ZM107.662 11.4125L107.265 11.1082L107.265 11.1082L107.662 11.4125ZM130.483 24.1528L130.537 23.6557L130.536 23.6556L130.483 24.1528ZM127.706 31.85L127.209 31.7966L127.209 31.7966L127.706 31.85ZM128.793 39.8803L128.74 40.3775L128.741 40.3775L128.793 39.8803ZM131.155 32.1791L131.652 32.2325V32.2325L131.155 32.1791ZM122.764 6.01117L122.382 6.33411L124.201 8.48352L124.582 8.16059L124.964 7.83766L123.146 5.68824L122.764 6.01117ZM124.582 8.16059L124.126 7.95614L122.694 11.1534L123.15 11.3579L123.606 11.5623L125.039 8.36504L124.582 8.16059ZM123.15 11.3579L122.65 11.3467L122.484 18.7871L122.984 18.7983L123.484 18.8094L123.65 11.369L123.15 11.3579ZM122.984 18.7983L122.89 18.3072L117.985 19.2447L118.079 19.7358L118.172 20.2269L123.078 19.2894L122.984 18.7983ZM118.079 19.7358L118.563 19.8603C118.8 18.9371 118.58 18.0634 118.243 17.3737C117.906 16.6861 117.434 16.1384 117.086 15.8329L116.756 16.2084L116.426 16.584C116.685 16.8116 117.072 17.2561 117.344 17.8131C117.616 18.3681 117.754 18.9915 117.594 19.6113L118.079 19.7358ZM116.756 16.2084L116.679 15.7145C114.067 16.1253 112.273 17.6356 111.143 19.0166C110.014 20.396 109.521 21.6769 109.51 21.7066L109.977 21.8852L110.444 22.0638C110.435 22.0864 110.882 20.9145 111.916 19.6499C112.95 18.3872 114.544 17.0627 116.834 16.7024L116.756 16.2084ZM109.977 21.8852L109.481 21.8261C109.479 21.84 109.404 22.4741 109.387 23.1894C109.379 23.546 109.385 23.9366 109.426 24.2865C109.464 24.6095 109.541 24.9968 109.739 25.2671L110.142 24.9711L110.545 24.6752C110.515 24.6339 110.456 24.4819 110.42 24.1704C110.386 23.8859 110.38 23.547 110.387 23.2121C110.402 22.5443 110.473 21.947 110.474 21.9443L109.977 21.8852ZM110.142 24.9711L110.013 25.4541L117.013 27.3281L117.142 26.8452L117.271 26.3622L110.271 24.4881L110.142 24.9711ZM117.142 26.8452L116.895 27.2801L122.241 30.3123L122.488 29.8774L122.734 29.4425L117.389 26.4103L117.142 26.8452ZM122.488 29.8774L122.986 29.9189C123.149 27.9664 123.654 24.9921 124.634 22.4273C125.123 21.1447 125.722 19.9889 126.437 19.1165C127.152 18.2453 127.956 17.6869 128.859 17.527L128.772 17.0346L128.685 16.5423C127.472 16.7571 126.473 17.4954 125.664 18.4825C124.856 19.4683 124.21 20.7322 123.699 22.0706C122.677 24.7477 122.157 27.82 121.989 29.8359L122.488 29.8774ZM128.772 17.0346L128.859 17.527C130.445 17.2462 131.624 17.8242 132.514 18.7811C133.422 19.758 134.018 21.1266 134.352 22.3517L134.834 22.2202L135.317 22.0886C134.96 20.7799 134.306 19.2405 133.246 18.1003C132.168 16.9402 130.662 16.1923 128.685 16.5423L128.772 17.0346ZM134.834 22.2202L135.324 22.1179L132.789 9.98798L132.299 10.0903L131.81 10.1926L134.345 22.3224L134.834 22.2202ZM132.299 10.0903L132.13 10.5609L138.579 12.8753L138.748 12.4047L138.916 11.9341L132.468 9.61967L132.299 10.0903ZM138.748 12.4047L138.267 12.5433L143.228 29.7396L143.708 29.601L144.189 29.4624L139.228 12.2661L138.748 12.4047ZM143.708 29.601L144.205 29.5453L142.056 10.3647L141.559 10.4204L141.062 10.476L143.212 29.6567L143.708 29.601ZM141.559 10.4204L141.807 10.8545L146.437 8.20897L146.189 7.77485L145.941 7.34072L141.311 9.98623L141.559 10.4204ZM146.189 7.77485L145.69 7.80026L147.07 34.9321L147.57 34.9067L148.069 34.8813L146.688 7.74943L146.189 7.77485ZM147.57 34.9067L147.07 34.9278L147.523 45.6456L148.023 45.6245L148.522 45.6033L148.069 34.8856L147.57 34.9067ZM148.023 45.6245L147.91 45.1373L144.376 45.9527L144.489 46.4399L144.601 46.9271L148.135 46.1117L148.023 45.6245ZM144.489 46.4399L144.967 46.2956L140.981 33.0681L140.502 33.2123L140.024 33.3566L144.01 46.5842L144.489 46.4399ZM140.502 33.2123L140.004 33.2459L141.181 50.7313L141.68 50.6977L142.179 50.6641L141.001 33.1787L140.502 33.2123ZM141.68 50.6977L141.79 50.21L138.983 49.5762L138.873 50.0639L138.762 50.5516L141.57 51.1854L141.68 50.6977ZM138.873 50.0639L139.309 49.8199L137.587 46.7399L137.151 46.9838L136.714 47.2278L138.436 50.3079L138.873 50.0639ZM137.151 46.9838L137.646 46.917L136.106 35.501L135.611 35.5678L135.115 35.6347L136.655 47.0507L137.151 46.9838ZM135.611 35.5678L135.112 35.5955C135.25 38.0828 134.458 40.4506 133.389 42.4156C132.32 44.3811 130.992 45.9086 130.112 46.7023L130.447 47.0737L130.782 47.445C131.744 46.5775 133.143 44.9611 134.268 42.8935C135.393 40.8255 136.262 38.271 136.11 35.5401L135.611 35.5678ZM130.447 47.0737L129.95 47.0185C129.97 46.8365 130.092 46.9231 129.759 47.0082C129.457 47.0851 128.888 47.119 127.907 46.9438L127.819 47.436L127.731 47.9282C128.779 48.1154 129.509 48.104 130.006 47.9771C130.472 47.8584 130.893 47.5826 130.944 47.1289L130.447 47.0737ZM127.819 47.436L127.907 46.9438C127.578 46.8849 127.153 46.5943 126.659 46.0158C126.181 45.4546 125.701 44.6964 125.245 43.8472C124.334 42.151 123.561 40.1638 123.13 38.8537L122.655 39.0102L122.18 39.1667C122.624 40.514 123.418 42.5584 124.364 44.3201C124.836 45.1997 125.355 46.027 125.898 46.6645C126.427 47.2846 127.045 47.8057 127.731 47.9282L127.819 47.436ZM122.655 39.0102L122.162 38.928C122.143 39.0394 122.05 39.2632 121.827 39.6147C121.614 39.9504 121.315 40.3546 120.943 40.8142C120.201 41.7324 119.196 42.8389 118.084 44.0068C115.861 46.343 113.248 48.8882 111.52 50.6166L111.873 50.9702L112.227 51.3237C113.941 49.6093 116.574 47.0443 118.809 44.6961C119.926 43.5218 120.953 42.3926 121.721 41.4431C122.104 40.9688 122.43 40.5313 122.672 40.15C122.903 39.7844 123.094 39.4159 123.148 39.0924L122.655 39.0102ZM111.873 50.9702L111.61 50.5452L105.177 54.5315L105.441 54.9565L105.704 55.3815L112.137 51.3952L111.873 50.9702ZM105.441 54.9565L105.939 54.9131L105.395 48.6612L104.897 48.7045L104.399 48.7479L104.943 54.9998L105.441 54.9565ZM104.897 48.7045L105.394 48.6513L105.123 46.1152L104.625 46.1684L104.128 46.2216L104.4 48.7578L104.897 48.7045ZM104.625 46.1684L104.832 46.6239C105.96 46.1132 107.437 45.0171 108.962 43.6919C110.498 42.3569 112.12 40.7558 113.541 39.1987C114.96 37.6452 116.195 36.1184 116.947 34.9321C117.317 34.3479 117.599 33.8031 117.706 33.3587C117.759 33.1393 117.786 32.8795 117.701 32.6351C117.602 32.3521 117.38 32.1669 117.103 32.094L116.976 32.5776L116.849 33.0611C116.851 33.0618 116.831 33.0566 116.805 33.0335C116.778 33.0092 116.763 32.9819 116.757 32.9649C116.75 32.9449 116.768 32.9825 116.734 33.1238C116.667 33.4008 116.461 33.8304 116.102 34.3967C115.396 35.5112 114.205 36.9885 112.803 38.5244C111.404 40.0568 109.809 41.6304 108.306 42.9371C106.791 44.2536 105.406 45.2662 104.419 45.7129L104.625 46.1684ZM116.976 32.5776L117.103 32.094C111.912 30.7279 109.162 29.0311 107.565 27.3413C105.966 25.6494 105.478 23.9294 104.878 22.3173L104.41 22.4916L103.941 22.666C104.517 24.2138 105.069 26.157 106.838 28.0282C108.609 29.9014 111.554 31.6676 116.849 33.0611L116.976 32.5776ZM104.41 22.4916L104.9 22.3917C104.559 20.7218 104.67 16.1347 108.058 11.7168L107.662 11.4125L107.265 11.1082C103.687 15.7736 103.526 20.6605 103.92 22.5916L104.41 22.4916ZM107.662 11.4125L108.058 11.7168C109.703 9.57291 112.458 8.23896 115.308 7.45649C118.147 6.67696 121.003 6.46617 122.751 6.51101L122.764 6.01117L122.777 5.51134C120.943 5.46432 117.989 5.68345 115.043 6.49218C112.108 7.29798 109.104 8.71065 107.265 11.1082L107.662 11.4125ZM130.483 24.1528L130.536 23.6556C130.25 23.6249 130.008 23.7511 129.836 23.8843C129.659 24.0212 129.498 24.21 129.351 24.4211C129.055 24.8458 128.761 25.4453 128.488 26.1609C127.94 27.5981 127.447 29.5874 127.209 31.7966L127.706 31.85L128.204 31.9034C128.433 29.7696 128.909 27.8653 129.423 26.5171C129.681 25.84 129.941 25.3239 130.172 24.9923C130.288 24.8254 130.382 24.7259 130.448 24.6748C130.519 24.6199 130.506 24.6582 130.429 24.6499L130.483 24.1528ZM127.706 31.85L127.209 31.7966C126.972 34.0059 127.034 36.035 127.267 37.5366C127.383 38.2842 127.544 38.9231 127.744 39.394C127.844 39.6282 127.963 39.8439 128.107 40.0127C128.248 40.1777 128.458 40.3471 128.74 40.3775L128.793 39.8803L128.847 39.3832C128.919 39.391 128.923 39.4283 128.867 39.3624C128.814 39.3003 128.743 39.1862 128.665 39.0027C128.51 38.6381 128.364 38.0893 128.255 37.3835C128.037 35.9782 127.974 34.0372 128.204 31.9034L127.706 31.85ZM128.793 39.8803L128.741 40.3775C129.033 40.4085 129.273 40.2768 129.442 40.1327C129.61 39.9885 129.755 39.7926 129.881 39.5799C130.134 39.1517 130.373 38.5501 130.591 37.838C131.031 36.4058 131.416 34.4254 131.652 32.2325L131.155 32.1791L130.658 32.1257C130.427 34.2752 130.051 36.1898 129.635 37.5448C129.426 38.2263 129.215 38.7414 129.02 39.0703C128.922 39.2362 128.843 39.329 128.791 39.3733C128.739 39.4177 128.763 39.3743 128.846 39.3831L128.793 39.8803ZM131.155 32.1791L131.652 32.2325C131.887 30.0397 131.931 28.0228 131.806 26.5301C131.744 25.788 131.638 25.1494 131.481 24.6771C131.403 24.4426 131.304 24.2204 131.17 24.0438C131.036 23.8673 130.829 23.6875 130.537 23.6557L130.483 24.1528L130.429 24.6498C130.346 24.6408 130.332 24.5933 130.373 24.6477C130.414 24.702 130.472 24.8094 130.532 24.9924C130.653 25.3551 130.75 25.9033 130.81 26.6135C130.928 28.0257 130.888 29.9763 130.658 32.1257L131.155 32.1791Z" fill="black"/>
</svg>
